<svg width="1600" height="190" viewBox="0 0 1600 190" fill="none" xmlns="http://www.w3.org/2000/svg">
<g clip-path="url(#clip0_4973_57538)">
<rect width="1600" height="190" fill="#F9F9F9"/>
<ellipse cx="800.874" cy="508.987" rx="558.673" ry="353.935" stroke="#E0E4E9" stroke-linecap="round" stroke-linejoin="round"/>
<ellipse cx="801.23" cy="476.193" rx="696.211" ry="435.415" stroke="#E0E4E9" stroke-linecap="round" stroke-linejoin="round"/>
<path d="M0 273.12C112.854 64.6418 428.124 -68.7188 800.737 -68.7188C1168.52 -68.7188 1482.53 60.8736 1599.07 265.12" stroke="#E0E4E9" stroke-linecap="round" stroke-linejoin="round"/>
<path d="M1401.46 -68.7188C1476.2 -34.696 1542.77 5.55252 1599.15 50.716" stroke="#E0E4E9" stroke-linecap="round" stroke-linejoin="round"/>
<path d="M2.34961 52.4116C184.587 -94.6837 474.737 -189.816 801.748 -189.816C1008.32 -189.816 1200.25 -151.834 1359.55 -86.765" stroke="#E0E4E9" stroke-linecap="round" stroke-linejoin="round"/>
<path d="M2.37695 -93.4326C2.37695 -93.4326 495.871 337.422 594.908 832.664" stroke="#E0E4E9" stroke-linecap="round" stroke-linejoin="round"/>
<path d="M375.863 -519.996C375.863 -519.996 743.833 145.114 708.992 857.189" stroke="#E0E4E9" stroke-linecap="round" stroke-linejoin="round"/>
<path d="M1227.63 -520C1227.63 -520 871.159 93.8846 888.116 857.185" stroke="#E0E4E9" stroke-linecap="round" stroke-linejoin="round"/>
<path d="M1008.62 832.666C1008.62 832.666 1133.24 224.488 1600 -77.7852" stroke="#E0E4E9" stroke-linecap="round" stroke-linejoin="round"/>
<path d="M1451.62 -30.9439C1446.42 46.4913 1382.7 105.82 1307.38 103.338C1232.07 100.856 1172.15 37.4528 1171.77 -40.1663C1171.39 -117.785 1230.68 -181.812 1305.96 -185.083C1381.25 -188.353 1445.56 -129.694 1451.52 -52.3176" fill="white"/>
<path d="M1451.62 -30.9439C1446.42 46.4913 1382.7 105.82 1307.38 103.338C1232.07 100.856 1172.15 37.4528 1171.77 -40.1663C1171.39 -117.785 1230.68 -181.812 1305.96 -185.083C1381.25 -188.353 1445.56 -129.694 1451.52 -52.3176" stroke="#E0E4E9" stroke-linecap="round" stroke-linejoin="round"/>
<path d="M1362.99 -175.583L1259.73 93.7618" stroke="#E0E4E9" stroke-linecap="round" stroke-linejoin="round"/>
<ellipse rx="80.6281" ry="144.23" transform="matrix(0.92629 0.376812 -0.357963 0.933736 1311.36 -40.9245)" stroke="#E0E4E9" stroke-linecap="round" stroke-linejoin="round"/>
<path d="M1180.63 -94.0882L1442.09 12.2747" stroke="#E0E4E9" stroke-linecap="round" stroke-linejoin="round"/>
<path d="M1371.36 90.0018C1336.25 107.084 1295.85 108.44 1259.73 93.7491C1223.62 79.0578 1195.01 49.6285 1180.71 12.4446C1209.82 7.14826 1247.42 11.6582 1285.3 27.0677C1323.18 42.4772 1353.63 65.6487 1371.36 90.0018Z" stroke="#E0E4E9" stroke-linecap="round" stroke-linejoin="round"/>
<path d="M924.31 142.369C924.307 154.935 918.163 166.655 907.965 173.549L881.631 105.639C892.199 103.663 903.072 106.622 911.315 113.716C919.557 120.809 924.317 131.305 924.31 142.369Z" fill="white" stroke="#E0E4E9" stroke-linecap="round" stroke-linejoin="round"/>
<path d="M912.651 130.561C916.63 140.308 915.055 151.521 908.559 159.708L912.651 130.561Z" fill="white"/>
<path d="M912.651 130.561C916.63 140.308 915.055 151.521 908.559 159.708" stroke="#E0E4E9" stroke-linecap="round" stroke-linejoin="round"/>
<path d="M917.806 262.564C906.07 267.391 892.758 261.506 888.07 249.419L816.502 64.8325C813.383 56.9906 814.59 48.0274 819.664 41.3566C824.738 34.6857 832.898 31.3341 841.036 32.5781C849.173 33.8221 856.037 39.4704 859.011 47.3716L881.628 105.728L907.962 173.639L930.531 231.933C935.228 244.011 929.531 257.725 917.806 262.564Z" fill="white" stroke="#E0E4E9" stroke-linecap="round" stroke-linejoin="round"/>
<path d="M854.691 121.496L910.035 264.264L854.691 121.496Z" fill="white"/>
<path d="M854.691 121.496L910.035 264.264" stroke="#E0E4E9" stroke-linecap="round" stroke-linejoin="round"/>
<path d="M845.188 96.9443L850.866 111.599L845.188 96.9443Z" fill="white"/>
<path d="M845.188 96.9443L850.866 111.599" stroke="#E0E4E9" stroke-linecap="round" stroke-linejoin="round"/>
<path d="M827.74 51.9336L842.209 89.2749L827.74 51.9336Z" fill="white"/>
<path d="M827.74 51.9336L842.209 89.2749" stroke="#E0E4E9" stroke-linecap="round" stroke-linejoin="round"/>
<path d="M765.192 257.698L764.889 257.823L715.502 278.589L711.156 280.41L703.564 283.603C691.096 288.881 676.795 283.217 670.971 270.694C670.716 270.158 670.474 269.597 670.256 269.035L650.097 216.99C644.528 202.543 651.297 186.171 665.268 180.297L725.37 154.929L765.192 257.698Z" fill="white" stroke="#E0E4E9" stroke-linecap="round" stroke-linejoin="round"/>
<path d="M790.63 108.424C756.766 145.379 725.383 154.933 725.383 154.933L765.192 257.652C847.318 243.547 888.072 249.371 888.072 249.371L818.853 70.8213C813.267 79.9439 807.124 88.6919 800.462 97.0126" fill="white"/>
<path d="M790.63 108.424C756.766 145.379 725.383 154.933 725.383 154.933L765.192 257.652C847.318 243.547 888.072 249.371 888.072 249.371L818.853 70.8213C813.267 79.9439 807.124 88.6919 800.462 97.0126" stroke="#E0E4E9" stroke-linecap="round" stroke-linejoin="round"/>
<path d="M947.179 65.0456L967.157 4.05728L944.903 16.2175L949.48 -15L926.572 35.7612L950.085 26.9185L947.179 65.0456Z" fill="white" stroke="#E0E4E9" stroke-linecap="round" stroke-linejoin="round"/>
<path d="M975.148 162.128L1029.79 185.888L1020.18 163.326L1048.54 169.986L1003.5 144.094L1009.98 167.641L975.148 162.128Z" fill="white" stroke="#E0E4E9" stroke-linecap="round" stroke-linejoin="round"/>
<path d="M963.041 110.896L1018.97 90.5918L997.124 80.5642L1022.45 65.8223L972.219 77.8952L992.402 90.8287L963.041 110.896Z" fill="white" stroke="#E0E4E9" stroke-linecap="round" stroke-linejoin="round"/>
<path d="M370.731 84.1817L387.022 138.845L332.444 125.398L316.146 70.7129L370.731 84.1817Z" fill="white" stroke="#E0E4E9" stroke-linecap="round" stroke-linejoin="round"/>
<path d="M316.146 70.7097L332.443 125.394L277.862 111.936L261.559 57.2305L316.146 70.7097Z" fill="white" stroke="#E0E4E9" stroke-linecap="round" stroke-linejoin="round"/>
<path d="M261.559 57.2305L277.862 111.936L221.774 98.1089L205.461 43.3721L261.559 57.2305Z" fill="white" stroke="#E0E4E9" stroke-linecap="round" stroke-linejoin="round"/>
<path d="M244.906 1.35825L261.558 57.2331L205.46 43.3747L188.998 -11.8633L244.906 1.35825Z" fill="white" stroke="#E0E4E9" stroke-linecap="round" stroke-linejoin="round"/>
<path d="M353.705 27.0615L370.727 84.1787L316.142 70.7099L299.301 14.1982L353.705 27.0615Z" fill="white" stroke="#E0E4E9" stroke-linecap="round" stroke-linejoin="round"/>
<path d="M228.103 -55.8784L227.907 -55.6794L244.904 1.35428L188.996 -11.8672L171.682 -69.9658L228.103 -55.8784Z" fill="white" stroke="#E0E4E9" stroke-linecap="round" stroke-linejoin="round"/>
<path d="M409.515 41.176L425.812 95.8607L387.021 138.847L370.73 84.1829L409.515 41.176Z" fill="white" stroke="#E0E4E9" stroke-linecap="round" stroke-linejoin="round"/>
<path d="M447.399 -0.837243L463.702 53.8683L426.085 95.5464L425.813 95.8609L409.516 41.1762L409.788 40.8617L447.399 -0.837243Z" fill="white" stroke="#E0E4E9" stroke-linecap="round" stroke-linejoin="round"/>
<path d="M488.112 -46.008L504.425 8.72889L463.703 53.8678L447.399 -0.837705L447.565 -1.02709L488.112 -46.008Z" fill="white" stroke="#E0E4E9" stroke-linecap="round" stroke-linejoin="round"/>
<path d="M282.461 -42.3187L299.305 14.2035L244.908 1.3611L227.91 -55.6726L228.106 -55.8716L282.451 -42.3154L282.461 -42.3187Z" fill="white" stroke="#E0E4E9" stroke-linecap="round" stroke-linejoin="round"/>
<path d="M337.093 -28.6835L353.708 27.066L299.304 14.2028L282.459 -42.3193L337.093 -28.6835Z" fill="white" stroke="#E0E4E9" stroke-linecap="round" stroke-linejoin="round"/>
<path d="M299.306 14.2027L316.148 70.7144L261.56 57.2352L244.908 1.36035L299.306 14.2027Z" fill="white" stroke="#E0E4E9" stroke-linecap="round" stroke-linejoin="round"/>
<path d="M375.833 -71.8494L392.675 -15.3377L353.71 27.0637L337.095 -28.6859L375.833 -71.8494Z" fill="white" stroke="#E0E4E9" stroke-linecap="round" stroke-linejoin="round"/>
<path d="M430.741 -56.7357L447.399 -0.839961L409.788 40.859L409.516 41.1735L392.674 -15.3382L392.952 -15.6318L430.741 -56.7357Z" fill="white" stroke="#E0E4E9" stroke-linecap="round" stroke-linejoin="round"/>
<path d="M409.515 41.173L370.73 84.1799L353.708 27.0627L392.673 -15.3387L409.515 41.173Z" fill="white" stroke="#E0E4E9" stroke-linecap="round" stroke-linejoin="round"/>
</g>
<defs>
<clipPath id="clip0_4973_57538">
<rect width="1600" height="190" fill="white"/>
</clipPath>
</defs>
</svg>
