<svg width="1600" height="376" viewBox="0 0 1600 376" fill="none" xmlns="http://www.w3.org/2000/svg">
<g clip-path="url(#clip0)">
<rect width="1600" height="376" fill="#F9F9F9"/>
<ellipse cx="800.873" cy="601.987" rx="558.673" ry="353.935" stroke="#E0E4E9" stroke-linecap="round" stroke-linejoin="round"/>
<ellipse cx="800.164" cy="661.671" rx="492.02" ry="294.272" stroke="#E0E4E9" stroke-linecap="round" stroke-linejoin="round"/>
<ellipse cx="801.229" cy="569.193" rx="696.211" ry="435.415" stroke="#E0E4E9" stroke-linecap="round" stroke-linejoin="round"/>
<path d="M0 366.12C112.854 157.642 428.124 24.2812 800.737 24.2812C1168.52 24.2812 1482.53 153.874 1599.07 358.12" stroke="#E0E4E9" stroke-linecap="round" stroke-linejoin="round"/>
<path d="M1401.46 24.2812C1476.2 58.304 1542.77 98.5525 1599.15 143.716" stroke="#E0E4E9" stroke-linecap="round" stroke-linejoin="round"/>
<path d="M2.34961 145.412C184.587 -1.68368 474.737 -96.8164 801.748 -96.8164C1008.32 -96.8164 1200.25 -58.8343 1359.55 6.23495" stroke="#E0E4E9" stroke-linecap="round" stroke-linejoin="round"/>
<path d="M2.37744 -0.432617C2.37744 -0.432617 495.872 430.422 594.909 925.664" stroke="#E0E4E9" stroke-linecap="round" stroke-linejoin="round"/>
<path d="M375.863 -426.996C375.863 -426.996 743.833 238.114 708.992 950.189" stroke="#E0E4E9" stroke-linecap="round" stroke-linejoin="round"/>
<path d="M1227.63 -427C1227.63 -427 871.159 186.885 888.116 950.185" stroke="#E0E4E9" stroke-linecap="round" stroke-linejoin="round"/>
<path d="M1008.62 925.666C1008.62 925.666 1133.24 317.488 1600 15.2148" stroke="#E0E4E9" stroke-linecap="round" stroke-linejoin="round"/>
<path d="M1451.62 62.0561C1446.42 139.491 1382.7 198.82 1307.38 196.338C1232.07 193.856 1172.15 130.453 1171.77 52.8337C1171.39 -24.7854 1230.68 -88.8124 1305.96 -92.0825C1381.25 -95.3527 1445.56 -36.6944 1451.52 40.6823" fill="white"/>
<path d="M1451.62 62.0561C1446.42 139.491 1382.7 198.82 1307.38 196.338C1232.07 193.856 1172.15 130.453 1171.77 52.8337C1171.39 -24.7854 1230.68 -88.8124 1305.96 -92.0825C1381.25 -95.3527 1445.56 -36.6944 1451.52 40.6823" stroke="#E0E4E9" stroke-linecap="round" stroke-linejoin="round"/>
<path d="M1362.99 -82.5829L1259.73 186.762" stroke="#E0E4E9" stroke-linecap="round" stroke-linejoin="round"/>
<ellipse rx="80.6281" ry="144.23" transform="matrix(0.92629 0.376812 -0.357963 0.933736 1311.36 52.0755)" stroke="#E0E4E9" stroke-linecap="round" stroke-linejoin="round"/>
<path d="M1180.63 -1.08823L1442.09 105.275" stroke="#E0E4E9" stroke-linecap="round" stroke-linejoin="round"/>
<path d="M1442.01 -1.28901C1412.91 4.02371 1375.29 -0.506191 1337.42 -15.9121C1299.55 -31.318 1269.1 -54.4768 1251.36 -78.8462C1286.47 -95.9283 1326.87 -97.2847 1362.99 -82.5935C1399.1 -67.9022 1427.7 -38.4729 1442.01 -1.28901V-1.28901Z" stroke="#E0E4E9" stroke-linecap="round" stroke-linejoin="round"/>
<path d="M1371.36 183.002C1336.25 200.084 1295.85 201.44 1259.73 186.749C1223.62 172.058 1195.01 142.628 1180.71 105.445C1209.82 100.148 1247.42 104.658 1285.3 120.068C1323.18 135.477 1353.63 158.649 1371.36 183.002Z" stroke="#E0E4E9" stroke-linecap="round" stroke-linejoin="round"/>
<path d="M803.161 429.738C802.677 437.52 789.346 446.962 776.9 452.275C767.242 456.378 756.143 452.191 751.341 442.634L715.466 371.543L764.853 350.777C765.664 354.519 769.26 368.725 780.871 391.262C789.746 408.473 803.876 417.74 803.161 429.738Z" fill="white" stroke="#E0E4E9" stroke-linecap="round" stroke-linejoin="round"/>
<path d="M670.972 363.696C668.831 364.229 666.636 364.497 664.434 364.494C651.599 364.501 640.353 355.645 636.993 342.885C633.634 330.124 638.995 316.628 650.074 309.954L670.221 362.037C670.487 362.599 670.717 363.16 670.972 363.696Z" fill="white" stroke="#E0E4E9" stroke-linecap="round" stroke-linejoin="round"/>
<path d="M924.31 235.369C924.307 247.935 918.163 259.655 907.965 266.549L881.631 198.639C892.199 196.663 903.072 199.622 911.315 206.716C919.557 213.809 924.317 224.305 924.31 235.369Z" fill="white" stroke="#E0E4E9" stroke-linecap="round" stroke-linejoin="round"/>
<path d="M912.65 223.561C916.629 233.308 915.054 244.521 908.558 252.708L912.65 223.561Z" fill="white"/>
<path d="M912.65 223.561C916.629 233.308 915.054 244.521 908.558 252.708" stroke="#E0E4E9" stroke-linecap="round" stroke-linejoin="round"/>
<path d="M917.807 355.564C906.071 360.391 892.759 354.506 888.07 342.419L816.503 157.832C813.383 149.991 814.591 141.027 819.665 134.357C824.739 127.686 832.899 124.334 841.037 125.578C849.174 126.822 856.038 132.47 859.012 140.372L881.629 198.728L907.963 266.639L930.532 324.933C935.229 337.011 929.532 350.725 917.807 355.564Z" fill="white" stroke="#E0E4E9" stroke-linecap="round" stroke-linejoin="round"/>
<path d="M854.691 214.496L910.034 357.264L854.691 214.496Z" fill="white"/>
<path d="M854.691 214.496L910.034 357.264" stroke="#E0E4E9" stroke-linecap="round" stroke-linejoin="round"/>
<path d="M845.188 189.944L850.866 204.599L845.188 189.944Z" fill="white"/>
<path d="M845.188 189.944L850.866 204.599" stroke="#E0E4E9" stroke-linecap="round" stroke-linejoin="round"/>
<path d="M827.74 144.934L842.209 182.275L827.74 144.934Z" fill="white"/>
<path d="M827.74 144.934L842.209 182.275" stroke="#E0E4E9" stroke-linecap="round" stroke-linejoin="round"/>
<path d="M765.193 350.698L764.89 350.823L715.503 371.589L711.157 373.41L703.565 376.603C691.097 381.881 676.796 376.217 670.972 363.694C670.717 363.158 670.475 362.597 670.257 362.035L650.098 309.99C644.529 295.543 651.298 279.171 665.269 273.297L725.371 247.929L765.193 350.698Z" fill="white" stroke="#E0E4E9" stroke-linecap="round" stroke-linejoin="round"/>
<path d="M790.63 201.424C756.766 238.379 725.383 247.933 725.383 247.933L765.192 350.652C847.318 336.547 888.072 342.371 888.072 342.371L818.853 163.821C813.267 172.944 807.124 181.692 800.462 190.013" fill="white"/>
<path d="M790.63 201.424C756.766 238.379 725.383 247.933 725.383 247.933L765.192 350.652C847.318 336.547 888.072 342.371 888.072 342.371L818.853 163.821C813.267 172.944 807.124 181.692 800.462 190.013" stroke="#E0E4E9" stroke-linecap="round" stroke-linejoin="round"/>
<path d="M698.942 367.786C693.056 370.282 686.279 368.14 682.766 362.673L698.942 367.786Z" fill="white"/>
<path d="M698.942 367.786C693.056 370.282 686.279 368.14 682.766 362.673" stroke="#E0E4E9" stroke-linecap="round" stroke-linejoin="round"/>
<path d="M660.389 300.312C658.198 294.645 660.308 288.176 665.378 285.021Z" fill="white"/>
<path d="M660.389 300.312V300.312C658.198 294.645 660.308 288.176 665.378 285.021" stroke="#E0E4E9" stroke-linecap="round" stroke-linejoin="round"/>
<path d="M778.293 376.751L771.235 379.732C769.917 380.281 768.441 380.268 767.132 379.695C765.824 379.121 764.791 378.035 764.261 376.676L762.868 373.072C761.781 370.272 763.097 367.093 765.81 365.962L772.796 363.019C775.501 361.889 778.586 363.205 779.722 365.975L781.187 369.542C781.742 370.892 781.749 372.415 781.205 373.77C780.661 375.125 779.612 376.199 778.293 376.751Z" fill="white" stroke="#E0E4E9" stroke-linecap="round" stroke-linejoin="round"/>
<path d="M947.18 158.046L967.158 97.0573L944.904 109.218L949.481 78L926.573 128.761L950.086 119.919L947.18 158.046Z" fill="white" stroke="#E0E4E9" stroke-linecap="round" stroke-linejoin="round"/>
<path d="M975.148 255.128L1029.79 278.888L1020.18 256.326L1048.54 262.986L1003.5 237.094L1009.98 260.641L975.148 255.128Z" fill="white" stroke="#E0E4E9" stroke-linecap="round" stroke-linejoin="round"/>
<path d="M963.042 203.896L1018.97 183.592L997.124 173.564L1022.45 158.822L972.219 170.895L992.402 183.829L963.042 203.896Z" fill="white" stroke="#E0E4E9" stroke-linecap="round" stroke-linejoin="round"/>
<path d="M267.331 -5.93018L228.105 37.1246L171.684 23.0372L210.912 -20.0072L267.331 -5.93018Z" fill="white" stroke="#E0E4E9" stroke-linecap="round" stroke-linejoin="round"/>
<path d="M305.758 -48.0896L267.331 -5.92716L210.913 -20.0041L249.336 -62.177L305.758 -48.0896Z" fill="white" stroke="#E0E4E9" stroke-linecap="round" stroke-linejoin="round"/>
<path d="M360.114 -34.5258L321.677 7.63989L267.33 -5.92668L305.756 -48.0891L360.114 -34.5258Z" fill="white" stroke="#E0E4E9" stroke-linecap="round" stroke-linejoin="round"/>
<path d="M413.623 -21.1755L413.669 -21.0189L375.833 21.1512L321.678 7.63777L360.115 -34.5279L413.623 -21.1755Z" fill="white" stroke="#E0E4E9" stroke-linecap="round" stroke-linejoin="round"/>
<path d="M370.73 177.182L387.021 231.845L332.443 218.398L316.146 163.713L370.73 177.182Z" fill="white" stroke="#E0E4E9" stroke-linecap="round" stroke-linejoin="round"/>
<path d="M316.146 163.71L332.443 218.394L277.862 204.936L261.559 150.23L316.146 163.71Z" fill="white" stroke="#E0E4E9" stroke-linecap="round" stroke-linejoin="round"/>
<path d="M261.558 150.23L277.862 204.936L221.773 191.109L205.46 136.372L261.558 150.23Z" fill="white" stroke="#E0E4E9" stroke-linecap="round" stroke-linejoin="round"/>
<path d="M244.907 94.3583L261.559 150.233L205.461 136.375L188.999 81.1367L244.907 94.3583Z" fill="white" stroke="#E0E4E9" stroke-linecap="round" stroke-linejoin="round"/>
<path d="M353.705 120.061L370.727 177.179L316.143 163.71L299.301 107.198L353.705 120.061Z" fill="white" stroke="#E0E4E9" stroke-linecap="round" stroke-linejoin="round"/>
<path d="M228.103 37.1216L227.907 37.3206L244.904 94.3543L188.996 81.1328L171.682 23.0342L228.103 37.1216Z" fill="white" stroke="#E0E4E9" stroke-linecap="round" stroke-linejoin="round"/>
<path d="M454.333 -66.3459L471.648 -8.24733L430.904 36.0759L430.739 36.2653L413.667 -21.019L413.773 -21.1442L413.832 -21.2084L454.333 -66.3459Z" fill="white" stroke="#E0E4E9" stroke-linecap="round" stroke-linejoin="round"/>
<path d="M471.65 -8.24433L488.112 46.9937L447.564 91.9746L447.399 92.164L430.741 36.2683L430.906 36.0789L471.65 -8.24433Z" fill="white" stroke="#E0E4E9" stroke-linecap="round" stroke-linejoin="round"/>
<path d="M409.515 134.176L425.813 188.861L387.021 231.847L370.731 177.183L409.515 134.176Z" fill="white" stroke="#E0E4E9" stroke-linecap="round" stroke-linejoin="round"/>
<path d="M447.398 92.1628L463.702 146.868L426.085 188.546L425.812 188.861L409.515 134.176L409.787 133.862L447.398 92.1628Z" fill="white" stroke="#E0E4E9" stroke-linecap="round" stroke-linejoin="round"/>
<path d="M488.112 46.992L504.425 101.729L463.702 146.868L447.399 92.1623L447.564 91.9729L488.112 46.992Z" fill="white" stroke="#E0E4E9" stroke-linecap="round" stroke-linejoin="round"/>
<path d="M282.46 50.6813L299.305 107.203L244.907 94.3611L227.91 37.3274L228.106 37.1284L282.45 50.6846L282.46 50.6813Z" fill="white" stroke="#E0E4E9" stroke-linecap="round" stroke-linejoin="round"/>
<path d="M321.676 7.63458L282.455 50.6653L282.458 50.6757L282.448 50.6789L228.104 37.1228L267.329 -5.93198L321.676 7.63458Z" fill="white" stroke="#E0E4E9" stroke-linecap="round" stroke-linejoin="round"/>
<path d="M375.833 21.153L337.095 64.3165L282.46 50.6807L282.457 50.6703L321.679 7.63958L375.833 21.153Z" fill="white" stroke="#E0E4E9" stroke-linecap="round" stroke-linejoin="round"/>
<path d="M282.456 50.6739L282.45 50.6531L282.456 50.6739Z" fill="white"/>
<path d="M282.456 50.6739L282.45 50.6531" stroke="#E0E4E9" stroke-linecap="round" stroke-linejoin="round"/>
<path d="M375.829 21.1515L375.823 21.1306L375.829 21.1515Z" fill="white"/>
<path d="M375.829 21.1515L375.823 21.1306" stroke="#E0E4E9" stroke-linecap="round" stroke-linejoin="round"/>
<path d="M337.092 64.3165L353.707 120.066L299.303 107.203L282.458 50.6807L337.092 64.3165Z" fill="white" stroke="#E0E4E9" stroke-linecap="round" stroke-linejoin="round"/>
<path d="M413.668 -21.0189L430.74 36.2654L392.951 77.3692L392.673 77.6629L375.831 21.1512L413.668 -21.0189Z" fill="white" stroke="#E0E4E9" stroke-linecap="round" stroke-linejoin="round"/>
<path d="M299.305 107.203L316.147 163.714L261.559 150.235L244.907 94.3604L299.305 107.203Z" fill="white" stroke="#E0E4E9" stroke-linecap="round" stroke-linejoin="round"/>
<path d="M375.832 21.1506L392.674 77.6623L353.709 120.064L337.094 64.3141L375.832 21.1506Z" fill="white" stroke="#E0E4E9" stroke-linecap="round" stroke-linejoin="round"/>
<path d="M430.741 36.2643L447.399 92.16L409.788 133.859L409.516 134.174L392.674 77.6618L392.953 77.3682L430.741 36.2643Z" fill="white" stroke="#E0E4E9" stroke-linecap="round" stroke-linejoin="round"/>
<path d="M409.514 134.173L370.729 177.18L353.707 120.063L392.672 77.6613L409.514 134.173Z" fill="white" stroke="#E0E4E9" stroke-linecap="round" stroke-linejoin="round"/>
</g>
<defs>
<clipPath id="clip0">
<rect width="1600" height="376" fill="white"/>
</clipPath>
</defs>
</svg>
