<svg width="670" height="267" viewBox="0 0 670 267" fill="none" xmlns="http://www.w3.org/2000/svg">
<g clip-path="url(#clip0_0_25)">
<rect width="670" height="267" fill="url(#paint0_linear_0_25)"/>
<g opacity="0.2">
<path d="M183.003 239.469C165.666 249.481 165.666 265.855 183.003 275.855L405.136 404.11C422.473 414.122 450.833 414.122 468.17 404.11L798.998 213.107C816.334 203.095 816.334 186.721 798.998 176.721L576.864 48.478C559.527 38.4659 531.167 38.4659 513.831 48.478L183.003 239.481V239.469Z" fill="#CDFFFA" stroke="#001928" stroke-linecap="round" stroke-linejoin="round"/>
<path d="M651.282 209.776C655.432 212.166 662.209 212.166 666.347 209.776L723.09 177.017C727.24 174.627 727.24 170.714 723.09 168.312L715.433 163.889C711.283 161.499 704.505 161.499 700.367 163.889L643.624 196.648C639.474 199.038 639.474 202.951 643.624 205.353L651.282 209.776Z" fill="#CDFFFA" stroke="#001928" stroke-linecap="round" stroke-linejoin="round"/>
<path d="M675.683 149.632C679.833 147.242 679.833 143.33 675.683 140.928L668.025 136.504C663.875 134.114 657.097 134.114 652.959 136.504L600.984 166.517H593.017L593.113 173.663C593.136 175.221 594.171 176.779 596.216 177.968L603.874 182.391C608.024 184.782 614.802 184.782 618.94 182.391L675.683 149.632Z" fill="#CDFFFA" stroke="#001928" stroke-linecap="round" stroke-linejoin="round"/>
<path d="M658.166 138.895C657.215 139.703 657.334 140.881 658.404 141.511L667.762 146.921C668.796 147.516 670.426 147.408 671.365 146.659C672.304 145.91 672.209 144.852 671.199 144.269L661.389 138.609C660.437 138.062 658.987 138.193 658.166 138.906V138.895Z" fill="#083A5A"/>
<path d="M610.401 177.017V184.103" stroke="#001928" stroke-linecap="round" stroke-linejoin="round"/>
<path d="M613.124 184.103C615.253 183.901 617.31 183.343 618.939 182.391L647.703 165.792L613.124 166.921V184.103Z" fill="#001928" stroke="#001928" stroke-linecap="round" stroke-linejoin="round"/>
<path d="M603.861 174.721C608.011 177.112 614.444 178.205 618.927 176.529L647.691 165.792L624.955 152.664L596.191 163.401C591.411 165.185 592.458 168.146 596.191 170.298L603.849 174.721H603.861Z" fill="#CDFFFA" stroke="#001928" stroke-linecap="round" stroke-linejoin="round"/>
<path d="M402.974 144.296H414.96L570.932 232.431L663.253 187.912V291.481L525.509 371.007L402.974 300.269V144.296Z" fill="#083A5A"/>
<path d="M576.259 241.029V341.709" stroke="#99D3CE" stroke-linecap="round" stroke-linejoin="round"/>
<path d="M402.973 144.296H414.959L570.931 232.431V344.788L525.508 371.007L402.973 300.269V144.296Z" fill="#99D3CE"/>
<path d="M402.974 144.296H414.96L570.932 232.431L663.253 187.912V291.481L525.509 371.007L402.974 300.269V144.296Z" stroke="#001928" stroke-miterlimit="10"/>
<path d="M409.465 153.809C400.797 148.803 400.797 140.61 409.465 135.604L479.919 94.9252C488.587 89.9191 502.785 89.9191 511.453 94.9252L656.748 178.815C665.417 183.821 665.417 192.014 656.748 197.02L586.295 237.699C577.626 242.705 563.429 242.705 554.76 237.699L409.465 153.809Z" fill="#CDFFFA" stroke="#001928" stroke-linecap="round" stroke-linejoin="round"/>
<path d="M405.136 404.113L278.593 331.056V216.095H290.579L446.552 304.241L538.873 259.722V363.292L468.169 404.113C450.833 414.125 422.473 414.125 405.136 404.113Z" fill="#083A5A"/>
<path d="M405.136 404.113L278.594 331.056V216.095H290.579L446.552 304.241V410.95C432.105 412.829 416.325 410.57 405.136 404.113Z" fill="#99D3CE"/>
<path d="M405.136 404.113L278.593 331.056V216.095H290.579L446.552 304.241L538.873 259.722V363.292L468.169 404.113C450.833 414.125 422.473 414.125 405.136 404.113V404.113Z" stroke="#001928" stroke-miterlimit="10"/>
<path d="M532.369 268.83L461.916 309.509C453.247 314.515 439.049 314.515 430.381 309.509L285.087 225.618C276.418 220.612 276.418 212.42 285.087 207.414L355.54 166.735C364.208 161.729 378.406 161.729 387.075 166.735L532.369 250.625C541.037 255.631 541.037 263.824 532.369 268.83Z" fill="#CDFFFA" stroke="#001928" stroke-linecap="round" stroke-linejoin="round"/>
<path d="M482.691 93.5987C489.866 89.4566 501.497 89.4566 508.672 93.5987L658.798 180.274C665.972 184.416 665.972 191.132 658.798 195.274L607.654 224.802L431.547 123.127L482.691 93.5987Z" fill="#083A5A"/>
<path d="M799 181.623L576.867 53.3679C559.53 43.3558 531.17 43.3558 513.833 53.3679L183.005 244.371C175.407 248.758 171.15 254.359 170.211 260.115C168.998 252.73 173.267 245.097 183.005 239.472L513.833 48.4687C531.17 38.4566 559.53 38.4566 576.867 48.4687L799 176.712C808.739 182.336 813.008 189.97 811.795 197.354C810.855 191.599 806.586 185.987 799 181.611V181.623Z" fill="#083A5A" stroke="#083A5A" stroke-linecap="round" stroke-linejoin="round"/>
<path d="M548.959 41.0606C559.149 41.5362 569.114 43.9857 576.867 48.4686L799 176.712C808.739 182.336 813.007 189.97 811.795 197.354C810.855 191.599 806.586 185.987 799 181.611L576.867 53.3561C569.114 48.8851 559.149 46.4238 548.959 45.9481V41.049V41.0606Z" fill="#99D3CE" stroke="#083A5A" stroke-linecap="round" stroke-linejoin="round"/>
<path d="M468.664 101.428C472.821 118.976 477.818 133.576 485.423 137.963C496.085 144.118 501.591 112.001 506.977 79.3637C512.534 45.7274 517.97 11.4814 528.812 17.747C537.056 22.4037 542.053 38.3925 546.26 57.3792C553.525 90.356 558.122 132.566 572.152 140.661C592.198 152.232 594.946 101.778 614.492 113.06C623.586 118.316 626.933 129.169 631.66 147.736C638.035 172.778 641.523 190.885 645.22 203.696L606.587 225.991L429.822 123.852L468.664 101.428Z" fill="#99D3CE" stroke="#001928" stroke-miterlimit="10"/>
<path d="M528.812 17.6968V173.008C528.811 175.438 528.17 177.826 526.955 179.93C525.739 182.035 523.992 183.783 521.887 184.999L495.846 199.989" stroke="#001928" stroke-miterlimit="10"/>
<path d="M485.423 137.962V147.955C485.422 150.386 484.782 152.773 483.567 154.878C482.351 156.983 480.603 158.731 478.498 159.946L452.456 174.936" stroke="#001928" stroke-miterlimit="10"/>
<path d="M442.034 116.807V117.057C442.034 124.671 436.638 134.045 430.043 137.832L409.058 149.944" stroke="#001928" stroke-miterlimit="10"/>
<path d="M572.152 140.62V198.03C572.151 200.46 571.51 202.848 570.294 204.952C569.079 207.057 567.331 208.805 565.227 210.021L539.185 225.011" stroke="#001928" stroke-miterlimit="10"/>
<path d="M610.415 111.752V223.703" stroke="#001928" stroke-miterlimit="10"/>
<path d="M371.463 157.81L534.579 251.985C541.754 256.127 541.754 262.843 534.579 266.985L483.435 296.513L307.328 194.838L371.463 157.81Z" fill="#083A5A"/>
<rect width="16.3917" height="63.4413" rx="8.19583" transform="matrix(0.866025 0.5 -0.866025 0.5 415.313 203.701)" fill="#083A5A"/>
<path d="M364.101 207.125V234.189C364.101 237.602 368.893 240.372 374.815 240.372C380.736 240.372 385.528 237.602 385.528 234.189V207.125H364.101Z" fill="#F1843E"/>
<path d="M372.317 207.125H364.101V234.189C364.101 237.102 367.609 239.552 372.317 240.194V207.125Z" fill="#F1843E"/>
<path d="M364.101 207.125V234.189C364.101 237.602 368.893 240.372 374.815 240.372C380.736 240.372 385.528 237.602 385.528 234.189V207.125H364.101V207.125Z" stroke="#001928" stroke-linecap="round" stroke-linejoin="round"/>
<path d="M374.815 213.309C368.898 213.309 364.101 210.54 364.101 207.125C364.101 203.71 368.898 200.942 374.815 200.942C380.732 200.942 385.528 203.71 385.528 207.125C385.528 210.54 380.732 213.309 374.815 213.309Z" fill="#F1843E" stroke="#001928" stroke-linecap="round" stroke-linejoin="round"/>
<rect width="16.3917" height="63.4413" rx="8.19583" transform="matrix(0.866025 0.5 -0.866025 0.5 454.321 244.184)" fill="#083A5A"/>
<path d="M402.651 234.486V274.689C402.651 278.102 407.443 280.872 413.365 280.872C419.286 280.872 424.078 278.102 424.078 274.689V234.486H402.651Z" fill="#F1843E"/>
<path d="M410.867 234.486H402.651V274.689C402.651 277.602 406.159 280.052 410.867 280.694V234.474V234.486Z" fill="#F1843E"/>
<path d="M402.651 234.486V274.689C402.651 278.102 407.443 280.872 413.365 280.872C419.286 280.872 424.078 278.102 424.078 274.689V234.486H402.651V234.486Z" stroke="#001928" stroke-linecap="round" stroke-linejoin="round"/>
<path d="M413.365 240.669C407.448 240.669 402.651 237.901 402.651 234.486C402.651 231.071 407.448 228.303 413.365 228.303C419.281 228.303 424.078 231.071 424.078 234.486C424.078 237.901 419.281 240.669 413.365 240.669Z" fill="#F1843E" stroke="#001928" stroke-linecap="round" stroke-linejoin="round"/>
<path d="M285.086 176.328C276.418 171.322 276.418 163.129 285.086 158.123L355.54 117.444C364.208 112.438 378.406 112.438 387.074 117.444L532.369 201.334C541.037 206.34 541.037 214.533 532.369 219.539L461.915 260.218C453.247 265.224 439.049 265.224 430.381 260.218L285.086 176.328Z" fill="#CDFFFA" stroke="#083A5A" stroke-linecap="round" stroke-linejoin="round"/>
<path d="M306.275 139.109V166.173C306.275 169.586 311.067 172.357 316.989 172.357C322.911 172.357 327.702 169.586 327.702 166.173V139.109H306.275Z" fill="#F1843E"/>
<path d="M306.275 139.109V166.173C306.275 169.586 311.067 172.357 316.989 172.357C322.911 172.357 327.702 169.586 327.702 166.173V139.109H306.275V139.109Z" stroke="#001928" stroke-linecap="round" stroke-linejoin="round"/>
<path d="M316.989 145.293C311.072 145.293 306.275 142.524 306.275 139.109C306.275 135.694 311.072 132.926 316.989 132.926C322.906 132.926 327.703 135.694 327.703 139.109C327.703 142.524 322.906 145.293 316.989 145.293Z" fill="#F1843E" stroke="#001928" stroke-linecap="round" stroke-linejoin="round"/>
<path d="M325.552 97.6698V151.024C325.552 154.436 330.344 157.207 336.265 157.207C342.187 157.207 346.979 154.436 346.979 151.024V97.6698H325.552Z" fill="#99D3CE"/>
<path d="M325.552 97.6698V151.024C325.552 154.436 330.344 157.207 336.265 157.207C342.187 157.207 346.979 154.436 346.979 151.024V97.6698H325.552Z" fill="#99D3CE" stroke="#001928" stroke-linecap="round" stroke-linejoin="round"/>
<path d="M336.265 103.853C330.348 103.853 325.552 101.085 325.552 97.6699C325.552 94.255 330.348 91.4864 336.265 91.4864C342.182 91.4864 346.979 94.255 346.979 97.6699C346.979 101.085 342.182 103.853 336.265 103.853Z" fill="#99D3CE" stroke="#001928" stroke-linecap="round" stroke-linejoin="round"/>
<path d="M344.827 135.079V188.432C344.827 191.845 349.619 194.616 355.54 194.616C361.462 194.616 366.254 191.845 366.254 188.432V135.079H344.827Z" fill="#99D3CE"/>
<path d="M344.827 135.079V188.432C344.827 191.845 349.619 194.616 355.54 194.616C361.462 194.616 366.254 191.845 366.254 188.432V135.079H344.827Z" fill="#99D3CE" stroke="#001928" stroke-linecap="round" stroke-linejoin="round"/>
<path d="M355.54 141.262C349.623 141.262 344.826 138.494 344.826 135.079C344.826 131.664 349.623 128.895 355.54 128.895C361.457 128.895 366.254 131.664 366.254 135.079C366.254 138.494 361.457 141.262 355.54 141.262Z" fill="#99D3CE" stroke="#001928" stroke-linecap="round" stroke-linejoin="round"/>
<path d="M364.101 181.69V199.551C364.101 202.963 368.893 205.734 374.815 205.734C380.736 205.734 385.528 202.963 385.528 199.551V181.69H364.101Z" fill="#F1843E"/>
<path d="M364.101 181.69V199.551C364.101 202.963 368.893 205.734 374.815 205.734C380.736 205.734 385.528 202.963 385.528 199.551V181.69H364.101V181.69Z" stroke="#001928" stroke-linecap="round" stroke-linejoin="round"/>
<path d="M374.815 187.874C368.898 187.874 364.101 185.105 364.101 181.69C364.101 178.275 368.898 175.508 374.815 175.508C380.732 175.508 385.528 178.275 385.528 181.69C385.528 185.105 380.732 187.874 374.815 187.874Z" fill="#F1843E" stroke="#001928" stroke-linecap="round" stroke-linejoin="round"/>
<path d="M383.376 170.478V210.681C383.376 214.093 388.168 216.864 394.09 216.864C400.011 216.864 404.803 214.093 404.803 210.681V170.478H383.376Z" fill="#99D3CE"/>
<path d="M383.376 170.478V210.681C383.376 214.093 388.168 216.864 394.09 216.864C400.011 216.864 404.803 214.093 404.803 210.681V170.478H383.376Z" fill="#99D3CE" stroke="#001928" stroke-linecap="round" stroke-linejoin="round"/>
<path d="M394.09 176.661C388.173 176.661 383.376 173.893 383.376 170.478C383.376 167.063 388.173 164.294 394.09 164.294C400.007 164.294 404.803 167.063 404.803 170.478C404.803 173.893 400.007 176.661 394.09 176.661Z" fill="#99D3CE" stroke="#001928" stroke-linecap="round" stroke-linejoin="round"/>
<path d="M402.651 214.462V221.811C402.651 225.223 407.443 227.994 413.365 227.994C419.286 227.994 424.078 225.223 424.078 221.811V214.462H402.651Z" fill="#F1843E"/>
<path d="M402.651 214.462V221.811C402.651 225.223 407.443 227.994 413.365 227.994C419.286 227.994 424.078 225.223 424.078 221.811V214.462H402.651V214.462Z" stroke="#001928" stroke-linecap="round" stroke-linejoin="round"/>
<path d="M413.365 220.645C407.448 220.645 402.651 217.877 402.651 214.462C402.651 211.047 407.448 208.279 413.365 208.279C419.281 208.279 424.078 211.047 424.078 214.462C424.078 217.877 419.281 220.645 413.365 220.645Z" fill="#F1843E" stroke="#001928" stroke-linecap="round" stroke-linejoin="round"/>
</g>
</g>
<defs>
<linearGradient id="paint0_linear_0_25" x1="-2.01456e-05" y1="267" x2="564.261" y2="-143.061" gradientUnits="userSpaceOnUse">
<stop stop-color="#011222"/>
<stop offset="1" stop-color="#002F45"/>
</linearGradient>
<clipPath id="clip0_0_25">
<rect width="670" height="267" rx="16" fill="white"/>
</clipPath>
</defs>
</svg>
