<svg width="354" height="419" viewBox="0 0 354 419" fill="none" xmlns="http://www.w3.org/2000/svg">
<g clip-path="url(#clip0_1713_70775)">
<rect width="186.516" height="194.207" rx="30.8556" transform="matrix(-0.865865 0.500278 0.865865 0.500278 199.263 235.969)" fill="#001928"/>
<path d="M331.961 321.176H331.823L331.704 321.107L232.032 263.519C224.751 259.312 215.175 257.194 205.572 257.194C195.969 257.194 186.394 259.312 179.113 263.519L79.4403 321.107L79.321 321.176H79.1831H59.7674V332.481V332.496L59.7665 332.511C59.4363 338.082 62.9438 343.826 70.5545 348.224L179.113 410.946C186.394 415.153 195.969 417.271 205.572 417.271C215.175 417.271 224.751 415.153 232.032 410.946L340.59 348.224C348.128 343.868 351.641 338.19 351.386 332.67L351.386 332.659V332.647V321.176H331.961Z" fill="#99D3CE" stroke="#012135" stroke-width="1.02852"/>
<mask id="mask0_1713_70775" style="mask-type:alpha" maskUnits="userSpaceOnUse" x="59" y="255" width="293" height="162">
<path d="M178.855 262.074C193.611 253.548 217.534 253.548 232.289 262.074L331.961 319.662H351.9L351.9 331.647C352.167 337.427 348.483 343.257 340.847 347.669L232.289 410.391C217.534 418.917 193.611 418.917 178.855 410.391L70.2973 347.669C62.5887 343.215 58.9073 337.315 59.2531 331.481V319.662H79.1831L178.855 262.074Z" fill="#083A5A"/>
</mask>
<g mask="url(#mask0_1713_70775)">
<rect x="55.2876" y="252.266" width="148.636" height="174.461" fill="#083A5A"/>
<rect width="1" height="175" transform="matrix(-1 0 0 1 206.894 252)" fill="#083A5A"/>
</g>
<rect width="187.087" height="187.087" rx="30.8556" transform="matrix(-0.865865 0.500278 0.865865 0.500278 205.573 227.07)" fill="#CDFFFA" stroke="#012135" stroke-width="1.02852" stroke-linecap="round" stroke-linejoin="round"/>
<rect width="86.3127" height="30.736" rx="8" transform="matrix(-0.865865 0.500278 0.865865 0.500278 308.444 314.109)" fill="#CDFFFA" stroke="#012135" stroke-width="1.02852" stroke-linecap="round" stroke-linejoin="round"/>
<rect width="171.248" height="129.635" rx="21" transform="matrix(-0.865865 0.500278 0.865865 0.500278 205.573 234.992)" fill="#99D3CE" stroke="#012135" stroke-width="1.02852" stroke-linecap="round" stroke-linejoin="round"/>
<path fill-rule="evenodd" clip-rule="evenodd" d="M187.389 245.498C197.432 239.696 213.713 239.696 223.756 245.498L299.464 289.241C303.411 291.521 305.807 294.359 306.651 297.315L223.756 249.42C213.713 243.618 197.432 243.618 187.389 249.42L75.4776 314.08C71.3217 316.481 68.8857 319.5 68.1695 322.625C67.1553 318.199 69.5913 313.559 75.4776 310.158L187.389 245.498Z" fill="#083A5A"/>
<path d="M223.756 245.498L224.013 245.053L223.756 245.498ZM187.389 245.498L187.647 245.943L187.389 245.498ZM299.464 289.241L299.207 289.686H299.207L299.464 289.241ZM306.651 297.315L307.145 297.174C307.203 297.375 307.132 297.592 306.967 297.721C306.802 297.849 306.575 297.865 306.394 297.76L306.651 297.315ZM223.756 249.42L223.498 249.865L223.756 249.42ZM187.389 249.42L187.647 249.865L187.389 249.42ZM75.4776 314.08L75.2203 313.635L75.4776 314.08ZM68.1695 322.625L68.6708 322.74C68.6172 322.974 68.4093 323.139 68.1695 323.139C67.9298 323.139 67.7218 322.974 67.6683 322.74L68.1695 322.625ZM75.4776 310.158L75.2203 309.713L75.4776 310.158ZM223.498 245.943C218.574 243.098 212.087 241.661 205.572 241.661C199.058 241.661 192.571 243.098 187.647 245.943L187.132 245.053C192.25 242.096 198.925 240.632 205.572 240.632C212.22 240.632 218.895 242.096 224.013 245.053L223.498 245.943ZM299.207 289.686L223.498 245.943L224.013 245.053L299.721 288.795L299.207 289.686ZM306.156 297.456C305.36 294.666 303.078 291.923 299.207 289.686L299.721 288.795C303.744 291.12 306.253 294.051 307.145 297.174L306.156 297.456ZM306.394 297.76L223.498 249.865L224.013 248.975L306.908 296.87L306.394 297.76ZM223.498 249.865C218.574 247.02 212.087 245.583 205.572 245.583C199.058 245.583 192.571 247.02 187.647 249.865L187.132 248.975C192.25 246.018 198.925 244.554 205.572 244.554C212.22 244.554 218.895 246.018 224.013 248.975L223.498 249.865ZM187.647 249.865L75.7349 314.525L75.2203 313.635L187.132 248.975L187.647 249.865ZM75.7349 314.525C71.6581 316.881 69.3451 319.797 68.6708 322.74L67.6683 322.51C68.4262 319.203 70.9853 316.082 75.2203 313.635L75.7349 314.525ZM75.7349 310.603C69.9595 313.94 67.7258 318.386 68.6708 322.51L67.6683 322.74C66.5847 318.011 69.2231 313.178 75.2203 309.713L75.7349 310.603ZM187.647 245.943L75.7349 310.603L75.2203 309.713L187.132 245.053L187.647 245.943Z" fill="#012135"/>
<rect x="2.98023e-08" y="0.5" width="25.0702" height="12.2262" rx="6.1131" transform="matrix(-0.866025 0.5 0.866025 0.5 213.203 369.695)" fill="#F1843E" stroke="#012135"/>
<circle r="4.642" transform="matrix(-0.866025 0.5 0.866025 0.5 202.776 382.326)" fill="#CDFFFA" stroke="#012135"/>
<rect x="-2.98023e-08" y="-0.5" width="25.0702" height="12.2262" rx="6.1131" transform="matrix(0.866025 -0.5 -0.866025 -0.5 216.593 396.547)" fill="#083A5A" stroke="#001928"/>
<circle r="4.642" transform="matrix(0.866025 -0.5 -0.866025 -0.5 227.882 384.417)" fill="#CDFFFA" stroke="#001928"/>
<line y1="-0.5" x2="20.1857" y2="-0.5" transform="matrix(-0.866025 -0.5 -0.866025 0.5 293.733 347.906)" stroke="#012135"/>
<rect width="156.326" height="34.5647" rx="9" transform="matrix(-0.865865 0.500278 0.865865 0.500278 207.192 247.891)" fill="#083A5A" stroke="#012135" stroke-width="1.02852" stroke-linecap="round" stroke-linejoin="round"/>
<rect width="156.326" height="34.5647" rx="9" transform="matrix(-0.865865 0.500278 0.865865 0.500278 207.192 244.176)" fill="#CDFFFA" stroke="#012135" stroke-width="1.02852" stroke-linecap="round" stroke-linejoin="round"/>
<rect width="156.326" height="34.5647" rx="9" transform="matrix(-0.865865 0.500278 0.865865 0.500278 239.118 266.359)" fill="#083A5A" stroke="#012135" stroke-width="1.02852" stroke-linecap="round" stroke-linejoin="round"/>
<rect width="156.326" height="34.5647" rx="9" transform="matrix(-0.865865 0.500278 0.865865 0.500278 239.118 262.648)" fill="#CDFFFA" stroke="#012135" stroke-width="1.02852" stroke-linecap="round" stroke-linejoin="round"/>
<rect width="156.326" height="34.5647" rx="9" transform="matrix(-0.865865 0.500278 0.865865 0.500278 272.974 284.531)" fill="#083A5A" stroke="#001928" stroke-width="1.02852" stroke-linecap="round" stroke-linejoin="round"/>
<rect width="156.326" height="34.5647" rx="9" transform="matrix(-0.865865 0.500278 0.865865 0.500278 272.974 280.816)" fill="#CDFFFA" stroke="#001928" stroke-width="1.02852" stroke-linecap="round" stroke-linejoin="round"/>
<g clip-path="url(#clip1_1713_70775)">
<path d="M308.382 333.776C308.382 333.776 309.529 332.813 308.659 332.401C307.821 331.979 306.84 332.457 306.471 332.672C306.098 332.885 305.269 333.451 306.001 333.936C306.715 334.438 308.382 333.776 308.382 333.776M312.824 332.347C313.682 331.581 314.68 329.999 311.972 329.227C310.495 327.813 308.939 327.476 307.63 327.207C307.872 326.285 307.192 324.529 304.36 324.548C302.746 324.559 301.309 326.23 301.704 327.058C300.642 327.183 299.595 327.51 298.899 328.3C297.53 328.702 296.963 329.307 296.746 329.92C295.312 329.692 292.418 330.522 292.4 331.453C292.366 333.089 295.409 333.481 297.006 333.341C297.471 334.097 298.054 334.995 300.504 335.848C301.841 337.412 304.581 336.836 305.908 336.341M312.824 332.347C310.075 330.705 307.882 330.042 304.898 331.765C301.915 333.487 303.064 334.753 305.908 336.341M312.824 332.347C313.26 332.863 312.951 334.15 310.991 335.282C309.032 336.413 306.802 336.592 305.908 336.341M303.457 326.66C303.517 326.348 303.983 325.669 304.623 325.685C305.459 325.705 305.642 326.401 305.748 326.746M296.057 330.932C295.516 330.967 294.341 331.236 294.368 331.605C294.404 332.088 295.609 332.194 296.206 332.255M310.498 333.919L308.632 334.996M305.144 330.401L307.01 330.11C307.01 330.11 307.814 329.431 307.335 329.123C306.855 328.876 306.106 328.892 305.614 329.137C305.013 329.436 304.84 329.999 305.144 330.401ZM302.538 331.906L302.032 332.984C302.032 332.984 300.856 333.448 300.323 333.171C299.895 332.894 299.923 332.462 300.347 332.178C300.866 331.83 301.841 331.73 302.538 331.906Z" stroke="#012135" stroke-miterlimit="10" stroke-linecap="round" stroke-linejoin="round"/>
</g>
<g clip-path="url(#clip2_1713_70775)">
<path d="M264.645 351.093C264.075 351.103 262.786 351.414 262.501 352.625C260.404 352.79 259.864 353.534 259.848 353.863M269.036 353.202C269.194 353.423 269.472 353.996 269.324 354.522M271.437 356.167C271.061 355.898 270.143 355.652 269.685 356.773M269.685 356.773L271.041 357.556M269.685 356.773C267.744 357.037 268.17 357.568 268.635 357.784M271.012 352.08C272.594 353.296 271.76 354.226 272.189 355.05C272.619 355.875 273.677 356.245 273.866 356.464C274.056 356.682 273.83 356.77 273.743 356.985C273.657 357.2 273.918 357.337 273.775 357.59C273.633 357.843 273.219 357.872 272.877 358.021C272.604 358.14 272.42 358.269 272.362 358.318C272.276 358.352 272.053 358.458 271.847 358.616C271.588 358.813 271.539 359.052 271.1 359.135C270.662 359.217 270.425 359.066 270.052 359.116C269.68 359.166 269.528 359.296 269.149 359.187C268.771 359.078 268.13 358.467 266.702 358.219C265.274 357.971 263.663 358.453 261.557 357.539M263.5 356.398C263.883 356.489 264.876 356.65 265.785 356.564M263.137 348.004C264.356 348.092 266.878 348.401 267.216 348.933C267.638 349.598 266.675 350.243 266.343 350.697C266.01 351.151 266.095 351.657 267.207 351.95C268.438 352.273 269.602 351.88 270.209 350.919C270.816 349.959 271.201 349.027 270.179 348.383C269.158 347.739 266.166 347.417 263.137 348.004ZM254.497 352.993C254.65 353.696 255.184 355.152 256.106 355.347C257.257 355.591 258.374 355.035 259.161 354.843C259.948 354.651 260.825 354.701 261.331 355.342C261.892 356.053 261.209 356.725 259.546 357.076C257.882 357.426 256.268 357.648 255.153 357.058C254.037 356.469 253.48 354.741 254.497 352.993Z" stroke="#012135" stroke-linecap="round" stroke-linejoin="round"/>
</g>
<circle r="8.43053" transform="matrix(-0.866025 0.5 0.866025 0.5 103.362 319.931)" fill="#F1843E" stroke="#012135"/>
<circle r="8.43053" transform="matrix(-0.866025 0.5 0.866025 0.5 134.295 339.282)" fill="#CDFFFA" stroke="#012135"/>
<circle r="8.43053" transform="matrix(-0.866025 0.5 0.866025 0.5 168.983 358.239)" fill="#CDFFFA" stroke="#001928"/>
<path d="M205.604 2.00391L205.604 8.0375" stroke="#012135" stroke-width="2" stroke-linecap="round"/>
<path d="M196.284 9.83984L199.392 11.5727" stroke="#012135" stroke-width="2" stroke-linecap="round"/>
<path d="M215.913 9.83984L212.805 11.5727" stroke="#012135" stroke-width="2" stroke-linecap="round"/>
<path d="M135.308 375.551C134.351 374.999 132.801 374.999 131.844 375.551L127.321 378.165C125.408 379.27 125.408 381.062 127.321 382.167L146.368 393.172C148.281 394.277 151.382 394.277 153.295 393.172L157.818 390.558C158.775 390.006 158.775 389.11 157.818 388.557L135.308 375.551Z" fill="#CDFFFA" stroke="#012135" stroke-width="1.02852" stroke-linecap="round" stroke-linejoin="round"/>
<path fill-rule="evenodd" clip-rule="evenodd" d="M131.49 244.765C131.469 244.06 131.452 243.443 131.452 242.945H127.452C127.452 243.617 127.473 244.359 127.496 245.153C127.557 247.304 127.63 249.839 127.321 252.4C126.896 255.923 125.816 258.683 123.661 260.047C121.888 261.17 118.113 262.852 112.741 265.01C107.432 267.143 100.744 269.672 93.2742 272.489C92.8828 272.637 92.4894 272.785 92.0938 272.934C77.4146 278.47 59.9435 285.058 44.3321 291.827C28.3901 298.74 14.0756 305.968 6.73264 312.593C4.87747 314.266 3.37109 315.984 2.40411 317.737C1.42845 319.507 0.94548 321.423 1.35428 323.374C1.76291 325.323 2.99352 326.977 4.78947 328.357C6.57176 329.727 9.00824 330.909 12.0768 331.937C13.0338 332.258 13.9739 332.573 14.8974 332.882C36.9171 340.258 49.5557 344.491 57.4147 349.254C61.4244 351.685 64.0889 354.201 66.0822 357.285C68.0978 360.405 69.5022 364.219 70.8232 369.377C73.6518 380.422 82.5518 391.992 95.0399 397.296C107.693 402.67 123.747 401.501 140.479 387.536C140.76 385.845 139.817 384.625 137.915 384.465C122.195 397.586 107.714 398.333 96.6036 393.614C85.3279 388.825 77.2355 378.292 74.6981 368.384C73.3361 363.066 71.802 358.767 69.4417 355.114C67.0591 351.427 63.9105 348.514 59.4879 345.834C51.235 340.832 38.1977 336.466 16.7184 329.273C15.6173 328.905 14.4939 328.528 13.3479 328.144C10.5075 327.192 8.52652 326.185 7.22717 325.186C5.94151 324.198 5.42628 323.303 5.26921 322.553C5.11229 321.804 5.2437 320.871 5.9068 319.669C6.57858 318.451 7.73535 317.075 9.41197 315.563C16.1962 309.442 29.9074 302.442 45.9234 295.497C61.4441 288.767 78.8369 282.208 93.5399 276.664C93.9237 276.519 94.3057 276.375 94.6857 276.232C102.144 273.419 108.876 270.874 114.232 268.722C119.526 266.595 123.662 264.781 125.8 263.427C129.552 261.051 130.833 256.683 131.292 252.879C131.641 249.989 131.553 246.956 131.49 244.765Z" fill="#CDFFFA" stroke="#012135"/>
<mask id="path-32-inside-1_1713_70775" fill="white">
<path fill-rule="evenodd" clip-rule="evenodd" d="M123.623 226.758H136.05V245.986H136C135.912 246.83 135.309 247.659 134.192 248.304C131.766 249.704 127.833 249.704 125.407 248.304C124.025 247.506 123.43 246.425 123.623 245.384V226.758Z"/>
</mask>
<path fill-rule="evenodd" clip-rule="evenodd" d="M123.623 226.758H136.05V245.986H136C135.912 246.83 135.309 247.659 134.192 248.304C131.766 249.704 127.833 249.704 125.407 248.304C124.025 247.506 123.43 246.425 123.623 245.384V226.758Z" fill="#99D3CE"/>
<path d="M136.05 226.758V225.758H137.05V226.758H136.05ZM123.623 226.758H122.623V225.758H123.623V226.758ZM136.05 245.986H137.05V246.986H136.05V245.986ZM136 245.986L135.006 245.881L135.1 244.986H136V245.986ZM134.192 248.304L134.692 249.17H134.692L134.192 248.304ZM125.407 248.304L124.907 249.17L125.407 248.304ZM123.623 245.384H124.623V245.476L124.606 245.566L123.623 245.384ZM136.05 227.758H123.623V225.758H136.05V227.758ZM135.05 245.986V226.758H137.05V245.986H135.05ZM136 244.986H136.05V246.986H136V244.986ZM133.692 247.437C134.64 246.89 134.962 246.3 135.006 245.881L136.995 246.09C136.862 247.359 135.978 248.427 134.692 249.17L133.692 247.437ZM125.907 247.437C126.932 248.029 128.339 248.354 129.8 248.354C131.261 248.354 132.667 248.029 133.692 247.437L134.692 249.17C133.292 249.978 131.519 250.354 129.8 250.354C128.081 250.354 126.308 249.978 124.907 249.17L125.907 247.437ZM124.606 245.566C124.52 246.036 124.734 246.76 125.907 247.437L124.907 249.17C123.317 248.251 122.341 246.815 122.64 245.202L124.606 245.566ZM124.623 226.758V245.384H122.623V226.758H124.623Z" fill="#012135" mask="url(#path-32-inside-1_1713_70775)"/>
<circle r="4.5721" transform="matrix(-0.866029 0.499994 0.866029 0.499994 129.8 227.013)" fill="#CDFFFA" stroke="#012135"/>
<path fill-rule="evenodd" clip-rule="evenodd" d="M226.476 163.625C226.21 163.89 225.984 164.114 225.816 164.28V166.533C225.816 168.19 224.652 170.205 223.217 171.033L21.8495 287.293L26.5499 290.005C25.0313 291.112 22.1549 293.346 22.1549 293.346C22.1549 293.346 18.0211 291.236 15.9129 289.97C15.3736 289.732 15.0335 289.124 15.0335 288.228V278.73C15.0335 277.073 16.1967 275.059 17.6316 274.23L223.217 155.535C223.898 155.143 224.517 155.087 224.98 155.313L224.981 155.313L225.006 155.326C225.027 155.338 225.049 155.35 225.07 155.362L231.483 158.935C230.411 159.716 227.883 162.227 226.476 163.625L226.476 163.625L226.476 163.625Z" fill="#CDFFFA"/>
<path d="M225.816 164.28H225.316C225.316 164.145 225.369 164.017 225.465 163.923L225.816 164.28ZM226.476 163.625L226.83 163.979L226.829 163.98L226.476 163.625ZM223.217 171.033L223.467 171.466L223.217 171.033ZM21.8495 287.293L21.5996 287.726C21.4449 287.637 21.3496 287.472 21.3495 287.293C21.3495 287.114 21.4448 286.949 21.5995 286.86L21.8495 287.293ZM26.5499 290.005L26.7998 289.572C26.9464 289.657 27.0402 289.81 27.0492 289.979C27.0582 290.148 26.9812 290.31 26.8444 290.409L26.5499 290.005ZM22.1549 293.346L22.4616 293.741C22.3085 293.86 22.1003 293.88 21.9276 293.792L22.1549 293.346ZM15.9129 289.97L16.115 289.513C16.134 289.521 16.1525 289.531 16.1703 289.542L15.9129 289.97ZM17.6316 274.23L17.8816 274.663L17.6316 274.23ZM223.217 155.535L222.967 155.102L223.217 155.535ZM224.98 155.313L225.339 155.661C225.188 155.817 224.955 155.858 224.76 155.763L224.98 155.313ZM224.981 155.313L224.622 154.965C224.779 154.802 225.026 154.766 225.224 154.876L224.981 155.313ZM225.006 155.326L224.775 155.77C224.771 155.768 224.767 155.766 224.762 155.763L225.006 155.326ZM225.07 155.362L224.827 155.799C224.823 155.797 224.818 155.794 224.814 155.792L225.07 155.362ZM231.483 158.935L231.727 158.498C231.876 158.581 231.972 158.734 231.982 158.905C231.993 159.075 231.916 159.239 231.778 159.339L231.483 158.935ZM226.476 163.625L226.829 163.98C226.825 163.983 226.821 163.987 226.818 163.99L226.476 163.625ZM226.476 163.625L226.123 163.271C226.127 163.267 226.131 163.263 226.135 163.259L226.476 163.625ZM225.465 163.923C225.632 163.759 225.857 163.535 226.124 163.27L226.829 163.98C226.563 164.244 226.336 164.47 226.166 164.636L225.465 163.923ZM225.316 166.533V164.28H226.316V166.533H225.316ZM222.967 170.6C223.591 170.24 224.184 169.602 224.622 168.844C225.059 168.085 225.316 167.253 225.316 166.533H226.316C226.316 167.47 225.99 168.474 225.488 169.344C224.985 170.214 224.279 170.998 223.467 171.466L222.967 170.6ZM21.5995 286.86L222.967 170.6L223.467 171.466L22.0995 287.726L21.5995 286.86ZM26.3 290.438L21.5996 287.726L22.0995 286.86L26.7998 289.572L26.3 290.438ZM22.1549 293.346C21.8482 292.951 21.8482 292.951 21.8482 292.951C21.8483 292.951 21.8483 292.951 21.8483 292.951C21.8484 292.951 21.8486 292.951 21.8487 292.951C21.8491 292.951 21.8496 292.95 21.8503 292.95C21.8517 292.949 21.8538 292.947 21.8566 292.945C21.8621 292.941 21.8703 292.934 21.8811 292.926C21.9026 292.909 21.9343 292.885 21.9752 292.853C22.057 292.79 22.1754 292.698 22.3223 292.584C22.6161 292.357 23.0236 292.043 23.4787 291.694C24.3876 290.997 25.4907 290.159 26.2554 289.601L26.8444 290.409C26.0905 290.959 24.9961 291.791 24.0872 292.488C23.6333 292.836 23.2269 293.149 22.9338 293.376C22.7873 293.489 22.6692 293.58 22.5878 293.643C22.547 293.675 22.5155 293.699 22.4941 293.716C22.4834 293.724 22.4753 293.731 22.4698 293.735C22.4671 293.737 22.465 293.739 22.4637 293.74C22.463 293.74 22.4625 293.741 22.4621 293.741C22.4619 293.741 22.4618 293.741 22.4617 293.741C22.4617 293.741 22.4617 293.741 22.4617 293.741C22.4616 293.741 22.4616 293.741 22.1549 293.346ZM16.1703 289.542C17.2116 290.167 18.7613 291.005 20.0582 291.691C20.705 292.033 21.2863 292.336 21.7058 292.553C21.9156 292.661 22.0848 292.748 22.2016 292.808C22.26 292.838 22.3052 292.862 22.3358 292.877C22.3511 292.885 22.3627 292.891 22.3705 292.895C22.3745 292.897 22.3774 292.898 22.3793 292.899C22.3803 292.9 22.381 292.9 22.3815 292.901C22.3818 292.901 22.3819 292.901 22.382 292.901C22.3821 292.901 22.3822 292.901 22.3822 292.901C22.3822 292.901 22.3822 292.901 22.1549 293.346C21.9276 293.792 21.9276 293.792 21.9275 293.792C21.9275 293.792 21.9274 293.792 21.9274 293.792C21.9272 293.791 21.927 293.791 21.9268 293.791C21.9263 293.791 21.9255 293.791 21.9245 293.79C21.9224 293.789 21.9194 293.787 21.9154 293.785C21.9074 293.781 21.8956 293.775 21.8801 293.767C21.8492 293.752 21.8035 293.728 21.7447 293.698C21.6272 293.638 21.457 293.55 21.2463 293.441C20.8248 293.223 20.2409 292.919 19.5908 292.575C18.2937 291.889 16.7224 291.04 15.6555 290.399L16.1703 289.542ZM15.5335 288.228C15.5335 289.01 15.823 289.384 16.115 289.513L15.7108 290.428C14.9242 290.08 14.5335 289.238 14.5335 288.228H15.5335ZM15.5335 278.73V288.228H14.5335V278.73H15.5335ZM17.8816 274.663C17.258 275.023 16.6654 275.661 16.2275 276.42C15.7896 277.178 15.5335 278.01 15.5335 278.73H14.5335C14.5335 277.793 14.859 276.79 15.3615 275.92C15.8639 275.049 16.5703 274.266 17.3816 273.797L17.8816 274.663ZM223.467 155.968L17.8816 274.663L17.3816 273.797L222.967 155.102L223.467 155.968ZM224.76 155.763C224.498 155.634 224.061 155.626 223.467 155.968L222.967 155.102C223.734 154.66 224.536 154.54 225.2 154.864L224.76 155.763ZM225.34 155.661L225.339 155.661L224.621 154.966L224.622 154.965L225.34 155.661ZM224.762 155.763L224.737 155.749L225.224 154.876L225.249 154.89L224.762 155.763ZM224.814 155.792C224.801 155.784 224.788 155.777 224.775 155.77L225.236 154.882C225.266 154.898 225.297 154.915 225.327 154.933L224.814 155.792ZM231.24 159.372L224.827 155.799L225.314 154.926L231.727 158.498L231.24 159.372ZM226.124 163.27C226.827 162.572 227.814 161.591 228.76 160.688C229.697 159.792 230.621 158.945 231.189 158.531L231.778 159.339C231.273 159.707 230.398 160.506 229.451 161.41C228.513 162.307 227.533 163.28 226.829 163.98L226.124 163.27ZM226.135 163.259L226.135 163.259L226.818 163.99L226.818 163.991L226.135 163.259ZM226.123 163.272L226.123 163.271L226.83 163.979L226.83 163.979L226.123 163.272Z" fill="#012135"/>
<mask id="mask1_1713_70775" style="mask-type:alpha" maskUnits="userSpaceOnUse" x="14" y="155" width="218" height="139">
<mask id="path-37-inside-2_1713_70775" fill="white">
<path fill-rule="evenodd" clip-rule="evenodd" d="M226.335 163.445C226.069 163.71 225.843 163.934 225.674 164.1V166.353C225.674 168.01 224.511 170.025 223.076 170.853L21.7082 287.113L26.4086 289.826C24.8899 290.932 22.0135 293.167 22.0135 293.167C22.0135 293.167 17.8797 291.057 15.7716 289.791C15.2323 289.552 14.8922 288.944 14.8922 288.048V278.551C14.8922 276.894 16.0553 274.879 17.4902 274.051L223.076 155.356C223.756 154.963 224.375 154.907 224.839 155.134L224.839 155.133L224.864 155.147C224.886 155.158 224.908 155.17 224.929 155.183L231.342 158.755C230.27 159.537 227.742 162.048 226.335 163.445L226.335 163.445L226.335 163.445Z"/>
</mask>
<path fill-rule="evenodd" clip-rule="evenodd" d="M226.335 163.445C226.069 163.71 225.843 163.934 225.674 164.1V166.353C225.674 168.01 224.511 170.025 223.076 170.853L21.7082 287.113L26.4086 289.826C24.8899 290.932 22.0135 293.167 22.0135 293.167C22.0135 293.167 17.8797 291.057 15.7716 289.791C15.2323 289.552 14.8922 288.944 14.8922 288.048V278.551C14.8922 276.894 16.0553 274.879 17.4902 274.051L223.076 155.356C223.756 154.963 224.375 154.907 224.839 155.134L224.839 155.133L224.864 155.147C224.886 155.158 224.908 155.17 224.929 155.183L231.342 158.755C230.27 159.537 227.742 162.048 226.335 163.445L226.335 163.445L226.335 163.445Z" fill="#99D3CE"/>
<path d="M225.674 164.1H224.674C224.674 163.831 224.782 163.574 224.974 163.386L225.674 164.1ZM226.335 163.445L227.042 164.153L227.04 164.155L226.335 163.445ZM223.076 170.853L223.576 171.719L223.076 170.853ZM21.7082 287.113L21.2084 287.979C20.8989 287.801 20.7082 287.471 20.7082 287.113C20.7081 286.756 20.8988 286.426 21.2082 286.247L21.7082 287.113ZM26.4086 289.826L26.9084 288.959C27.2015 289.129 27.3891 289.434 27.4072 289.772C27.4252 290.11 27.271 290.434 26.9976 290.634L26.4086 289.826ZM22.0135 293.167L22.627 293.956C22.3207 294.194 21.9044 294.234 21.5589 294.057L22.0135 293.167ZM15.7716 289.791L16.1758 288.876C16.2138 288.893 16.2508 288.912 16.2864 288.933L15.7716 289.791ZM17.4902 274.051L17.9902 274.917L17.4902 274.051ZM223.076 155.356L222.576 154.49L223.076 155.356ZM224.839 155.134L225.557 155.83C225.255 156.141 224.788 156.222 224.399 156.032L224.839 155.134ZM224.839 155.133L224.121 154.437C224.436 154.112 224.931 154.039 225.326 154.259L224.839 155.133ZM224.864 155.147L224.404 156.035C224.395 156.03 224.386 156.025 224.377 156.02L224.864 155.147ZM224.929 155.183L224.442 156.056C224.433 156.051 224.425 156.046 224.416 156.041L224.929 155.183ZM231.342 158.755L231.829 157.882C232.127 158.048 232.319 158.354 232.34 158.695C232.361 159.035 232.207 159.363 231.931 159.564L231.342 158.755ZM226.335 163.445L227.04 164.155C227.033 164.162 227.025 164.169 227.017 164.176L226.335 163.445ZM226.335 163.445L225.628 162.738C225.636 162.73 225.644 162.722 225.653 162.714L226.335 163.445ZM224.974 163.386C225.139 163.223 225.363 163.001 225.63 162.736L227.04 164.155C226.774 164.419 226.546 164.645 226.375 164.813L224.974 163.386ZM224.674 166.353V164.1H226.674V166.353H224.674ZM222.576 169.987C223.106 169.682 223.642 169.117 224.047 168.414C224.453 167.711 224.674 166.965 224.674 166.353H226.674C226.674 167.399 226.314 168.488 225.779 169.414C225.245 170.34 224.481 171.197 223.576 171.719L222.576 169.987ZM21.2082 286.247L222.576 169.987L223.576 171.719L22.2082 287.979L21.2082 286.247ZM25.9088 290.692L21.2084 287.979L22.208 286.247L26.9084 288.959L25.9088 290.692ZM22.0135 293.167C21.4001 292.377 21.4001 292.377 21.4002 292.377C21.4002 292.377 21.4002 292.377 21.4003 292.377C21.4004 292.377 21.4005 292.377 21.4007 292.376C21.4011 292.376 21.4016 292.376 21.4023 292.375C21.4037 292.374 21.4058 292.372 21.4086 292.37C21.4142 292.366 21.4224 292.36 21.4332 292.351C21.4548 292.334 21.4866 292.31 21.5275 292.278C21.6095 292.215 21.7281 292.123 21.8752 292.009C22.1693 291.782 22.5774 291.467 23.0331 291.118C23.942 290.421 25.0494 289.579 25.8196 289.017L26.9976 290.634C26.2491 291.179 25.159 292.008 24.25 292.705C23.7968 293.052 23.3909 293.365 23.0982 293.591C22.9519 293.705 22.834 293.796 22.7527 293.859C22.712 293.89 22.6805 293.915 22.6592 293.931C22.6486 293.94 22.6405 293.946 22.6351 293.95C22.6324 293.952 22.6303 293.954 22.629 293.955C22.6283 293.955 22.6278 293.956 22.6275 293.956C22.6273 293.956 22.6272 293.956 22.6271 293.956C22.627 293.956 22.627 293.956 22.627 293.956C22.627 293.956 22.627 293.956 22.0135 293.167ZM16.2864 288.933C17.3148 289.551 18.8537 290.384 20.1505 291.069C20.7958 291.411 21.3757 291.712 21.7943 291.929C22.0035 292.037 22.1723 292.124 22.2887 292.184C22.3468 292.214 22.3919 292.237 22.4223 292.252C22.4375 292.26 22.4491 292.266 22.4568 292.27C22.4606 292.272 22.4635 292.274 22.4654 292.275C22.4664 292.275 22.4671 292.275 22.4675 292.276C22.4678 292.276 22.4679 292.276 22.468 292.276C22.4681 292.276 22.4681 292.276 22.4681 292.276C22.4682 292.276 22.4682 292.276 22.0135 293.167C21.5589 294.057 21.5589 294.057 21.5589 294.057C21.5588 294.057 21.5588 294.057 21.5587 294.057C21.5585 294.057 21.5583 294.057 21.5581 294.057C21.5575 294.057 21.5567 294.056 21.5557 294.056C21.5536 294.055 21.5505 294.053 21.5465 294.051C21.5384 294.047 21.5265 294.041 21.5109 294.033C21.4798 294.017 21.4339 293.993 21.375 293.963C21.257 293.902 21.0864 293.815 20.8751 293.705C20.4527 293.487 19.8674 293.182 19.2157 292.837C17.9185 292.152 16.3365 291.296 15.2567 290.648L16.2864 288.933ZM15.8922 288.048C15.8922 288.717 16.1311 288.856 16.1758 288.876L15.3673 290.705C14.3334 290.248 13.8922 289.172 13.8922 288.048H15.8922ZM15.8922 278.551V288.048H13.8922V278.551H15.8922ZM17.9902 274.917C17.4606 275.222 16.9248 275.787 16.5191 276.49C16.1135 277.193 15.8922 277.939 15.8922 278.551H13.8922C13.8922 277.505 14.2524 276.416 14.7871 275.49C15.3217 274.564 16.085 273.707 16.9902 273.185L17.9902 274.917ZM223.576 156.222L17.9902 274.917L16.9902 273.185L222.576 154.49L223.576 156.222ZM224.399 156.032C224.337 156.002 224.083 155.929 223.576 156.222L222.576 154.49C223.43 153.997 224.414 153.813 225.278 154.236L224.399 156.032ZM225.557 155.829L225.557 155.83L224.12 154.438L224.121 154.437L225.557 155.829ZM224.377 156.02L224.353 156.007L225.326 154.259L225.351 154.273L224.377 156.02ZM224.416 156.041C224.412 156.039 224.408 156.037 224.404 156.035L225.324 154.259C225.364 154.279 225.403 154.301 225.442 154.324L224.416 156.041ZM230.855 159.629L224.442 156.056L225.416 154.309L231.829 157.882L230.855 159.629ZM225.63 162.736C226.333 162.038 227.323 161.054 228.273 160.146C229.205 159.255 230.154 158.384 230.753 157.947L231.931 159.564C231.458 159.908 230.607 160.683 229.655 161.592C228.721 162.485 227.744 163.455 227.04 164.155L225.63 162.736ZM225.653 162.714L225.653 162.714L227.017 164.176L227.017 164.176L225.653 162.714ZM225.628 162.738L225.628 162.738L227.042 164.152L227.042 164.153L225.628 162.738Z" fill="#012135" mask="url(#path-37-inside-2_1713_70775)"/>
</mask>
<g mask="url(#mask1_1713_70775)">
<rect width="24.2487" height="14.3572" transform="matrix(-0.866025 -0.5 -2.20305e-08 1 30.8921 285.996)" fill="#083A5A"/>
<rect width="24.2487" height="1.04934" transform="matrix(-0.866025 -0.5 -2.20305e-08 1 30.8921 282.946)" fill="#083A5A"/>
</g>
<rect width="243.39" height="15.146" rx="3" transform="matrix(-0.866025 0.5 2.20305e-08 1 232.14 157.684)" fill="#99D3CE" stroke="#012135" stroke-linecap="round" stroke-linejoin="round"/>
<rect width="208.623" height="122.894" transform="matrix(-0.866025 0.5 2.20305e-08 1 212.753 42.4844)" fill="#083A5A"/>
<path d="M212.315 41.2812L212.315 164.362" stroke="#001928"/>
<path d="M186.522 56.1719L186.522 179.253" stroke="#001928"/>
<path d="M161.108 70.8477L161.108 193.928" stroke="#001928"/>
<path d="M135.312 85.7383L135.312 208.819" stroke="#001928"/>
<path d="M109.897 100.41L109.897 223.491" stroke="#001928"/>
<path d="M84.1006 115.305L84.1006 238.385" stroke="#001928"/>
<path d="M58.6904 129.977L58.6904 253.057" stroke="#001928"/>
<path d="M32.5146 145.09L32.5147 268.171" stroke="#001928"/>
<path d="M212.128 164.691L32.7061 268.281" stroke="#001928"/>
<path d="M212.124 134.027L32.7022 237.617" stroke="#001928"/>
<path d="M212.124 103.367L32.7022 206.956" stroke="#001928"/>
<path d="M212.124 72.2695L32.7022 175.859" stroke="#001928"/>
<path d="M212.128 41.1719L32.7061 144.761" stroke="#001928"/>
<path d="M212.128 164.691L32.7061 268.281" stroke="#001928"/>
<path d="M212.315 41.2812L212.315 164.362" stroke="#001928"/>
<path d="M212.128 96.7769C212.128 96.7769 196.749 137.965 186.496 143.884C176.244 149.803 171.117 149.378 160.865 143.297C150.612 137.216 145.486 107.56 135.233 113.479C124.98 119.399 119.854 200.822 109.601 206.742C99.3485 212.661 94.2221 131.003 83.9695 136.922C73.7168 142.841 68.5905 224.265 58.3378 230.184C48.0851 236.104 32.7061 238.829 32.7061 238.829" stroke="#F1843E" stroke-width="2" stroke-linecap="round"/>
<path d="M212.129 99.8028C212.87 99.3753 213.58 98.6257 214.103 97.7189C214.627 96.8121 214.921 95.8223 214.921 94.9672C214.922 94.1121 214.628 93.4618 214.104 93.1591C213.581 92.8565 212.871 92.9264 212.131 93.3535C211.39 93.7806 210.68 94.5298 210.156 95.4365C209.632 96.3431 209.338 97.3329 209.337 98.1882C209.336 99.0435 209.63 99.6943 210.153 99.9973C210.676 100.3 211.386 100.231 212.126 99.8046C212.126 99.8046 212.126 99.8046 212.126 99.8046C212.126 99.8045 212.126 99.8044 212.126 99.8044L212.129 99.8028Z" fill="#F1843E" stroke="#001928"/>
<path d="M186.71 147.385C187.565 146.892 188.385 146.027 188.989 144.98C189.593 143.934 189.933 142.791 189.933 141.804C189.933 140.817 189.594 140.067 188.99 139.717C188.386 139.368 187.567 139.449 186.712 139.942C185.857 140.435 185.038 141.299 184.433 142.346C183.828 143.392 183.488 144.535 183.488 145.522C183.487 146.509 183.826 147.26 184.43 147.61C185.033 147.96 185.852 147.88 186.707 147.387C186.707 147.387 186.707 147.387 186.707 147.387C186.707 147.387 186.707 147.387 186.707 147.387L186.71 147.385Z" fill="#F1843E" stroke="#001928"/>
<path d="M160.916 147.031C161.789 146.527 162.627 145.642 163.245 144.572C163.863 143.502 164.21 142.334 164.211 141.325C164.211 140.316 163.864 139.549 163.246 139.192C162.629 138.834 161.791 138.917 160.917 139.421C160.043 139.925 159.205 140.809 158.587 141.879C157.969 142.949 157.621 144.117 157.621 145.126C157.62 146.135 157.966 146.903 158.584 147.261C159.201 147.619 160.039 147.537 160.912 147.033L160.916 147.031Z" fill="#F1843E" stroke="#001928"/>
<path d="M135.502 117.257C136.429 116.722 137.317 115.784 137.972 114.65C138.627 113.515 138.995 112.277 138.996 111.207C138.996 110.137 138.628 109.323 137.973 108.945C137.319 108.566 136.43 108.654 135.504 109.188C134.577 109.722 133.689 110.66 133.033 111.794C132.378 112.928 132.009 114.167 132.009 115.237C132.008 116.307 132.375 117.121 133.03 117.5C133.684 117.88 134.572 117.793 135.499 117.259L135.502 117.257Z" fill="#F1843E" stroke="#001928"/>
<path d="M109.708 210.195C110.552 209.708 111.361 208.853 111.958 207.82C112.555 206.786 112.89 205.658 112.89 204.684C112.89 203.709 112.555 202.968 111.959 202.623C111.362 202.278 110.553 202.358 109.709 202.844C108.865 203.331 108.056 204.185 107.459 205.218C106.862 206.252 106.526 207.38 106.525 208.355C106.525 209.33 106.859 210.071 107.455 210.417C108.051 210.762 108.86 210.683 109.704 210.197C109.704 210.197 109.704 210.197 109.704 210.197C109.704 210.197 109.704 210.197 109.705 210.197L109.708 210.195Z" fill="#F1843E" stroke="#001928"/>
<path d="M84.2936 140.795C84.2937 140.794 84.2939 140.794 84.294 140.794C84.294 140.794 84.294 140.794 84.294 140.794C85.2435 140.246 86.154 139.285 86.8254 138.122C87.497 136.959 87.8744 135.69 87.8746 134.593C87.8748 133.496 87.4979 132.662 86.8267 132.274C86.1555 131.886 85.245 131.976 84.2954 132.523C83.3458 133.071 82.4349 134.032 81.763 135.195C81.0911 136.358 80.7133 137.627 80.7126 138.724C80.7118 139.821 81.0883 140.655 81.7592 141.044C82.4301 141.433 83.3404 141.344 84.29 140.797L84.2936 140.795Z" fill="#F1843E" stroke="#001928"/>
<path d="M58.4954 233.575C59.3273 233.095 60.125 232.253 60.7133 231.234C61.3016 230.215 61.6322 229.103 61.6324 228.143C61.6326 227.182 61.3024 226.451 60.7145 226.111C60.1265 225.771 59.3288 225.85 58.497 226.33C57.6652 226.81 56.8672 227.651 56.2786 228.67C55.69 229.688 55.3591 230.8 55.3584 231.761C55.3578 232.722 55.6876 233.453 56.2753 233.794C56.8629 234.134 57.6602 234.056 58.4919 233.577C58.4919 233.577 58.4919 233.577 58.4919 233.577C58.492 233.577 58.4922 233.577 58.4923 233.577L58.4954 233.575Z" fill="#F1843E" stroke="#001928"/>
<path d="M32.7054 242.564C33.5893 242.053 34.437 241.159 35.0621 240.076C35.6872 238.994 36.0384 237.812 36.0387 236.791C36.0389 235.771 35.688 234.994 35.0633 234.633C34.4385 234.272 33.5909 234.355 32.707 234.865C31.8231 235.375 30.9752 236.269 30.3498 237.351C29.7244 238.434 29.3727 239.615 29.3721 240.636C29.3714 241.657 29.7218 242.434 30.3463 242.796C30.9708 243.158 31.8181 243.075 32.702 242.566L32.7054 242.564Z" fill="#F1843E" stroke="#001928"/>
<path fill-rule="evenodd" clip-rule="evenodd" d="M226.476 21.2775C226.21 21.542 225.984 21.7665 225.816 21.9319V24.1854C225.816 25.8423 224.652 27.857 223.217 28.6854L21.8495 144.945L26.5499 147.658C25.0313 148.764 22.1549 150.999 22.1549 150.999C22.1549 150.999 18.0211 148.889 15.9129 147.623C15.3736 147.384 15.0335 146.776 15.0335 145.88V136.383C15.0335 134.726 16.1967 132.711 17.6316 131.883L223.217 13.1876C223.898 12.7949 224.517 12.7393 224.98 12.9658L224.981 12.9649L225.006 12.9787C225.027 12.9901 225.049 13.0021 225.07 13.0148L231.483 16.5874C230.411 17.3688 227.883 19.8798 226.476 21.2773L226.476 21.2773L226.476 21.2775Z" fill="#CDFFFA"/>
<path d="M225.816 21.9319H225.316C225.316 21.7977 225.369 21.6692 225.465 21.5751L225.816 21.9319ZM226.476 21.2775L226.83 21.6311L226.829 21.6323L226.476 21.2775ZM223.217 28.6854L223.467 29.1184L223.217 28.6854ZM21.8495 144.945L21.5996 145.378C21.4449 145.289 21.3496 145.124 21.3495 144.945C21.3495 144.767 21.4448 144.602 21.5995 144.512L21.8495 144.945ZM26.5499 147.658L26.7998 147.225C26.9464 147.309 27.0402 147.462 27.0492 147.631C27.0582 147.8 26.9812 147.962 26.8444 148.062L26.5499 147.658ZM22.1549 150.999L22.4616 151.394C22.3085 151.512 22.1003 151.532 21.9276 151.444L22.1549 150.999ZM15.9129 147.623L16.115 147.165C16.134 147.174 16.1525 147.183 16.1703 147.194L15.9129 147.623ZM17.6316 131.883L17.8816 132.316L17.6316 131.883ZM223.217 13.1876L222.967 12.7546L223.217 13.1876ZM224.98 12.9658L225.339 13.3138C225.188 13.4693 224.955 13.5101 224.76 13.415L224.98 12.9658ZM224.981 12.9649L224.622 12.617C224.779 12.4544 225.026 12.418 225.224 12.5281L224.981 12.9649ZM225.006 12.9787L224.775 13.4227C224.771 13.4204 224.767 13.418 224.762 13.4155L225.006 12.9787ZM225.07 13.0148L224.827 13.4516C224.823 13.4492 224.818 13.4467 224.814 13.4441L225.07 13.0148ZM231.483 16.5874L231.727 16.1506C231.876 16.2336 231.972 16.3868 231.982 16.557C231.993 16.7273 231.916 16.891 231.778 16.9915L231.483 16.5874ZM226.476 21.2773L226.829 21.632C226.825 21.6357 226.821 21.6393 226.818 21.6428L226.476 21.2773ZM226.476 21.2773L226.123 20.9238C226.127 20.9197 226.131 20.9157 226.135 20.9118L226.476 21.2773ZM225.465 21.5751C225.632 21.411 225.857 21.1876 226.124 20.9228L226.829 21.6323C226.563 21.8963 226.336 22.122 226.166 22.2887L225.465 21.5751ZM225.316 24.1854V21.9319H226.316V24.1854H225.316ZM222.967 28.2524C223.591 27.8924 224.184 27.2545 224.622 26.4961C225.059 25.7376 225.316 24.9054 225.316 24.1854H226.316C226.316 25.1223 225.99 26.1259 225.488 26.9961C224.985 27.8663 224.279 28.65 223.467 29.1184L222.967 28.2524ZM21.5995 144.512L222.967 28.2524L223.467 29.1184L22.0995 145.378L21.5995 144.512ZM26.3 148.091L21.5996 145.378L22.0995 144.512L26.7998 147.225L26.3 148.091ZM22.1549 150.999C21.8482 150.604 21.8482 150.604 21.8482 150.604C21.8483 150.604 21.8483 150.604 21.8483 150.604C21.8484 150.604 21.8486 150.603 21.8487 150.603C21.8491 150.603 21.8496 150.603 21.8503 150.602C21.8517 150.601 21.8538 150.599 21.8566 150.597C21.8621 150.593 21.8703 150.587 21.8811 150.578C21.9026 150.562 21.9343 150.537 21.9752 150.505C22.057 150.442 22.1754 150.35 22.3223 150.237C22.6161 150.01 23.0236 149.695 23.4787 149.346C24.3876 148.65 25.4907 147.811 26.2554 147.254L26.8444 148.062C26.0905 148.611 24.9961 149.443 24.0872 150.14C23.6333 150.488 23.2269 150.801 22.9338 151.028C22.7873 151.141 22.6692 151.233 22.5878 151.296C22.547 151.327 22.5155 151.352 22.4941 151.368C22.4834 151.377 22.4753 151.383 22.4698 151.387C22.4671 151.389 22.465 151.391 22.4637 151.392C22.463 151.392 22.4625 151.393 22.4621 151.393C22.4619 151.393 22.4618 151.393 22.4617 151.393C22.4617 151.393 22.4617 151.393 22.4617 151.393C22.4616 151.394 22.4616 151.394 22.1549 150.999ZM16.1703 147.194C17.2116 147.819 18.7613 148.658 20.0582 149.343C20.705 149.685 21.2863 149.988 21.7058 150.205C21.9156 150.314 22.0848 150.401 22.2016 150.461C22.26 150.491 22.3052 150.514 22.3358 150.53C22.3511 150.537 22.3627 150.543 22.3705 150.547C22.3745 150.549 22.3774 150.551 22.3793 150.552C22.3803 150.552 22.381 150.553 22.3815 150.553C22.3818 150.553 22.3819 150.553 22.382 150.553C22.3821 150.553 22.3822 150.553 22.3822 150.553C22.3822 150.553 22.3822 150.553 22.1549 150.999C21.9276 151.444 21.9276 151.444 21.9275 151.444C21.9275 151.444 21.9274 151.444 21.9274 151.444C21.9272 151.444 21.927 151.444 21.9268 151.444C21.9263 151.443 21.9255 151.443 21.9245 151.442C21.9224 151.441 21.9194 151.44 21.9154 151.438C21.9074 151.434 21.8956 151.428 21.8801 151.42C21.8492 151.404 21.8035 151.38 21.7447 151.35C21.6272 151.29 21.457 151.202 21.2463 151.093C20.8248 150.875 20.2409 150.571 19.5908 150.227C18.2937 149.542 16.7224 148.692 15.6555 148.051L16.1703 147.194ZM15.5335 145.88C15.5335 146.663 15.823 147.036 16.115 147.165L15.7108 148.08C14.9242 147.732 14.5335 146.89 14.5335 145.88H15.5335ZM15.5335 136.383V145.88H14.5335V136.383H15.5335ZM17.8816 132.316C17.258 132.676 16.6654 133.314 16.2275 134.072C15.7896 134.83 15.5335 135.663 15.5335 136.383H14.5335C14.5335 135.446 14.859 134.442 15.3615 133.572C15.8639 132.702 16.5703 131.918 17.3816 131.45L17.8816 132.316ZM223.467 13.6206L17.8816 132.316L17.3816 131.45L222.967 12.7546L223.467 13.6206ZM224.76 13.415C224.498 13.2865 224.061 13.278 223.467 13.6206L222.967 12.7546C223.734 12.3118 224.536 12.192 225.2 12.5167L224.76 13.415ZM225.34 13.3129L225.339 13.3138L224.621 12.6179L224.622 12.617L225.34 13.3129ZM224.762 13.4155L224.737 13.4017L225.224 12.5281L225.249 12.542L224.762 13.4155ZM224.814 13.4441C224.801 13.4366 224.788 13.4294 224.775 13.4227L225.236 12.5348C225.266 12.5508 225.297 12.5677 225.327 12.5855L224.814 13.4441ZM231.24 17.0242L224.827 13.4516L225.314 12.578L231.727 16.1506L231.24 17.0242ZM226.124 20.9226C226.827 20.2243 227.814 19.2438 228.76 18.3399C229.697 17.4444 230.621 16.5971 231.189 16.1834L231.778 16.9915C231.273 17.3591 230.398 18.1581 229.451 19.0628C228.513 19.959 227.533 20.9328 226.829 21.632L226.124 20.9226ZM226.135 20.9118L226.135 20.9118L226.818 21.6428L226.818 21.6429L226.135 20.9118ZM226.123 20.924L226.123 20.9238L226.83 21.6309L226.83 21.6311L226.123 20.924Z" fill="#012135"/>
<mask id="mask2_1713_70775" style="mask-type:alpha" maskUnits="userSpaceOnUse" x="14" y="13" width="218" height="139">
<mask id="path-69-inside-3_1713_70775" fill="white">
<path fill-rule="evenodd" clip-rule="evenodd" d="M226.335 21.4455C226.069 21.7099 225.843 21.9345 225.674 22.0999V24.3534C225.674 26.0102 224.511 28.025 223.076 28.8534L21.7082 145.113L26.4086 147.826C24.8899 148.932 22.0135 151.167 22.0135 151.167C22.0135 151.167 17.8797 149.057 15.7716 147.791C15.2323 147.552 14.8922 146.944 14.8922 146.048V136.551C14.8922 134.894 16.0553 132.879 17.4902 132.051L223.076 13.3556C223.756 12.9629 224.375 12.9072 224.839 13.1338L224.839 13.1329L224.864 13.1467C224.886 13.1581 224.908 13.1701 224.929 13.1828L231.342 16.7554C230.27 17.5368 227.742 20.0478 226.335 21.4453L226.335 21.4453L226.335 21.4455Z"/>
</mask>
<path fill-rule="evenodd" clip-rule="evenodd" d="M226.335 21.4455C226.069 21.7099 225.843 21.9345 225.674 22.0999V24.3534C225.674 26.0102 224.511 28.025 223.076 28.8534L21.7082 145.113L26.4086 147.826C24.8899 148.932 22.0135 151.167 22.0135 151.167C22.0135 151.167 17.8797 149.057 15.7716 147.791C15.2323 147.552 14.8922 146.944 14.8922 146.048V136.551C14.8922 134.894 16.0553 132.879 17.4902 132.051L223.076 13.3556C223.756 12.9629 224.375 12.9072 224.839 13.1338L224.839 13.1329L224.864 13.1467C224.886 13.1581 224.908 13.1701 224.929 13.1828L231.342 16.7554C230.27 17.5368 227.742 20.0478 226.335 21.4453L226.335 21.4453L226.335 21.4455Z" fill="#99D3CE"/>
<path d="M225.674 22.0999H224.674C224.674 21.8315 224.782 21.5744 224.974 21.3863L225.674 22.0999ZM226.335 21.4455L227.042 22.1526L227.04 22.155L226.335 21.4455ZM223.076 28.8534L223.576 29.7194L223.076 28.8534ZM21.7082 145.113L21.2084 145.979C20.8989 145.801 20.7082 145.471 20.7082 145.113C20.7081 144.756 20.8988 144.426 21.2082 144.247L21.7082 145.113ZM26.4086 147.826L26.9084 146.959C27.2015 147.129 27.3891 147.434 27.4072 147.772C27.4252 148.11 27.271 148.434 26.9976 148.634L26.4086 147.826ZM22.0135 151.167L22.627 151.956C22.3207 152.194 21.9044 152.234 21.5589 152.057L22.0135 151.167ZM15.7716 147.791L16.1758 146.876C16.2138 146.893 16.2508 146.912 16.2864 146.933L15.7716 147.791ZM17.4902 132.051L17.9902 132.917L17.4902 132.051ZM223.076 13.3556L222.576 12.4895L223.076 13.3556ZM224.839 13.1338L225.557 13.8298C225.255 14.1407 224.788 14.2224 224.399 14.0321L224.839 13.1338ZM224.839 13.1329L224.121 12.437C224.436 12.1119 224.931 12.039 225.326 12.2593L224.839 13.1329ZM224.864 13.1467L224.404 14.0345C224.395 14.0299 224.386 14.0252 224.377 14.0203L224.864 13.1467ZM224.929 13.1828L224.442 14.0564C224.433 14.0515 224.425 14.0465 224.416 14.0413L224.929 13.1828ZM231.342 16.7554L231.829 15.8818C232.127 16.0478 232.319 16.3542 232.34 16.6946C232.361 17.0351 232.207 17.3626 231.931 17.5635L231.342 16.7554ZM226.335 21.4453L227.04 22.1547C227.033 22.1621 227.025 22.1692 227.017 22.1763L226.335 21.4453ZM226.335 21.4453L225.628 20.7382C225.636 20.7301 225.644 20.7221 225.653 20.7142L226.335 21.4453ZM224.974 21.3863C225.139 21.2234 225.363 21.0013 225.63 20.736L227.04 22.155C226.774 22.4185 226.546 22.6455 226.375 22.8134L224.974 21.3863ZM224.674 24.3534V22.0999H226.674V24.3534H224.674ZM222.576 27.9874C223.106 27.6816 223.642 27.1166 224.047 26.414C224.453 25.7114 224.674 24.965 224.674 24.3534H226.674C226.674 25.3986 226.314 26.488 225.779 27.414C225.245 28.3401 224.481 29.1968 223.576 29.7194L222.576 27.9874ZM21.2082 144.247L222.576 27.9874L223.576 29.7194L22.2082 145.979L21.2082 144.247ZM25.9088 148.692L21.2084 145.979L22.208 144.247L26.9084 146.959L25.9088 148.692ZM22.0135 151.167C21.4001 150.377 21.4001 150.377 21.4002 150.377C21.4002 150.377 21.4002 150.377 21.4003 150.377C21.4004 150.377 21.4005 150.377 21.4007 150.376C21.4011 150.376 21.4016 150.376 21.4023 150.375C21.4037 150.374 21.4058 150.372 21.4086 150.37C21.4142 150.366 21.4224 150.36 21.4332 150.351C21.4548 150.334 21.4866 150.31 21.5275 150.278C21.6095 150.215 21.7281 150.123 21.8752 150.009C22.1693 149.782 22.5774 149.467 23.0331 149.118C23.942 148.421 25.0494 147.579 25.8196 147.017L26.9976 148.634C26.2491 149.179 25.159 150.008 24.25 150.705C23.7968 151.052 23.3909 151.365 23.0982 151.591C22.9519 151.705 22.834 151.796 22.7527 151.859C22.712 151.89 22.6805 151.915 22.6592 151.931C22.6486 151.94 22.6405 151.946 22.6351 151.95C22.6324 151.952 22.6303 151.954 22.629 151.955C22.6283 151.955 22.6278 151.956 22.6275 151.956C22.6273 151.956 22.6272 151.956 22.6271 151.956C22.627 151.956 22.627 151.956 22.627 151.956C22.627 151.956 22.627 151.956 22.0135 151.167ZM16.2864 146.933C17.3148 147.551 18.8537 148.384 20.1505 149.069C20.7958 149.411 21.3757 149.712 21.7943 149.929C22.0035 150.037 22.1723 150.124 22.2887 150.184C22.3468 150.214 22.3919 150.237 22.4223 150.252C22.4375 150.26 22.4491 150.266 22.4568 150.27C22.4606 150.272 22.4635 150.274 22.4654 150.275C22.4664 150.275 22.4671 150.275 22.4675 150.276C22.4678 150.276 22.4679 150.276 22.468 150.276C22.4681 150.276 22.4681 150.276 22.4681 150.276C22.4682 150.276 22.4682 150.276 22.0135 151.167C21.5589 152.057 21.5589 152.057 21.5589 152.057C21.5588 152.057 21.5588 152.057 21.5587 152.057C21.5585 152.057 21.5583 152.057 21.5581 152.057C21.5575 152.057 21.5567 152.056 21.5557 152.056C21.5536 152.055 21.5505 152.053 21.5465 152.051C21.5384 152.047 21.5265 152.041 21.5109 152.033C21.4798 152.017 21.4339 151.993 21.375 151.963C21.257 151.902 21.0864 151.815 20.8751 151.705C20.4527 151.487 19.8674 151.182 19.2157 150.837C17.9185 150.152 16.3365 149.296 15.2567 148.648L16.2864 146.933ZM15.8922 146.048C15.8922 146.717 16.1311 146.856 16.1758 146.876L15.3673 148.705C14.3334 148.248 13.8922 147.172 13.8922 146.048H15.8922ZM15.8922 136.551V146.048H13.8922V136.551H15.8922ZM17.9902 132.917C17.4606 133.222 16.9248 133.787 16.5191 134.49C16.1135 135.193 15.8922 135.939 15.8922 136.551H13.8922C13.8922 135.505 14.2524 134.416 14.7871 133.49C15.3217 132.564 16.085 131.707 16.9902 131.185L17.9902 132.917ZM223.576 14.2216L17.9902 132.917L16.9902 131.185L222.576 12.4895L223.576 14.2216ZM224.399 14.0321C224.337 14.0018 224.083 13.929 223.576 14.2216L222.576 12.4895C223.43 11.9968 224.414 11.8127 225.278 12.2355L224.399 14.0321ZM225.557 13.8289L225.557 13.8298L224.12 12.4378L224.121 12.437L225.557 13.8289ZM224.377 14.0203L224.353 14.0065L225.326 12.2593L225.351 12.2731L224.377 14.0203ZM224.416 14.0413C224.412 14.039 224.408 14.0367 224.404 14.0345L225.324 12.2589C225.364 12.2795 225.403 12.3013 225.442 12.3242L224.416 14.0413ZM230.855 17.629L224.442 14.0564L225.416 12.3092L231.829 15.8818L230.855 17.629ZM225.63 20.7358C226.333 20.038 227.323 19.0542 228.273 18.1464C229.205 17.2555 230.154 16.3841 230.753 15.9473L231.931 17.5635C231.458 17.9081 230.607 18.6829 229.655 19.5922C228.721 20.4846 227.744 21.455 227.04 22.1547L225.63 20.7358ZM225.653 20.7142L225.653 20.7142L227.017 22.1763L227.017 22.1763L225.653 20.7142ZM225.628 20.7384L225.628 20.7382L227.042 22.1524L227.042 22.1526L225.628 20.7384Z" fill="#012135" mask="url(#path-69-inside-3_1713_70775)"/>
</mask>
<g mask="url(#mask2_1713_70775)">
<rect width="24.2487" height="14.3541" transform="matrix(-0.866025 -0.5 -2.20305e-08 1 30.8921 143.999)" fill="#083A5A"/>
<rect width="24.2487" height="1.04934" transform="matrix(-0.866025 -0.5 -2.20305e-08 1 30.8921 140.946)" fill="#083A5A"/>
</g>
<rect width="243.39" height="15.146" rx="3" transform="matrix(-0.866025 0.5 2.20305e-08 1 232.14 15.3359)" fill="#99D3CE" stroke="#012135" stroke-linecap="round" stroke-linejoin="round"/>
<mask id="path-74-inside-4_1713_70775" fill="white">
<path fill-rule="evenodd" clip-rule="evenodd" d="M31.2013 116.695H43.6279V123.021H43.5967C43.554 123.903 42.9497 124.777 41.7839 125.45C39.3635 126.848 35.4393 126.848 33.0189 125.45C31.853 124.777 31.2488 123.903 31.206 123.021H31.2013V116.695Z"/>
</mask>
<path fill-rule="evenodd" clip-rule="evenodd" d="M31.2013 116.695H43.6279V123.021H43.5967C43.554 123.903 42.9497 124.777 41.7839 125.45C39.3635 126.848 35.4393 126.848 33.0189 125.45C31.853 124.777 31.2488 123.903 31.206 123.021H31.2013V116.695Z" fill="#99D3CE"/>
<path d="M43.6279 116.695V115.695H44.6279V116.695H43.6279ZM31.2013 116.695H30.2013V115.695H31.2013V116.695ZM43.6279 123.021H44.6279V124.021H43.6279V123.021ZM43.5967 123.021L42.5979 122.972L42.644 122.021H43.5967V123.021ZM41.7839 125.45L42.2839 126.316L41.7839 125.45ZM33.0189 125.45L32.5189 126.316L33.0189 125.45ZM31.206 123.021V122.021H32.1587L32.2048 122.972L31.206 123.021ZM31.2013 123.021V124.021H30.2013V123.021H31.2013ZM43.6279 117.695H31.2013V115.695H43.6279V117.695ZM42.6279 123.021V116.695H44.6279V123.021H42.6279ZM43.5967 122.021H43.6279V124.021H43.5967V122.021ZM41.2839 124.584C42.2738 124.013 42.5773 123.397 42.5979 122.972L44.5955 123.069C44.5307 124.408 43.6256 125.541 42.2839 126.316L41.2839 124.584ZM33.5189 124.584C34.5413 125.174 35.9442 125.498 37.4014 125.498C38.8585 125.498 40.2615 125.174 41.2839 124.584L42.2839 126.316C40.8859 127.123 39.1165 127.498 37.4014 127.498C35.6862 127.498 33.9169 127.123 32.5189 126.316L33.5189 124.584ZM32.2048 122.972C32.2254 123.397 32.529 124.013 33.5189 124.584L32.5189 126.316C31.1771 125.541 30.2721 124.408 30.2072 123.069L32.2048 122.972ZM31.2013 122.021H31.206V124.021H31.2013V122.021ZM32.2013 116.695V123.021H30.2013V116.695H32.2013Z" fill="#012135" mask="url(#path-74-inside-4_1713_70775)"/>
<circle r="4.5721" transform="matrix(-0.866029 0.499994 0.866029 0.499994 37.3816 116.947)" fill="#CDFFFA" stroke="#012135"/>
<mask id="path-77-inside-5_1713_70775" fill="white">
<path fill-rule="evenodd" clip-rule="evenodd" d="M37.5179 108.117C39.735 108.117 41.5516 109.832 41.7137 112.008H41.7295V115.482C42.4189 116.461 42.0757 117.625 40.7002 118.419C38.8675 119.478 35.8962 119.478 34.0635 118.419C32.5311 117.535 32.2801 116.19 33.3103 115.155V112.008H33.3221C33.4842 109.832 35.3008 108.117 37.5179 108.117Z"/>
</mask>
<path fill-rule="evenodd" clip-rule="evenodd" d="M37.5179 108.117C39.735 108.117 41.5516 109.832 41.7137 112.008H41.7295V115.482C42.4189 116.461 42.0757 117.625 40.7002 118.419C38.8675 119.478 35.8962 119.478 34.0635 118.419C32.5311 117.535 32.2801 116.19 33.3103 115.155V112.008H33.3221C33.4842 109.832 35.3008 108.117 37.5179 108.117Z" fill="#CDFFFA"/>
<path d="M41.7137 112.008V113.008H40.7855L40.7165 112.082L41.7137 112.008ZM41.7295 112.008V111.008H42.7295V112.008H41.7295ZM41.7295 115.482L40.9119 116.058L40.7295 115.799V115.482H41.7295ZM40.7002 118.419L41.2002 119.285L41.2002 119.285L40.7002 118.419ZM34.0635 118.419L33.5635 119.285V119.285L34.0635 118.419ZM33.3103 115.155H34.3103V115.568L34.0191 115.86L33.3103 115.155ZM33.3103 112.008H32.3103V111.008H33.3103V112.008ZM33.3221 112.008L34.3193 112.082L34.2503 113.008H33.3221V112.008ZM40.7165 112.082C40.593 110.424 39.2076 109.117 37.5179 109.117V107.117C40.2624 107.117 42.5102 109.24 42.7109 111.933L40.7165 112.082ZM41.7295 113.008H41.7137V111.008H41.7295V113.008ZM40.7295 115.482V112.008H42.7295V115.482H40.7295ZM40.2002 117.553C40.7467 117.238 40.9691 116.917 41.0409 116.703C41.1022 116.519 41.0911 116.312 40.9119 116.058L42.5471 114.906C43.0573 115.63 43.2193 116.495 42.9375 117.337C42.6662 118.148 42.0292 118.807 41.2002 119.285L40.2002 117.553ZM34.5635 117.553C35.2921 117.974 36.3099 118.213 37.3819 118.213C38.4538 118.213 39.4717 117.974 40.2002 117.553L41.2002 119.285C40.0961 119.923 38.7119 120.213 37.3819 120.213C36.0518 120.213 34.6676 119.923 33.5635 119.285L34.5635 117.553ZM34.0191 115.86C33.6938 116.187 33.6636 116.45 33.703 116.631C33.7498 116.845 33.9524 117.201 34.5635 117.553L33.5635 119.285C32.6422 118.754 31.9532 117.994 31.7488 117.057C31.5372 116.085 31.8965 115.158 32.6014 114.45L34.0191 115.86ZM34.3103 112.008V115.155H32.3103V112.008H34.3103ZM33.3221 113.008H33.3103V111.008H33.3221V113.008ZM37.5179 109.117C35.8282 109.117 34.4428 110.424 34.3193 112.082L32.3248 111.933C32.5256 109.24 34.7734 107.117 37.5179 107.117V109.117Z" fill="#012135" mask="url(#path-77-inside-5_1713_70775)"/>
<mask id="path-79-inside-6_1713_70775" fill="white">
<path fill-rule="evenodd" clip-rule="evenodd" d="M199.397 19.2734H211.823V25.5987H211.788C211.745 26.4806 211.141 27.3552 209.975 28.0283C207.555 29.4257 203.631 29.4257 201.21 28.0283C200.044 27.3552 199.44 26.4806 199.397 25.5987H199.397V25.5799C199.394 25.5253 199.394 25.4707 199.397 25.4162V19.2734Z"/>
</mask>
<path fill-rule="evenodd" clip-rule="evenodd" d="M199.397 19.2734H211.823V25.5987H211.788C211.745 26.4806 211.141 27.3552 209.975 28.0283C207.555 29.4257 203.631 29.4257 201.21 28.0283C200.044 27.3552 199.44 26.4806 199.397 25.5987H199.397V25.5799C199.394 25.5253 199.394 25.4707 199.397 25.4162V19.2734Z" fill="#99D3CE"/>
<path d="M211.823 19.2734V18.2734H212.823V19.2734H211.823ZM199.397 19.2734H198.397V18.2734H199.397V19.2734ZM211.823 25.5987H212.823V26.5987H211.823V25.5987ZM211.788 25.5987L210.789 25.5503L210.835 24.5987H211.788V25.5987ZM209.975 28.0283L210.475 28.8943L209.975 28.0283ZM201.21 28.0283L200.71 28.8943L201.21 28.0283ZM199.397 25.5987V24.5987H200.35L200.396 25.5503L199.397 25.5987ZM199.397 25.5987V26.5987H198.397V25.5987H199.397ZM199.397 25.5799L200.396 25.5405L200.397 25.5602V25.5799H199.397ZM199.397 25.4162H200.397V25.4358L200.396 25.4555L199.397 25.4162ZM211.823 20.2734H199.397V18.2734H211.823V20.2734ZM210.823 25.5987V19.2734H212.823V25.5987H210.823ZM211.788 24.5987H211.823V26.5987H211.788V24.5987ZM209.475 27.1622C210.465 26.5907 210.769 25.9754 210.789 25.5503L212.787 25.6471C212.722 26.9859 211.817 28.1196 210.475 28.8943L209.475 27.1622ZM201.71 27.1622C202.733 27.7525 204.136 28.0763 205.593 28.0763C207.05 28.0763 208.453 27.7525 209.475 27.1622L210.475 28.8943C209.077 29.7014 207.308 30.0763 205.593 30.0763C203.878 30.0763 202.108 29.7014 200.71 28.8943L201.71 27.1622ZM200.396 25.5503C200.417 25.9754 200.72 26.5907 201.71 27.1622L200.71 28.8943C199.369 28.1196 198.463 26.9859 198.399 25.6471L200.396 25.5503ZM199.397 24.5987H199.397V26.5987H199.397V24.5987ZM200.397 25.5799V25.5987H198.397V25.5799H200.397ZM200.396 25.4555C200.395 25.4838 200.395 25.5122 200.396 25.5405L198.397 25.6192C198.394 25.5384 198.394 25.4576 198.397 25.3768L200.396 25.4555ZM200.397 19.2734V25.4162H198.397V19.2734H200.397Z" fill="#012135" mask="url(#path-79-inside-6_1713_70775)"/>
<circle r="4.5721" transform="matrix(-0.866029 0.499994 0.866029 0.499994 205.573 19.5252)" fill="#CDFFFA" stroke="#012135"/>
<mask id="path-82-inside-7_1713_70775" fill="white">
<path fill-rule="evenodd" clip-rule="evenodd" d="M205.709 10.6953C207.926 10.6953 209.743 12.4101 209.905 14.5858H209.921V18.0599C210.61 19.0388 210.267 20.2034 208.892 20.9975C207.059 22.0556 204.088 22.0556 202.255 20.9975C200.723 20.1128 200.471 18.7685 201.502 17.7331V14.5858H201.513C201.676 12.4101 203.492 10.6953 205.709 10.6953Z"/>
</mask>
<path fill-rule="evenodd" clip-rule="evenodd" d="M205.709 10.6953C207.926 10.6953 209.743 12.4101 209.905 14.5858H209.921V18.0599C210.61 19.0388 210.267 20.2034 208.892 20.9975C207.059 22.0556 204.088 22.0556 202.255 20.9975C200.723 20.1128 200.471 18.7685 201.502 17.7331V14.5858H201.513C201.676 12.4101 203.492 10.6953 205.709 10.6953Z" fill="#F1843E"/>
<path d="M209.905 14.5858V15.5858H208.977L208.908 14.6601L209.905 14.5858ZM209.921 14.5858V13.5858H210.921V14.5858H209.921ZM209.921 18.0599L209.103 18.6357L208.921 18.3767V18.0599H209.921ZM208.892 20.9975L209.392 21.8636L209.392 21.8636L208.892 20.9975ZM202.255 20.9975L201.755 21.8636V21.8636L202.255 20.9975ZM201.502 17.7331H202.502V18.1459L202.211 18.4385L201.502 17.7331ZM201.502 14.5858H200.502V13.5858H201.502V14.5858ZM201.513 14.5858L202.511 14.6601L202.442 15.5858H201.513V14.5858ZM208.908 14.6601C208.784 13.0025 207.399 11.6953 205.709 11.6953V9.69531C208.454 9.69531 210.702 11.8177 210.902 14.5114L208.908 14.6601ZM209.921 15.5858H209.905V13.5858H209.921V15.5858ZM208.921 18.0599V14.5858H210.921V18.0599H208.921ZM208.392 20.1315C208.938 19.816 209.161 19.4952 209.232 19.2807C209.294 19.0974 209.283 18.8902 209.103 18.6357L210.739 17.4842C211.249 18.2086 211.411 19.0731 211.129 19.9153C210.858 20.7263 210.221 21.3849 209.392 21.8636L208.392 20.1315ZM202.755 20.1315C203.483 20.5521 204.501 20.7911 205.573 20.7911C206.645 20.7911 207.663 20.5521 208.392 20.1315L209.392 21.8636C208.287 22.501 206.903 22.7911 205.573 22.7911C204.243 22.7911 202.859 22.501 201.755 21.8636L202.755 20.1315ZM202.211 18.4385C201.885 18.7654 201.855 19.028 201.894 19.2089C201.941 19.4235 202.144 19.7787 202.755 20.1315L201.755 21.8636C200.834 21.3316 200.145 20.5723 199.94 19.6347C199.729 18.6634 200.088 17.7362 200.793 17.0278L202.211 18.4385ZM202.502 14.5858V17.7331H200.502V14.5858H202.502ZM201.513 15.5858H201.502V13.5858H201.513V15.5858ZM205.709 11.6953C204.02 11.6953 202.634 13.0025 202.511 14.6601L200.516 14.5114C200.717 11.8177 202.965 9.69531 205.709 9.69531V11.6953Z" fill="#001928" mask="url(#path-82-inside-7_1713_70775)"/>
<rect width="30.0966" height="4.24442" rx="2" transform="matrix(-0.866025 -0.5 -2.20305e-08 1 124.375 371.375)" fill="#99D3CE" stroke="#012135"/>
<rect width="30.0966" height="4.24442" rx="2" transform="matrix(-0.866025 -0.5 -2.20305e-08 1 94.0112 353.699)" fill="#99D3CE" stroke="#012135"/>
</g>
<defs>
<clipPath id="clip0_1713_70775">
<rect width="354" height="419" fill="white" transform="matrix(-1 0 0 1 354 0)"/>
</clipPath>
<clipPath id="clip1_1713_70775">
<rect width="22.8474" height="22.3161" fill="white" transform="matrix(-0.866025 0.5 0.866025 0.5 304.781 320.273)"/>
</clipPath>
<clipPath id="clip2_1713_70775">
<rect width="22.8474" height="22.3161" fill="white" transform="matrix(-0.866025 0.5 0.866025 0.5 266.285 343.387)"/>
</clipPath>
</defs>
</svg>
