<svg width="354" height="403" viewBox="0 0 354 403" fill="none" xmlns="http://www.w3.org/2000/svg">
<g clip-path="url(#clip0_1713_70930)">
<path d="M80.8833 402.134L5.19189 357.021L80.8833 310.398L166.389 353.246L80.8833 402.134Z" fill="#001928"/>
<rect width="187.825" height="173.156" rx="17" transform="matrix(0.865865 0.500278 -0.865865 0.500278 198.404 207.977)" fill="#001928"/>
<path d="M323.745 219.738L323.745 236.148L323.745 252.559L295.321 268.97L323.745 219.738Z" fill="#CDFFFA" stroke="#001928" stroke-linecap="round" stroke-linejoin="round"/>
<path d="M333.671 225.464L333.671 258.286L305.247 274.696L333.671 225.464Z" fill="#083A5A" stroke="#001928" stroke-linecap="round" stroke-linejoin="round"/>
<path d="M333.671 225.46L323.745 219.738L295.321 268.977L305.247 274.692L333.671 225.46Z" fill="#99D3CE" stroke="#001928" stroke-linecap="round" stroke-linejoin="round"/>
<path fill-rule="evenodd" clip-rule="evenodd" d="M193.938 219.918C186.285 215.5 173.878 215.5 166.225 219.918L75.7027 272.181V271.777H50.5425V291.516H50.5486C50.603 294.37 52.5157 297.214 56.2869 299.391L196.688 380.452C204.341 384.87 216.748 384.87 224.401 380.452L334.339 316.979C338.852 314.373 340.703 310.813 339.894 307.425V263H292.894V277.05L193.938 219.918Z" fill="#99D3CE"/>
<path d="M166.225 219.918L166.475 220.351L166.225 219.918ZM193.938 219.918L193.688 220.351V220.351L193.938 219.918ZM75.7027 272.181H75.2027V273.047L75.9527 272.614L75.7027 272.181ZM75.7027 271.777H76.2027V271.277H75.7027V271.777ZM50.5425 271.777V271.277H50.0425V271.777H50.5425ZM50.5425 291.516H50.0425V292.016H50.5425V291.516ZM50.5486 291.516L51.0485 291.507L51.0391 291.016H50.5486V291.516ZM56.2869 299.391L56.5369 298.958L56.2869 299.391ZM196.688 380.452L196.438 380.885L196.688 380.452ZM224.401 380.452L224.651 380.885L224.401 380.452ZM334.339 316.979L334.589 317.412L334.339 316.979ZM339.894 307.425H339.394V307.483L339.408 307.541L339.894 307.425ZM339.894 263H340.394V262.5H339.894V263ZM292.894 263V262.5H292.394V263H292.894ZM292.894 277.05L292.644 277.483L293.394 277.916V277.05H292.894ZM166.475 220.351C170.208 218.196 175.131 217.104 180.082 217.104C185.032 217.104 189.955 218.196 193.688 220.351L194.188 219.485C190.268 217.222 185.161 216.104 180.082 216.104C175.002 216.104 169.895 217.222 165.975 219.485L166.475 220.351ZM75.9527 272.614L166.475 220.351L165.975 219.485L75.4527 271.748L75.9527 272.614ZM76.2027 272.181V271.777H75.2027V272.181H76.2027ZM75.7027 271.277H50.5425V272.277H75.7027V271.277ZM50.0425 271.777V291.516H51.0425V271.777H50.0425ZM50.5425 292.016H50.5486V291.016H50.5425V292.016ZM56.5369 298.958C52.8556 296.832 51.0984 294.124 51.0485 291.507L50.0487 291.526C50.1076 294.616 52.1759 297.595 56.0369 299.824L56.5369 298.958ZM196.938 380.019L56.5369 298.958L56.0369 299.824L196.438 380.885L196.938 380.019ZM224.151 380.019C220.419 382.173 215.495 383.265 210.545 383.265C205.594 383.265 200.671 382.173 196.938 380.019L196.438 380.885C200.358 383.148 205.465 384.265 210.545 384.265C215.624 384.265 220.731 383.148 224.651 380.885L224.151 380.019ZM334.089 316.546L224.151 380.019L224.651 380.885L334.589 317.412L334.089 316.546ZM339.408 307.541C340.146 310.634 338.493 314.003 334.089 316.546L334.589 317.412C339.21 314.744 341.26 310.993 340.38 307.308L339.408 307.541ZM340.394 307.425V263H339.394V307.425H340.394ZM339.894 262.5H292.894V263.5H339.894V262.5ZM292.394 263V277.05H293.394V263H292.394ZM193.688 220.351L292.644 277.483L293.144 276.617L194.188 219.485L193.688 220.351Z" fill="#012135"/>
<mask id="mask0_1713_70930" style="mask-type:alpha" maskUnits="userSpaceOnUse" x="50" y="216" width="291" height="169">
<path fill-rule="evenodd" clip-rule="evenodd" d="M193.938 219.918C186.285 215.5 173.878 215.5 166.225 219.918L75.7027 272.181V271.777H50.5425V291.516H50.5486C50.603 294.37 52.5157 297.214 56.2869 299.391L196.688 380.452C204.341 384.87 216.748 384.87 224.401 380.452L334.339 316.979C338.852 314.373 340.703 310.813 339.894 307.425V263H292.894V277.05L193.938 219.918Z" fill="#083A5A"/>
<path d="M166.225 219.918L166.475 220.351L166.225 219.918ZM193.938 219.918L193.688 220.351V220.351L193.938 219.918ZM75.7027 272.181H75.2027V273.047L75.9527 272.614L75.7027 272.181ZM75.7027 271.777H76.2027V271.277H75.7027V271.777ZM50.5425 271.777V271.277H50.0425V271.777H50.5425ZM50.5425 291.516H50.0425V292.016H50.5425V291.516ZM50.5486 291.516L51.0485 291.507L51.0391 291.016H50.5486V291.516ZM56.2869 299.391L56.5369 298.958L56.2869 299.391ZM196.688 380.452L196.438 380.885L196.688 380.452ZM224.401 380.452L224.651 380.885L224.401 380.452ZM334.339 316.979L334.589 317.412L334.339 316.979ZM339.894 307.425H339.394V307.483L339.408 307.541L339.894 307.425ZM339.894 263H340.394V262.5H339.894V263ZM292.894 263V262.5H292.394V263H292.894ZM292.894 277.05L292.644 277.483L293.394 277.916V277.05H292.894ZM166.475 220.351C170.208 218.196 175.131 217.104 180.082 217.104C185.032 217.104 189.955 218.196 193.688 220.351L194.188 219.485C190.268 217.222 185.161 216.104 180.082 216.104C175.002 216.104 169.895 217.222 165.975 219.485L166.475 220.351ZM75.9527 272.614L166.475 220.351L165.975 219.485L75.4527 271.748L75.9527 272.614ZM76.2027 272.181V271.777H75.2027V272.181H76.2027ZM75.7027 271.277H50.5425V272.277H75.7027V271.277ZM50.0425 271.777V291.516H51.0425V271.777H50.0425ZM50.5425 292.016H50.5486V291.016H50.5425V292.016ZM56.5369 298.958C52.8556 296.832 51.0984 294.124 51.0485 291.507L50.0487 291.526C50.1076 294.616 52.1759 297.595 56.0369 299.824L56.5369 298.958ZM196.938 380.019L56.5369 298.958L56.0369 299.824L196.438 380.885L196.938 380.019ZM224.151 380.019C220.419 382.173 215.495 383.265 210.545 383.265C205.594 383.265 200.671 382.173 196.938 380.019L196.438 380.885C200.358 383.148 205.465 384.265 210.545 384.265C215.624 384.265 220.731 383.148 224.651 380.885L224.151 380.019ZM334.089 316.546L224.151 380.019L224.651 380.885L334.589 317.412L334.089 316.546ZM339.408 307.541C340.146 310.634 338.493 314.003 334.089 316.546L334.589 317.412C339.21 314.744 341.26 310.993 340.38 307.308L339.408 307.541ZM340.394 307.425V263H339.394V307.425H340.394ZM339.894 262.5H292.894V263.5H339.894V262.5ZM292.394 263V277.05H293.394V263H292.394ZM193.688 220.351L292.644 277.483L293.144 276.617L194.188 219.485L193.688 220.351Z" fill="#012135"/>
</mask>
<g mask="url(#mask0_1713_70930)">
<rect x="207.894" y="195.999" width="191" height="237" fill="#083A5A"/>
<rect x="204.894" y="196.249" width="1" height="236.75" fill="#083A5A"/>
</g>
<path d="M166.225 219.919L166.475 220.352L166.225 219.919ZM193.938 219.919L193.688 220.352V220.352L193.938 219.919ZM75.7027 272.182H75.2027V273.048L75.9527 272.615L75.7027 272.182ZM75.7027 271.779H76.2027V271.279H75.7027V271.779ZM50.5425 271.779V271.279H50.0425V271.779H50.5425ZM50.5425 291.517H50.0425V292.017H50.5425V291.517ZM50.5486 291.517L51.0485 291.508L51.0391 291.017H50.5486V291.517ZM56.2869 299.392L56.5369 298.959L56.2869 299.392ZM196.688 380.453L196.438 380.886L196.688 380.453ZM224.401 380.453L224.651 380.886L224.401 380.453ZM334.339 316.98L334.589 317.413L334.339 316.98ZM339.894 307.426H339.394V307.485L339.408 307.542L339.894 307.426ZM339.894 263.001H340.394V262.501H339.894V263.001ZM292.894 263.001V262.501H292.394V263.001H292.894ZM292.894 277.052L292.644 277.485L293.394 277.918V277.052H292.894ZM166.475 220.352C170.208 218.197 175.131 217.105 180.082 217.105C185.032 217.105 189.955 218.197 193.688 220.352L194.188 219.486C190.268 217.223 185.161 216.105 180.082 216.105C175.002 216.105 169.895 217.223 165.975 219.486L166.475 220.352ZM75.9527 272.615L166.475 220.352L165.975 219.486L75.4527 271.749L75.9527 272.615ZM76.2027 272.182V271.779H75.2027V272.182H76.2027ZM75.7027 271.279H50.5425V272.279H75.7027V271.279ZM50.0425 271.779V291.517H51.0425V271.779H50.0425ZM50.5425 292.017H50.5486V291.017H50.5425V292.017ZM56.5369 298.959C52.8556 296.834 51.0984 294.125 51.0485 291.508L50.0487 291.527C50.1076 294.617 52.1759 297.596 56.0369 299.825L56.5369 298.959ZM196.938 380.02L56.5369 298.959L56.0369 299.825L196.438 380.886L196.938 380.02ZM224.151 380.02C220.419 382.175 215.495 383.266 210.545 383.266C205.594 383.266 200.671 382.175 196.938 380.02L196.438 380.886C200.358 383.149 205.465 384.266 210.545 384.266C215.624 384.266 220.731 383.149 224.651 380.886L224.151 380.02ZM334.089 316.547L224.151 380.02L224.651 380.886L334.589 317.413L334.089 316.547ZM339.408 307.542C340.146 310.635 338.493 314.004 334.089 316.547L334.589 317.413C339.21 314.745 341.26 310.994 340.38 307.31L339.408 307.542ZM340.394 307.426V263.001H339.394V307.426H340.394ZM339.894 262.501H292.894V263.501H339.894V262.501ZM292.394 263.001V277.052H293.394V263.001H292.394ZM193.688 220.352L292.644 277.485L293.144 276.618L194.188 219.486L193.688 220.352Z" fill="#012135"/>
<path d="M166.227 176.712C173.88 172.294 186.287 172.294 193.94 176.712L334.341 257.773C341.994 262.191 341.994 269.355 334.341 273.773L262.347 315.339L242.804 349.918L74.6901 252.858L94.2326 218.278L166.227 176.712Z" fill="#CDFFFA"/>
<path d="M74.6901 252.858L242.804 349.918L224.396 360.546C216.743 364.965 204.336 364.965 196.683 360.546L56.282 279.486C48.6293 275.067 48.6293 267.904 56.282 263.486L74.6901 252.858Z" fill="#CDFFFA"/>
<path d="M262.347 315.339L334.341 273.773C341.994 269.355 341.994 262.191 334.341 257.773L193.94 176.712C186.287 172.294 173.88 172.294 166.227 176.712L94.2326 218.278M262.347 315.339L242.804 349.918M262.347 315.339L94.2326 218.278M94.2326 218.278L74.6901 252.858M74.6901 252.858L56.282 263.486C48.6293 267.904 48.6293 275.067 56.282 279.486L196.683 360.546C204.336 364.965 216.743 364.965 224.396 360.546L242.804 349.918M74.6901 252.858L242.804 349.918" stroke="#012135"/>
<path d="M75.2222 252.922L94.4136 218.957L261.685 315.526L242.619 349.251L75.2222 252.922Z" fill="#CDFFFA" stroke="#012135"/>
<rect width="119.168" height="36.0681" transform="matrix(0.866025 0.5 -0.866025 0.5 93.3638 264.305)" fill="#083A5A"/>
<rect width="146.05" height="73.5702" rx="8" transform="matrix(0.866025 0.5 -0.866025 0.5 179.354 179.852)" fill="#CDFFFA" stroke="#012135"/>
<path d="M184.055 194.035C187.881 191.826 194.085 191.826 197.911 194.035L294.185 249.619L248.428 276.037C244.602 278.246 238.398 278.246 234.572 276.037L145.226 224.453C141.4 222.244 141.4 218.662 145.226 216.453L184.055 194.035Z" fill="#083A5A"/>
<rect width="119.168" height="11.2919" transform="matrix(0.866025 0.5 -0.866025 0.5 199.983 180.035)" fill="#083A5A"/>
<path d="M209.77 317.779L125.357 269.218C123.446 268.119 122.811 265.666 123.947 263.778C125.053 261.94 127.427 261.327 129.285 262.398L213.647 311.048C215.509 312.121 216.145 314.502 215.067 316.361C213.993 318.212 211.625 318.846 209.77 317.779Z" fill="#083A5A"/>
<path fill-rule="evenodd" clip-rule="evenodd" d="M186.27 183.617C182.444 181.408 176.24 181.408 172.414 183.617L122.557 212.402C119.817 213.984 119.039 216.27 120.223 218.252C120.693 217.466 121.471 216.729 122.557 216.102L172.414 187.317C176.24 185.107 182.444 185.107 186.27 187.317L298.897 252.341C299.983 252.969 300.761 253.706 301.231 254.492C302.415 252.51 301.637 250.224 298.897 248.642L186.27 183.617Z" fill="#083A5A"/>
<path d="M172.414 183.617L172.164 183.184V183.184L172.414 183.617ZM186.27 183.617L186.02 184.05L186.27 183.617ZM122.557 212.402L122.307 211.969L122.557 212.402ZM120.223 218.252L119.794 218.509L120.223 219.227L120.652 218.509L120.223 218.252ZM122.557 216.102L122.307 215.669H122.307L122.557 216.102ZM172.414 187.317L172.164 186.884L172.414 187.317ZM186.27 187.317L186.02 187.75L186.27 187.317ZM298.897 252.341L299.147 251.908L298.897 252.341ZM301.231 254.492L300.801 254.748L301.231 255.466L301.66 254.748L301.231 254.492ZM298.897 248.642L298.647 249.075L298.897 248.642ZM172.664 184.05C174.483 183 176.899 182.46 179.342 182.46C181.785 182.46 184.201 183 186.02 184.05L186.52 183.184C184.513 182.026 181.914 181.46 179.342 181.46C176.77 181.46 174.171 182.026 172.164 183.184L172.664 184.05ZM122.807 212.835L172.664 184.05L172.164 183.184L122.307 211.969L122.807 212.835ZM120.652 217.996C120.135 217.129 120.054 216.222 120.385 215.356C120.722 214.476 121.504 213.587 122.807 212.835L122.307 211.969C120.869 212.8 119.893 213.845 119.451 214.999C119.005 216.166 119.127 217.393 119.794 218.509L120.652 217.996ZM120.652 218.509C121.068 217.813 121.776 217.13 122.807 216.535L122.307 215.669C121.165 216.328 120.317 217.12 119.794 217.996L120.652 218.509ZM122.807 216.535L172.664 187.75L172.164 186.884L122.307 215.669L122.807 216.535ZM172.664 187.75C174.483 186.699 176.899 186.16 179.342 186.16C181.785 186.16 184.201 186.699 186.02 187.75L186.52 186.884C184.513 185.725 181.914 185.16 179.342 185.16C176.77 185.16 174.171 185.725 172.164 186.884L172.664 187.75ZM186.02 187.75L298.647 252.774L299.147 251.908L186.52 186.884L186.02 187.75ZM298.647 252.774C299.678 253.37 300.385 254.053 300.801 254.748L301.66 254.235C301.137 253.36 300.288 252.567 299.147 251.908L298.647 252.774ZM298.647 249.075C299.949 249.827 300.732 250.716 301.068 251.596C301.4 252.462 301.319 253.369 300.801 254.235L301.66 254.748C302.326 253.633 302.449 252.406 302.003 251.239C301.561 250.085 300.585 249.039 299.147 248.209L298.647 249.075ZM186.02 184.05L298.647 249.075L299.147 248.209L186.52 183.184L186.02 184.05Z" fill="#012135"/>
<path d="M116.012 354.556L135.898 366.006L144.268 356.311L148.041 322.96L142.929 304.945L108.847 321.864L116.012 354.556Z" fill="#083A5A" stroke="#012135"/>
<path d="M185.633 312.428C192.844 315.473 205.115 314.703 210.737 313.201L132.595 268.116C126.974 269.618 114.837 270.26 107.625 267.215C101.832 264.769 93.7215 255.113 82.3924 259.491C79.8693 260.466 74.9535 263.06 73.4291 272.631L62.373 266.273C60.4293 265.268 58.6026 265.086 56.1298 265.67C50.0577 267.106 38.2352 273.91 38.1064 305.579C38.0034 330.915 14.8397 350.086 3.12451 356.48L80.8396 401.644C92.5548 395.25 116.011 376.128 116.114 350.792C116.243 319.123 128.344 313.201 134.137 310.883C139.931 308.566 151.774 314.231 139.158 342.424C126.542 370.618 139.416 367.786 143.793 364.954C148.17 362.121 155.508 355.427 152.289 337.403C147.607 311.182 156.648 306.153 160.4 304.704C171.729 300.326 179.839 309.982 185.633 312.428Z" fill="#CDFFFA" stroke="#012135"/>
<path d="M140.103 311.318L62.3433 266.254" stroke="#012135"/>
<path d="M252.336 295.748L252.335 295.765C252.302 296.255 252.602 296.861 253.497 297.378L253.247 297.811L253.497 297.378L260.105 301.193C260.105 301.193 260.105 301.193 260.105 301.193C260.954 301.683 262.098 301.942 263.269 301.942C264.44 301.942 265.585 301.683 266.433 301.193L252.336 295.748ZM252.336 295.748V295.732V293.52H254.716H254.85L254.966 293.453L273.83 282.562L273.83 282.562C274.678 282.072 275.823 281.812 276.994 281.812C278.165 281.812 279.309 282.072 280.158 282.562L280.158 282.562L285.435 285.609L285.451 285.618L285.468 285.626L287.924 286.81V287.774V287.796L287.926 287.817C287.932 287.883 287.932 287.948 287.926 288.014L287.926 288.02L287.925 288.029C287.88 288.473 287.552 289 286.766 289.454C286.766 289.454 286.766 289.454 286.766 289.454L266.433 301.193L252.336 295.748Z" fill="#083A5A" stroke="#083A5A"/>
<path d="M263.412 286.972L263.447 286.957L263.478 286.939L273.793 280.984C275.467 280.017 278.181 280.017 279.855 280.984L286.56 284.855C288.234 285.821 288.234 287.388 286.56 288.355L276.276 294.292L265.93 298.764C264.224 299.501 261.838 299.403 260.331 298.533L253.697 294.703C251.851 293.637 252.07 291.875 254.159 290.971L263.412 286.972Z" fill="#F1843E" stroke="#083A5A"/>
<rect width="1.40846" height="8.45183" rx="0.70423" transform="matrix(0.866025 -0.5 0.866025 0.5 256.833 292.242)" fill="#083A5A"/>
<path d="M67.0622 153.201L67.0622 182.483L51.2124 191.634L51.2124 162.352L67.0622 153.201Z" fill="#083A5A" stroke="#001928" stroke-linecap="round" stroke-linejoin="round"/>
<rect width="13.403" height="13.403" transform="matrix(-0.866025 0.5 0.866025 0.5 104.033 161.25)" fill="#CDFFFA" stroke="#001928" stroke-linecap="round" stroke-linejoin="round"/>
<rect width="13.403" height="13.403" transform="matrix(-0.866025 0.5 2.20305e-08 1 115.638 167.953)" fill="#083A5A" stroke="#001928" stroke-linecap="round" stroke-linejoin="round"/>
<rect width="13.403" height="13.403" transform="matrix(-0.866025 -0.5 -2.20305e-08 1 104.033 174.652)" fill="#99D3CE" stroke="#001928" stroke-linecap="round" stroke-linejoin="round"/>
<path fill-rule="evenodd" clip-rule="evenodd" d="M51.2145 144.049L76.5741 158.691L76.5741 176.992L51.2145 162.351L51.2145 191.634L35.3647 182.483L35.3647 134.898L35.3648 134.898L51.2145 144.049Z" fill="#99D3CE" stroke="#001928" stroke-linecap="round" stroke-linejoin="round"/>
<path d="M51.2126 125.75L92.422 149.542L76.5723 158.693L35.3629 134.901L51.2126 125.75Z" fill="#CDFFFA" stroke="#001928" stroke-linecap="round" stroke-linejoin="round"/>
<path d="M76.5718 158.695L92.4215 149.544L92.4215 167.846L76.5718 176.997L76.5718 158.695Z" fill="#083A5A" stroke="#001928" stroke-linecap="round" stroke-linejoin="round"/>
<path d="M33.1175 342.147C33.7859 341.617 34.4513 341.095 35.1136 340.581C35.7107 340.923 36.3073 341.261 36.9036 341.595C36.2343 342.118 35.5694 342.644 34.9087 343.173C34.3116 342.831 33.7146 342.489 33.1175 342.147Z" fill="#083A5A"/>
<path d="M34.9087 343.173C35.5694 342.644 36.2343 342.118 36.9036 341.595C37.4998 341.929 38.0969 342.271 38.6948 342.621C38.0255 343.144 37.3563 343.666 36.6871 344.189C36.0985 343.854 35.5057 343.515 34.9087 343.173Z" fill="#083A5A"/>
<path d="M36.6871 344.189C37.3563 343.666 38.0255 343.144 38.6948 342.621C39.291 342.955 39.8838 343.294 40.4732 343.636C39.8116 344.158 39.1467 344.684 38.4783 345.215C37.882 344.88 37.285 344.538 36.6871 344.189Z" fill="#083A5A"/>
<path d="M38.4783 345.215C39.1467 344.684 39.8116 344.158 40.4732 343.636C41.0694 343.971 41.6661 344.309 42.2631 344.651C41.6016 345.173 40.9362 345.695 40.267 346.217C39.6708 345.883 39.0745 345.549 38.4783 345.215Z" fill="#083A5A"/>
<path d="M40.267 346.217C40.9362 345.695 41.6016 345.173 42.2631 344.651C42.8663 344.976 43.4659 345.306 44.0622 345.641C43.3938 346.171 42.7292 346.701 42.0685 347.23C41.4715 346.888 40.871 346.551 40.267 346.217Z" fill="#083A5A"/>
<path d="M42.0685 347.23C42.7292 346.701 43.3938 346.171 44.0622 345.641C44.6584 345.975 45.2585 346.309 45.8625 346.642C45.1933 347.165 44.5249 347.695 43.8573 348.233C43.261 347.899 42.6648 347.565 42.0685 347.23Z" fill="#083A5A"/>
<path d="M43.8573 348.233C44.5249 347.695 45.1933 347.165 45.8625 346.642C46.4587 346.976 47.0584 347.306 47.6616 347.632C46.9931 348.162 46.3247 348.693 45.6563 349.223C45.0532 348.897 44.4535 348.567 43.8573 348.233Z" fill="#083A5A"/>
<path d="M45.6563 349.223C46.3247 348.693 46.9931 348.162 47.6616 347.632C48.2578 347.966 48.8575 348.296 49.4606 348.622C48.7845 349.153 48.1088 349.688 47.4335 350.227C46.8373 349.893 46.2449 349.558 45.6563 349.223Z" fill="#083A5A"/>
<path d="M47.4335 350.227C48.1088 349.688 48.7845 349.153 49.4606 348.622C50.0484 348.949 50.6438 349.276 51.2469 349.602C50.5716 350.141 49.9002 350.679 49.2326 351.217C48.6372 350.89 48.0375 350.56 47.4335 350.227Z" fill="#083A5A"/>
<path d="M50.127 351.718C50.8014 351.172 51.4763 350.629 52.1516 350.09C52.7479 350.425 53.3471 350.751 53.9495 351.069C53.275 351.615 52.6001 352.158 51.9248 352.697C51.3294 352.37 50.7301 352.044 50.127 351.718Z" fill="#083A5A"/>
<path d="M51.9248 352.697C52.6001 352.158 53.275 351.615 53.9495 351.069C54.5526 351.394 55.1557 351.72 55.7589 352.046C55.0767 352.593 54.3984 353.14 53.7239 353.687C53.1284 353.36 52.5288 353.03 51.9248 352.697Z" fill="#083A5A"/>
<path d="M53.7239 353.687C54.3984 353.14 55.0767 352.593 55.7589 352.046C56.3535 352.365 56.9528 352.691 57.5567 353.024C56.8822 353.571 56.2039 354.118 55.5217 354.665C54.9271 354.346 54.3278 354.02 53.7239 353.687Z" fill="#083A5A"/>
<path d="M56.4161 355.166C57.0975 354.611 57.7788 354.056 58.4602 353.501C59.0556 353.828 59.6549 354.154 60.2581 354.48C59.5767 355.035 58.8953 355.59 58.2139 356.145C57.6108 355.819 57.0115 355.493 56.4161 355.166Z" fill="#083A5A"/>
<path d="M58.2139 356.145C58.8953 355.59 59.5767 355.035 60.2581 354.48C60.8604 354.798 61.4631 355.12 62.0662 355.445C61.378 356.009 60.6932 356.568 60.0118 357.123C59.4087 356.798 58.8094 356.471 58.2139 356.145Z" fill="#083A5A"/>
<path d="M60.0118 357.123C60.6932 356.568 61.378 356.009 62.0662 355.445C62.6609 355.764 63.2597 356.086 63.8629 356.412C63.1754 356.983 62.4914 357.55 61.8109 358.113C61.2077 357.787 60.608 357.458 60.0118 357.123Z" fill="#083A5A"/>
<path d="M61.8109 358.113C62.4914 357.55 63.1754 356.983 63.8629 356.412C64.4652 356.73 65.0683 357.056 65.6723 357.389C64.984 357.953 64.2962 358.52 63.6087 359.092C63.0048 358.758 62.4055 358.432 61.8109 358.113Z" fill="#083A5A"/>
<path d="M63.6087 359.092C64.2962 358.52 64.984 357.953 65.6723 357.389C66.2746 357.707 66.8769 358.025 67.4792 358.343C66.7849 358.923 66.094 359.499 65.4066 360.07C64.8034 359.744 64.2041 359.418 63.6087 359.092Z" fill="#083A5A"/>
<path d="M65.4066 360.07C66.094 359.499 66.7849 358.923 67.4792 358.343C68.0824 358.669 68.6812 358.991 69.2759 359.31C68.5815 359.89 67.8876 360.474 67.1941 361.061C66.5901 360.728 65.9943 360.397 65.4066 360.07Z" fill="#083A5A"/>
<path d="M67.1941 361.061C67.8876 360.474 68.5815 359.89 69.2759 359.31C69.879 359.636 70.4817 359.958 71.084 360.276C70.3905 360.863 69.6927 361.447 68.9907 362.028C68.3953 361.701 67.7964 361.379 67.1941 361.061Z" fill="#083A5A"/>
<path d="M68.9907 362.028C69.6927 361.447 70.3905 360.863 71.084 360.276C71.6872 360.602 72.2899 360.923 72.8922 361.241C72.1918 361.838 71.491 362.43 70.7898 363.018C70.1943 362.691 69.5947 362.361 68.9907 362.028Z" fill="#083A5A"/>
<path d="M71.6945 363.507C72.3957 362.918 73.0965 362.326 73.7969 361.73C74.4001 362.056 75.0066 362.377 75.6167 362.694C74.9086 363.291 74.2009 363.892 73.4936 364.497C72.8973 364.162 72.2976 363.832 71.6945 363.507Z" fill="#083A5A"/>
<path d="M73.4936 364.497C74.2009 363.892 74.9086 363.291 75.6167 362.694C76.2198 363.02 76.8225 363.342 77.4249 363.66C76.7176 364.265 76.006 364.866 75.2902 365.463C74.6956 365.145 74.0967 364.822 73.4936 364.497Z" fill="#083A5A"/>
<path d="M75.2902 365.463C76.006 364.866 76.7176 364.265 77.4249 363.66C78.028 363.986 78.6269 364.308 79.2215 364.627C78.515 365.239 77.8043 365.848 77.0893 366.453C76.4861 366.128 75.8864 365.798 75.2902 365.463Z" fill="#083A5A"/>
<path d="M77.0893 366.453C77.8043 365.848 78.515 365.239 79.2215 364.627C79.8315 364.944 80.4381 365.266 81.0412 365.591C80.327 366.204 79.6128 366.817 78.8987 367.431C78.2963 367.112 77.6932 366.787 77.0893 366.453Z" fill="#083A5A"/>
<path d="M79.793 367.932C80.5141 367.31 81.2313 366.689 81.9447 366.068C82.5555 366.393 83.1621 366.715 83.7644 367.033C83.0442 367.662 82.3235 368.287 81.6024 368.909C80.9993 368.583 80.3962 368.258 79.793 367.932Z" fill="#083A5A"/>
<path d="M81.6024 368.909C82.3235 368.287 83.0442 367.662 83.7644 367.033C84.3753 367.358 84.9819 367.679 85.5842 367.997C84.8562 368.627 84.1325 369.261 83.4131 369.898C82.8099 369.572 82.2064 369.242 81.6024 368.909Z" fill="#083A5A"/>
<path d="M83.4131 369.898C84.1325 369.261 84.8562 368.627 85.5842 367.997C86.1934 368.307 86.8 368.628 87.4039 368.962C86.6768 369.599 85.9458 370.238 85.2109 370.876C84.6163 370.557 84.017 370.231 83.4131 369.898Z" fill="#083A5A"/>
<path d="M86.1065 371.389C86.8397 370.735 87.5768 370.081 88.3177 369.426C88.9132 369.752 89.5159 370.074 90.1259 370.391C89.3858 371.054 88.6491 371.712 87.9159 372.366C87.3128 372.041 86.7096 371.715 86.1065 371.389Z" fill="#083A5A"/>
<path d="M87.9159 372.366C88.6491 371.712 89.3858 371.054 90.1259 370.391C90.7299 370.725 91.3369 371.05 91.9469 371.367C91.2068 372.03 90.4667 372.692 89.7265 373.355C89.1234 373.029 88.5199 372.7 87.9159 372.366Z" fill="#083A5A"/>
<path d="M89.7265 373.355C90.4667 372.692 91.2068 372.03 91.9469 371.367C92.5569 371.685 93.1635 372.006 93.7666 372.332C93.0204 373.011 92.2738 373.685 91.5268 374.357C90.9306 374.022 90.3305 373.688 89.7265 373.355Z" fill="#083A5A"/>
<path d="M91.5268 374.357C92.2738 373.685 93.0204 373.011 93.7666 372.332C94.3766 372.649 94.9836 372.974 95.5876 373.308C94.8345 373.995 94.0849 374.678 93.3387 375.357C92.7347 375.023 92.1308 374.69 91.5268 374.357Z" fill="#083A5A"/>
<path d="M93.3387 375.357C94.0849 374.678 94.8345 373.995 95.5876 373.308C96.1899 373.626 96.7969 373.951 97.4085 374.284C96.6494 374.987 95.8894 375.683 95.1286 376.371C94.5316 376.029 93.9349 375.691 93.3387 375.357Z" fill="#083A5A"/>
<path d="M95.1286 376.371C95.8894 375.683 96.6494 374.987 97.4085 374.284C98.0117 374.609 98.611 374.936 99.2064 375.262C98.4412 375.982 97.6786 376.69 96.9186 377.385C96.3215 377.043 95.7249 376.705 95.1286 376.371Z" fill="#083A5A"/>
<path d="M28.3234 345.985C28.9909 345.447 29.6551 344.913 30.3158 344.383C30.912 344.718 31.5091 345.06 32.107 345.409C31.4463 345.939 30.7817 346.469 30.1133 346.999C29.5171 346.665 28.9204 346.327 28.3234 345.985Z" fill="#083A5A"/>
<path d="M30.1133 346.999C30.7817 346.469 31.4463 345.939 32.107 345.409C32.7032 345.744 33.2999 346.082 33.8969 346.424C33.2362 346.953 32.5721 347.487 31.9045 348.025C31.3066 347.675 30.7096 347.333 30.1133 346.999Z" fill="#083A5A"/>
<path d="M32.7989 348.526C33.4665 347.988 34.1306 347.454 34.7913 346.925C35.3876 347.259 35.9842 347.597 36.5813 347.939C35.9129 348.47 35.2445 349 34.576 349.53C33.9798 349.196 33.3874 348.861 32.7989 348.526Z" fill="#083A5A"/>
<path d="M34.576 349.53C35.2445 349 35.9129 348.47 36.5813 347.939C37.1698 348.274 37.7626 348.613 38.3597 348.955C37.699 349.484 37.0344 350.014 36.366 350.544C35.7698 350.21 35.1731 349.872 34.576 349.53Z" fill="#083A5A"/>
<path d="M37.2604 351.046C37.9288 350.516 38.5972 349.985 39.2656 349.455C39.8627 349.797 40.4589 350.131 41.0543 350.458C40.3867 350.996 39.7187 351.53 39.0503 352.06C38.4541 351.726 37.8574 351.388 37.2604 351.046Z" fill="#083A5A"/>
<path d="M39.0503 352.06C39.7187 351.53 40.3867 350.996 41.0543 350.458C41.6506 350.792 42.2472 351.13 42.8443 351.472C42.1759 352.002 41.5075 352.533 40.8391 353.063C40.2436 352.736 39.6474 352.402 39.0503 352.06Z" fill="#083A5A"/>
<path d="M40.8391 353.063C41.5075 352.533 42.1759 352.002 42.8443 351.472C43.4397 351.798 44.036 352.133 44.633 352.475C43.9646 353.005 43.2966 353.539 42.629 354.077C42.0328 353.743 41.4361 353.405 40.8391 353.063Z" fill="#083A5A"/>
<path d="M42.629 354.077C43.2966 353.539 43.9646 353.005 44.633 352.475C45.2293 352.809 45.8255 353.143 46.4218 353.477C45.7465 354.016 45.0746 354.551 44.4062 355.081C43.8092 354.739 43.2168 354.405 42.629 354.077Z" fill="#083A5A"/>
<path d="M45.3006 355.582C45.9682 355.044 46.6362 354.51 47.3046 353.98C47.9 354.307 48.4963 354.641 49.0933 354.983C48.4257 355.521 47.7539 356.055 47.0778 356.586C46.49 356.259 45.8976 355.924 45.3006 355.582Z" fill="#083A5A"/>
<path d="M47.0778 356.586C47.7539 356.055 48.4257 355.521 49.0933 354.983C49.6887 355.309 50.2846 355.64 50.8808 355.974C50.2141 356.52 49.543 357.062 48.8677 357.601C48.2715 357.266 47.6748 356.928 47.0778 356.586Z" fill="#083A5A"/>
<path d="M48.8677 357.601C49.543 357.062 50.2141 356.52 50.8808 355.974C51.4848 356.307 52.0849 356.641 52.6811 356.975C52.0066 357.522 51.3318 358.065 50.6565 358.603C50.0602 358.269 49.464 357.935 48.8677 357.601Z" fill="#083A5A"/>
<path d="M50.6565 358.603C51.3318 358.065 52.0066 357.522 52.6811 356.975C53.2766 357.302 53.8724 357.632 54.4686 357.967C53.7873 358.522 53.1093 359.072 52.4349 359.619C51.8455 359.276 51.2527 358.938 50.6565 358.603Z" fill="#083A5A"/>
<path d="M52.4349 359.619C53.1093 359.072 53.7873 358.522 54.4686 357.967C55.0649 358.301 55.6611 358.635 56.2574 358.969C55.5675 359.517 54.8857 360.069 54.212 360.623C53.6158 360.289 53.0234 359.954 52.4349 359.619Z" fill="#083A5A"/>
<path d="M54.212 360.623C54.8857 360.069 55.5675 359.517 56.2574 358.969C56.8459 359.304 57.4379 359.635 58.0333 359.962C57.352 360.517 56.6706 361.072 55.9892 361.627C55.393 361.293 54.8006 360.958 54.212 360.623Z" fill="#083A5A"/>
<path d="M55.9892 361.627C56.6706 361.072 57.352 360.517 58.0333 359.962C58.6304 360.304 59.2266 360.638 59.8221 360.964C59.1415 361.527 58.4567 362.087 57.7676 362.642C57.1791 362.307 56.5863 361.969 55.9892 361.627Z" fill="#083A5A"/>
<path d="M58.6632 363.155C59.3438 362.593 60.0282 362.029 60.7164 361.466C61.3127 361.8 61.9085 362.13 62.504 362.457C61.8165 363.028 61.1291 363.6 60.4416 364.171C59.8523 363.828 59.2595 363.49 58.6632 363.155Z" fill="#083A5A"/>
<path d="M60.4416 364.171C61.1291 363.6 61.8165 363.028 62.504 362.457C63.101 362.799 63.6973 363.133 64.2927 363.46C63.6053 364.031 62.9135 364.599 62.2176 365.163C61.6299 364.836 61.0379 364.505 60.4416 364.171Z" fill="#083A5A"/>
<path d="M62.2176 365.163C62.9135 364.599 63.6053 364.031 64.2927 363.46C64.8889 363.794 65.4852 364.128 66.0814 364.462C65.3794 365.043 64.6847 365.619 63.9972 366.19C63.401 365.856 62.8078 365.514 62.2176 365.163Z" fill="#083A5A"/>
<path d="M64.8812 366.704C65.5748 366.117 66.2691 365.537 66.9642 364.965C67.5613 365.307 68.1576 365.641 68.753 365.968C68.051 366.548 67.3532 367.132 66.6597 367.72C66.0703 367.377 65.4775 367.039 64.8812 366.704Z" fill="#083A5A"/>
<path d="M66.6597 367.72C67.3532 367.132 68.051 366.548 68.753 365.968C69.35 366.31 69.9463 366.644 70.5417 366.971C69.8405 367.559 69.1427 368.143 68.4484 368.723C67.8521 368.388 67.2559 368.054 66.6597 367.72Z" fill="#083A5A"/>
<path d="M68.4484 368.723C69.1427 368.143 69.8405 367.559 70.5417 366.971C71.138 367.305 71.7346 367.643 72.3317 367.985C71.6305 368.573 70.9292 369.161 70.228 369.75C69.6318 369.415 69.0386 369.073 68.4484 368.723Z" fill="#083A5A"/>
<path d="M70.228 369.75C70.9292 369.161 71.6305 368.573 72.3317 367.985C72.9271 368.311 73.5234 368.646 74.1204 368.988C73.4123 369.584 72.7076 370.177 72.0064 370.765C71.4102 370.431 70.8174 370.092 70.228 369.75Z" fill="#083A5A"/>
<path d="M72.0064 370.765C72.7076 370.177 73.4123 369.584 74.1204 368.988C74.7167 369.322 75.3133 369.66 75.9104 370.002C75.1946 370.599 74.4826 371.197 73.7745 371.794C73.1851 371.451 72.5958 371.108 72.0064 370.765Z" fill="#083A5A"/>
<path d="M73.7745 371.794C74.4826 371.197 75.1946 370.599 75.9104 370.002C76.4981 370.329 77.0939 370.66 77.6979 370.993C76.9837 371.606 76.273 372.215 75.5657 372.819C74.9678 372.47 74.3707 372.128 73.7745 371.794Z" fill="#083A5A"/>
<path d="M75.5657 372.819C76.273 372.215 76.9837 371.606 77.6979 370.993C78.295 371.335 78.8916 371.673 79.4879 372.007C78.7737 372.62 78.0595 373.233 77.3453 373.846C76.7474 373.497 76.1542 373.154 75.5657 372.819Z" fill="#083A5A"/>
<path d="M77.3453 373.846C78.0595 373.233 78.7737 372.62 79.4879 372.007C80.0849 372.349 80.6816 372.687 81.2778 373.022C80.5559 373.635 79.8379 374.249 79.1237 374.862C78.5352 374.527 77.9424 374.188 77.3453 373.846Z" fill="#083A5A"/>
<path d="M79.1237 374.862C79.8379 374.249 80.5559 373.635 81.2778 373.022C81.8749 373.364 82.4715 373.702 83.0678 374.036C82.3467 374.657 81.6295 375.279 80.9161 375.899C80.319 375.557 79.7216 375.212 79.1237 374.862Z" fill="#083A5A"/>
<path d="M23.4928 349.919C24.1664 349.365 24.8366 348.815 25.5034 348.269C26.0997 348.604 26.6998 348.938 27.3037 349.271C26.6292 349.818 25.9586 350.364 25.2918 350.909C24.6956 350.575 24.0959 350.245 23.4928 349.919Z" fill="#083A5A"/>
<path d="M25.2918 350.909C25.9586 350.364 26.6292 349.818 27.3037 349.271C27.9 349.605 28.4962 349.939 29.0925 350.274C28.4249 350.812 27.7581 351.357 27.0921 351.911C26.4959 351.577 25.8958 351.243 25.2918 350.909Z" fill="#083A5A"/>
<path d="M27.0921 351.911C27.7581 351.357 28.4249 350.812 29.0925 350.274C29.6895 350.616 30.2858 350.95 30.8812 351.276C30.2221 351.821 29.5588 352.363 28.8912 352.901C28.2872 352.567 27.6876 352.237 27.0921 351.911Z" fill="#083A5A"/>
<path d="M28.8912 352.901C29.5588 352.363 30.2221 351.821 30.8812 351.276C31.486 351.618 32.0865 351.955 32.6827 352.29C32.0151 352.828 31.3475 353.366 30.6799 353.904C30.0837 353.569 29.4874 353.235 28.8912 352.901Z" fill="#083A5A"/>
<path d="M30.6799 353.904C31.3475 353.366 32.0151 352.828 32.6827 352.29C33.279 352.624 33.8713 352.958 34.4599 353.293C33.7923 353.831 33.1247 354.37 32.4571 354.908C31.8609 354.573 31.2685 354.239 30.6799 353.904Z" fill="#083A5A"/>
<path d="M32.4571 354.908C33.1247 354.37 33.7923 353.831 34.4599 353.293C35.0561 353.628 35.6528 353.966 36.2498 354.308C35.5814 354.838 34.9134 355.372 34.2458 355.91C33.6496 355.576 33.0534 355.242 32.4571 354.908Z" fill="#083A5A"/>
<path d="M34.2458 355.91C34.9134 355.372 35.5814 354.838 36.2498 354.308C36.8461 354.642 37.4423 354.976 38.0386 355.31C37.371 355.849 36.703 356.383 36.0346 356.913C35.4383 356.579 34.8421 356.245 34.2458 355.91Z" fill="#083A5A"/>
<path d="M36.0346 356.913C36.703 356.383 37.371 355.849 38.0386 355.31C38.6348 355.645 39.2272 355.979 39.8158 356.314C39.1567 356.859 38.493 357.397 37.8245 357.927C37.2275 357.585 36.6308 357.247 36.0346 356.913Z" fill="#083A5A"/>
<path d="M37.8245 357.927C38.493 357.397 39.1567 356.859 39.8158 356.314C40.4128 356.656 41.0095 356.994 41.6057 357.329C40.9373 357.859 40.2697 358.397 39.6029 358.943C39.0136 358.6 38.4208 358.262 37.8245 357.927Z" fill="#083A5A"/>
<path d="M39.6029 358.943C40.2697 358.397 40.9373 357.859 41.6057 357.329C42.2028 357.671 42.7956 358.009 43.3841 358.344C42.708 358.875 42.04 359.41 41.3801 359.947C40.7839 359.613 40.1915 359.278 39.6029 358.943Z" fill="#083A5A"/>
<path d="M42.2642 360.461C42.9318 359.923 43.5998 359.389 44.2682 358.858C44.8567 359.193 45.4491 359.528 46.0453 359.862C45.3786 360.408 44.711 360.946 44.0426 361.476C43.4455 361.134 42.8527 360.796 42.2642 360.461Z" fill="#083A5A"/>
<path d="M44.0426 361.476C44.711 360.946 45.3786 360.408 46.0453 359.862C46.6347 360.205 47.2275 360.544 47.8238 360.878C47.1562 361.416 46.4851 361.958 45.8106 362.505C45.2213 362.162 44.6319 361.819 44.0426 361.476Z" fill="#083A5A"/>
<path d="M45.8106 362.505C46.4851 361.958 47.1562 361.416 47.8238 360.878C48.4131 361.221 49.0059 361.559 49.6022 361.893C48.9277 362.44 48.2566 362.982 47.589 363.52C46.992 363.178 46.3992 362.84 45.8106 362.505Z" fill="#083A5A"/>
<path d="M48.4731 364.034C49.1407 363.496 49.8121 362.958 50.4874 362.419C51.076 362.754 51.6683 363.089 52.2646 363.423C51.5909 363.977 50.913 364.528 50.2308 365.075C49.6483 364.724 49.0624 364.377 48.4731 364.034Z" fill="#083A5A"/>
<path d="M50.2308 365.075C50.913 364.528 51.5909 363.977 52.2646 363.423C52.8548 363.773 53.4403 364.117 54.0211 364.453C53.3466 364.999 52.6726 365.549 51.9989 366.104C51.4087 365.753 50.8194 365.41 50.2308 365.075Z" fill="#083A5A"/>
<path d="M52.8714 366.619C53.5535 366.072 54.2319 365.525 54.9064 364.978C55.4949 365.313 56.0843 365.656 56.6744 366.007C56 366.553 55.322 367.104 54.6407 367.659C54.0505 367.308 53.4607 366.962 52.8714 366.619Z" fill="#083A5A"/>
<path d="M54.6407 367.659C55.322 367.104 56 366.553 56.6744 366.007C57.2707 366.341 57.8635 366.679 58.4528 367.022C57.7646 367.586 57.0798 368.145 56.3984 368.7C55.8159 368.349 55.23 368.002 54.6407 367.659Z" fill="#083A5A"/>
<path d="M56.3984 368.7C57.0798 368.145 57.7646 367.586 58.4528 367.022C59.043 367.373 59.6324 367.715 60.2209 368.05C59.5326 368.614 58.8482 369.177 58.1677 369.74C57.5775 369.389 56.9877 369.043 56.3984 368.7Z" fill="#083A5A"/>
<path d="M58.1677 369.74C58.8482 369.177 59.5326 368.614 60.2209 368.05C60.8111 368.401 61.4008 368.747 61.9902 369.09C61.3019 369.654 60.6098 370.218 59.9139 370.782C59.3322 370.439 58.7501 370.091 58.1677 369.74Z" fill="#083A5A"/>
<path d="M59.9139 370.782C60.6098 370.218 61.3019 369.654 61.9902 369.09C62.5804 369.441 63.1663 369.788 63.7479 370.131C63.052 370.696 62.3603 371.263 61.6728 371.835C61.0826 371.484 60.4963 371.133 59.9139 370.782Z" fill="#083A5A"/>
<path d="M61.6728 371.835C62.3603 371.263 63.052 370.696 63.7479 370.131C64.3365 370.466 64.9262 370.813 65.5172 371.171C64.8221 371.743 64.1269 372.315 63.4318 372.887C62.8493 372.536 62.263 372.185 61.6728 371.835Z" fill="#083A5A"/>
<path d="M64.317 373.413C65.0114 372.833 65.7057 372.253 66.4 371.674C66.991 372.032 67.5812 372.382 68.1706 372.725C67.4677 373.298 66.7691 373.874 66.0748 374.454C65.4854 374.111 64.8995 373.764 64.317 373.413Z" fill="#083A5A"/>
<path d="M66.0748 374.454C66.7691 373.874 67.4677 373.298 68.1706 372.725C68.7599 373.068 69.3497 373.414 69.9398 373.765C69.2378 374.346 68.5358 374.926 67.8337 375.507C67.2444 375.164 66.6581 374.813 66.0748 374.454Z" fill="#083A5A"/>
<path d="M68.7202 376.044C69.4214 375.456 70.1227 374.867 70.8239 374.279C71.4141 374.63 72.0038 374.976 72.5932 375.319C71.8774 375.917 71.1692 376.513 70.4688 377.109C69.8778 376.751 69.295 376.396 68.7202 376.044Z" fill="#083A5A"/>
<path d="M70.4688 377.109C71.1692 376.513 71.8774 375.917 72.5932 375.319C73.1765 375.678 73.7628 376.029 74.3521 376.372C73.644 376.968 72.9393 377.561 72.2381 378.149C71.648 377.799 71.0582 377.452 70.4688 377.109Z" fill="#083A5A"/>
<path d="M72.2381 378.149C72.9393 377.561 73.644 376.968 74.3521 376.372C74.9415 376.714 75.5317 377.065 76.1226 377.423C75.4145 378.02 74.7064 378.617 73.9983 379.213C73.4081 378.863 72.8214 378.508 72.2381 378.149Z" fill="#083A5A"/>
<path d="M73.9983 379.213C74.7064 378.617 75.4145 378.02 76.1226 377.423C76.712 377.766 77.3022 378.116 77.8932 378.474C77.1859 379.079 76.4743 379.68 75.7585 380.278C75.176 379.926 74.5893 379.572 73.9983 379.213Z" fill="#083A5A"/>
<path d="M75.7585 380.278C76.4743 379.68 77.1859 379.079 77.8932 378.474C78.491 378.824 79.0851 379.174 79.6752 379.525C78.961 380.138 78.246 380.743 77.5302 381.341C76.9392 380.982 76.3487 380.628 75.7585 380.278Z" fill="#083A5A"/>
<path d="M77.5302 381.341C78.246 380.743 78.961 380.138 79.6752 379.525C80.2654 379.875 80.8556 380.225 81.4457 380.576C80.7247 381.197 80.0028 381.811 79.2801 382.418C78.7037 382.05 78.1204 381.691 77.5302 381.341Z" fill="#083A5A"/>
<path d="M79.2801 382.418C80.0028 381.811 80.7247 381.197 81.4457 380.576C82.0367 380.934 82.6235 381.289 83.2059 381.64C82.484 382.254 81.7625 382.872 81.0415 383.493C80.4574 383.127 79.8702 382.768 79.2801 382.418Z" fill="#083A5A"/>
<path d="M18.6282 353.975C19.3148 353.396 19.9941 352.821 20.6662 352.252C21.2701 352.585 21.8694 352.911 22.464 353.23C21.7912 353.792 21.1187 354.358 20.4467 354.927C19.8435 354.602 19.2374 354.284 18.6282 353.975Z" fill="#083A5A"/>
<path d="M20.4467 354.927C21.1187 354.358 21.7912 353.792 22.464 353.23C23.068 353.563 23.6711 353.889 24.2734 354.207C23.5997 354.761 22.9303 355.319 22.2652 355.88C21.6552 355.563 21.049 355.245 20.4467 354.927Z" fill="#083A5A"/>
<path d="M22.2652 355.88C22.9303 355.319 23.5997 354.761 24.2734 354.207C24.8765 354.533 25.4762 354.863 26.0725 355.197C25.4057 355.743 24.7393 356.292 24.0734 356.846C23.4711 356.528 22.8683 356.206 22.2652 355.88Z" fill="#083A5A"/>
<path d="M24.0734 356.846C24.7393 356.292 25.4057 355.743 26.0725 355.197C26.6756 355.523 27.2753 355.853 27.8716 356.187C27.204 356.725 26.5368 357.267 25.87 357.813C25.2677 357.495 24.6688 357.172 24.0734 356.846Z" fill="#083A5A"/>
<path d="M25.87 357.813C26.5368 357.267 27.204 356.725 27.8716 356.187C28.4747 356.513 29.0744 356.843 29.6706 357.177C29.003 357.715 28.3354 358.253 27.6678 358.791C27.0724 358.465 26.4731 358.138 25.87 357.813Z" fill="#083A5A"/>
<path d="M27.6678 358.791C28.3354 358.253 29.003 357.715 29.6706 357.177C30.2661 357.504 30.8615 357.83 31.4569 358.157C30.7901 358.702 30.123 359.244 29.4554 359.782C28.8591 359.448 28.2633 359.118 27.6678 358.791Z" fill="#083A5A"/>
<path d="M48.0904 286.675C48.2504 285.825 48.4204 284.965 48.5904 284.105C49.1304 284.465 49.6704 284.805 50.2304 285.145C50.0604 285.995 49.9004 286.855 49.7504 287.695C49.1804 287.365 48.6304 287.025 48.0904 286.675Z" fill="#083A5A"/>
<path d="M49.7504 287.695C49.9004 286.855 50.0604 285.995 50.2304 285.145C50.7804 285.475 51.3404 285.815 51.9004 286.155C51.7504 287.005 51.5804 287.875 51.4304 288.725C50.8704 288.395 50.3004 288.045 49.7504 287.695Z" fill="#083A5A"/>
<path d="M51.4304 288.725C51.5804 287.875 51.7504 287.005 51.9004 286.155C52.4504 286.505 53.0005 286.845 53.5704 287.185C53.4205 288.035 53.2704 288.895 53.1204 289.745C52.5604 289.405 51.9904 289.065 51.4304 288.725Z" fill="#083A5A"/>
<path d="M53.1204 289.745C53.2704 288.895 53.4205 288.035 53.5704 287.185C54.1205 287.525 54.6804 287.865 55.2504 288.205C55.1004 289.055 54.9604 289.915 54.8104 290.765C54.2404 290.425 53.6804 290.085 53.1204 289.745Z" fill="#083A5A"/>
<path d="M55.6704 291.255C55.8104 290.425 55.9504 289.575 56.1004 288.715C56.6504 289.055 57.2204 289.395 57.7904 289.725C57.6504 290.585 57.5104 291.435 57.3804 292.275C56.8004 291.945 56.2304 291.605 55.6704 291.255Z" fill="#083A5A"/>
<path d="M57.3804 292.275C57.5104 291.435 57.6504 290.585 57.7904 289.725C58.3504 290.065 58.9204 290.415 59.4904 290.745C59.3504 291.605 59.2204 292.455 59.1004 293.305C58.5204 292.975 57.9504 292.635 57.3804 292.275Z" fill="#083A5A"/>
<path d="M59.9504 293.825C60.0804 292.965 60.2104 292.115 60.3504 291.255C60.9204 291.605 61.4804 291.945 62.0504 292.285C61.9304 293.135 61.8004 293.985 61.6804 294.845C61.1004 294.505 60.5304 294.155 59.9504 293.825Z" fill="#083A5A"/>
<path d="M61.6804 294.845C61.8004 293.985 61.9304 293.135 62.0504 292.285C62.6304 292.635 63.2004 292.965 63.7804 293.295C63.6604 294.145 63.5404 295.015 63.4104 295.865C62.8304 295.525 62.2504 295.185 61.6804 294.845Z" fill="#083A5A"/>
<path d="M63.4104 295.865C63.5404 295.015 63.6604 294.145 63.7804 293.295C64.3604 293.655 64.9204 293.985 65.5004 294.325C65.3904 295.175 65.2704 296.035 65.1604 296.875C64.5804 296.545 63.9904 296.205 63.4104 295.865Z" fill="#083A5A"/>
<path d="M66.0304 297.405C66.1404 296.545 66.2604 295.695 66.3604 294.845C66.9404 295.195 67.5304 295.525 68.1204 295.855C68.0004 296.715 67.9004 297.575 67.7904 298.415C67.2104 298.075 66.6204 297.735 66.0304 297.405Z" fill="#083A5A"/>
<path d="M67.7904 298.415C67.9004 297.575 68.0004 296.715 68.1204 295.855C68.7004 296.205 69.2804 296.545 69.8604 296.885C69.7504 297.735 69.6504 298.585 69.5504 299.435C68.9504 299.095 68.3704 298.765 67.7904 298.415Z" fill="#083A5A"/>
<path d="M69.5504 299.435C69.6504 298.585 69.7504 297.735 69.8604 296.885C70.4404 297.235 71.0304 297.575 71.6104 297.905C71.5104 298.765 71.4205 299.625 71.3204 300.475C70.7304 300.135 70.1304 299.785 69.5504 299.435Z" fill="#083A5A"/>
<path d="M71.3204 300.475C71.4205 299.625 71.5104 298.765 71.6104 297.905C72.1904 298.265 72.7904 298.605 73.3704 298.935C73.2704 299.795 73.1904 300.645 73.0904 301.505C72.4904 301.165 71.9104 300.815 71.3204 300.475Z" fill="#083A5A"/>
<path d="M73.0904 301.505C73.1904 300.645 73.2704 299.795 73.3704 298.935C73.9504 299.295 74.5504 299.635 75.1504 299.965C75.0504 300.815 74.9704 301.675 74.8704 302.535C74.2704 302.195 73.6804 301.845 73.0904 301.505Z" fill="#083A5A"/>
<path d="M74.8704 302.535C74.9704 301.675 75.0504 300.815 75.1504 299.965C75.7304 300.305 76.3304 300.655 76.9104 300.995C76.8204 301.855 76.7404 302.705 76.6604 303.565C76.0604 303.215 75.4604 302.865 74.8704 302.535Z" fill="#083A5A"/>
<path d="M77.5605 304.075C77.6305 303.225 77.7105 302.375 77.8005 301.505C78.3905 301.855 78.9905 302.205 79.5905 302.545C79.5005 303.405 79.4305 304.255 79.3504 305.095C78.7505 304.755 78.1505 304.415 77.5605 304.075Z" fill="#083A5A"/>
<path d="M79.3504 305.095C79.4305 304.255 79.5005 303.405 79.5905 302.545C80.1805 302.895 80.7804 303.245 81.3804 303.585C81.3004 304.435 81.2204 305.295 81.1504 306.135C80.5504 305.795 79.9404 305.455 79.3504 305.095Z" fill="#083A5A"/>
<path d="M81.1504 306.135C81.2204 305.295 81.3004 304.435 81.3804 303.585C81.9704 303.925 82.5604 304.265 83.1704 304.605C83.0904 305.465 83.0205 306.325 82.9604 307.165C82.3504 306.825 81.7404 306.485 81.1504 306.135Z" fill="#083A5A"/>
<path d="M82.9604 307.165C83.0205 306.325 83.0904 305.465 83.1704 304.605C83.7604 304.955 84.3704 305.305 84.9704 305.645C84.8904 306.505 84.8204 307.365 84.7705 308.205C84.1604 307.865 83.5604 307.525 82.9604 307.165Z" fill="#083A5A"/>
<path d="M85.6704 308.715C85.7304 307.875 85.7904 307.015 85.8704 306.155C86.4704 306.515 87.0805 306.855 87.6805 307.195C87.6105 308.055 87.5404 308.905 87.4904 309.765C86.8804 309.415 86.2804 309.065 85.6704 308.715Z" fill="#083A5A"/>
<path d="M87.4904 309.765C87.5404 308.905 87.6105 308.055 87.6805 307.195C88.2804 307.545 88.8804 307.895 89.4904 308.225C89.4104 309.085 89.3504 309.945 89.3004 310.795C88.6904 310.455 88.0904 310.105 87.4904 309.765Z" fill="#083A5A"/>
<path d="M89.3004 310.795C89.3504 309.945 89.4104 309.085 89.4904 308.225C90.0804 308.585 90.7004 308.925 91.3104 309.255C91.2404 310.125 91.1805 310.985 91.1204 311.835C90.5104 311.485 89.9004 311.145 89.3004 310.795Z" fill="#083A5A"/>
<path d="M91.1204 311.835C91.1805 310.985 91.2404 310.125 91.3104 309.255C91.9104 309.625 92.5104 309.965 93.1204 310.295C93.0504 311.165 92.9904 312.025 92.9404 312.885C92.3304 312.535 91.7204 312.185 91.1204 311.835Z" fill="#083A5A"/>
<path d="M92.9404 312.885C92.9904 312.025 93.0504 311.165 93.1204 310.295C93.7104 310.655 94.3304 311.005 94.9504 311.335C94.8804 312.195 94.8204 313.065 94.7604 313.925C94.1404 313.575 93.5404 313.235 92.9404 312.885Z" fill="#083A5A"/>
<path d="M94.7604 313.925C94.8204 313.065 94.8804 312.195 94.9504 311.335C95.5404 311.695 96.1504 312.045 96.7604 312.385C96.6904 313.245 96.6404 314.105 96.5804 314.955C95.9704 314.615 95.3604 314.275 94.7604 313.925Z" fill="#083A5A"/>
<path d="M96.5804 314.955C96.6404 314.105 96.6904 313.245 96.7604 312.385C97.3604 312.725 97.9705 313.075 98.5905 313.435C98.5205 314.295 98.4604 315.145 98.4104 315.995C97.7905 315.655 97.1704 315.305 96.5804 314.955Z" fill="#083A5A"/>
<path d="M99.3204 316.515C99.3805 315.655 99.4304 314.805 99.4904 313.945C100.1 314.295 100.7 314.645 101.31 314.975C101.25 315.845 101.19 316.705 101.13 317.565C100.52 317.225 99.9104 316.865 99.3204 316.515Z" fill="#083A5A"/>
<path d="M101.13 317.565C101.19 316.705 101.25 315.845 101.31 314.975C101.92 315.335 102.52 315.685 103.14 316.025C103.08 316.885 103.01 317.745 102.95 318.595C102.33 318.255 101.72 317.905 101.13 317.565Z" fill="#083A5A"/>
<path d="M103.85 319.105C103.91 318.245 103.98 317.395 104.05 316.535C104.65 316.895 105.25 317.235 105.87 317.575C105.8 318.435 105.73 319.295 105.66 320.155C105.06 319.815 104.45 319.475 103.85 319.105Z" fill="#083A5A"/>
<path d="M105.66 320.155C105.73 319.295 105.8 318.435 105.87 317.575C106.47 317.915 107.08 318.275 107.69 318.625C107.61 319.475 107.55 320.335 107.47 321.195C106.87 320.855 106.27 320.505 105.66 320.155Z" fill="#083A5A"/>
<path d="M107.47 321.195C107.55 320.335 107.61 319.475 107.69 318.625C108.29 318.965 108.89 319.315 109.51 319.665C109.43 320.525 109.35 321.375 109.27 322.235C108.67 321.895 108.06 321.545 107.47 321.195Z" fill="#083A5A"/>
<path d="M109.27 322.235C109.35 321.375 109.43 320.525 109.51 319.665C110.1 320.005 110.71 320.345 111.32 320.695C111.23 321.555 111.15 322.415 111.07 323.275C110.46 322.925 109.87 322.585 109.27 322.235Z" fill="#083A5A"/>
<path d="M111.07 323.275C111.15 322.415 111.23 321.555 111.32 320.695C111.92 321.035 112.52 321.385 113.12 321.735C113.03 322.595 112.94 323.455 112.86 324.305C112.26 323.965 111.67 323.615 111.07 323.275Z" fill="#083A5A"/>
<path d="M46.8604 292.845C47.0304 291.985 47.2004 291.125 47.3804 290.265C47.9304 290.615 48.5004 290.955 49.0704 291.285C48.9004 292.145 48.7304 293.005 48.5604 293.855C47.9904 293.525 47.4304 293.175 46.8604 292.845Z" fill="#083A5A"/>
<path d="M49.4304 294.365C49.5904 293.515 49.7504 292.655 49.9204 291.795C50.4904 292.125 51.0604 292.475 51.6304 292.805C51.4704 293.675 51.3104 294.525 51.1604 295.375C50.5804 295.035 50.0004 294.705 49.4304 294.365Z" fill="#083A5A"/>
<path d="M51.1604 295.375C51.3104 294.525 51.4704 293.675 51.6304 292.805C52.2004 293.145 52.7704 293.485 53.3404 293.835C53.1904 294.685 53.0404 295.545 52.8904 296.395C52.3104 296.045 51.7304 295.705 51.1604 295.375Z" fill="#083A5A"/>
<path d="M52.8904 296.395C53.0404 295.545 53.1904 294.685 53.3404 293.835C53.9104 294.185 54.4804 294.515 55.0704 294.845C54.9205 295.695 54.7804 296.545 54.6304 297.395C54.0504 297.065 53.4604 296.725 52.8904 296.395Z" fill="#083A5A"/>
<path d="M54.6304 297.395C54.7804 296.545 54.9205 295.695 55.0704 294.845C55.6404 295.195 56.2104 295.535 56.8004 295.855C56.6504 296.715 56.5104 297.575 56.3904 298.425C55.8004 298.085 55.2104 297.745 54.6304 297.395Z" fill="#083A5A"/>
<path d="M56.3904 298.425C56.5104 297.575 56.6504 296.715 56.8004 295.855C57.3704 296.215 57.9504 296.545 58.5404 296.885C58.4104 297.735 58.2704 298.575 58.1404 299.425C57.5404 299.095 56.9604 298.755 56.3904 298.425Z" fill="#083A5A"/>
<path d="M58.1404 299.425C58.2704 298.575 58.4104 297.735 58.5404 296.885C59.1104 297.235 59.7004 297.565 60.2804 297.895C60.1504 298.755 60.0204 299.605 59.9004 300.445C59.3104 300.105 58.7204 299.775 58.1404 299.425Z" fill="#083A5A"/>
<path d="M59.9004 300.445C60.0204 299.605 60.1504 298.755 60.2804 297.895C60.8604 298.245 61.4504 298.585 62.0304 298.925C61.9004 299.775 61.7904 300.625 61.6704 301.475C61.0804 301.135 60.4904 300.795 59.9004 300.445Z" fill="#083A5A"/>
<path d="M61.6704 301.475C61.7904 300.625 61.9004 299.775 62.0304 298.925C62.6204 299.265 63.2105 299.605 63.7905 299.945C63.6805 300.795 63.5704 301.645 63.4604 302.495C62.8604 302.145 62.2704 301.815 61.6704 301.475Z" fill="#083A5A"/>
<path d="M64.3504 303.005C64.4604 302.155 64.5704 301.295 64.6804 300.445C65.2604 300.795 65.8504 301.145 66.4604 301.485C66.3504 302.335 66.2505 303.185 66.1404 304.025C65.5304 303.685 64.9304 303.335 64.3504 303.005Z" fill="#083A5A"/>
<path d="M66.1404 304.025C66.2505 303.185 66.3504 302.335 66.4604 301.485C67.0504 301.815 67.6304 302.155 68.2304 302.495C68.1204 303.355 68.0204 304.205 67.9304 305.045C67.3304 304.715 66.7304 304.375 66.1404 304.025Z" fill="#083A5A"/>
<path d="M68.8204 305.565C68.9205 304.715 69.0204 303.865 69.1204 303.005C69.7204 303.365 70.3204 303.705 70.9204 304.045C70.8204 304.895 70.7204 305.745 70.6304 306.595C70.0304 306.255 69.4305 305.905 68.8204 305.565Z" fill="#083A5A"/>
<path d="M70.6304 306.595C70.7204 305.745 70.8204 304.895 70.9204 304.045C71.5104 304.395 72.1004 304.735 72.7004 305.065C72.6004 305.915 72.5204 306.775 72.4404 307.625C71.8304 307.285 71.2304 306.935 70.6304 306.595Z" fill="#083A5A"/>
<path d="M72.4404 307.625C72.5204 306.775 72.6004 305.915 72.7004 305.065C73.2904 305.425 73.8904 305.765 74.5104 306.105C74.4104 306.955 74.3304 307.805 74.2504 308.655C73.6404 308.305 73.0304 307.965 72.4404 307.625Z" fill="#083A5A"/>
<path d="M74.2504 308.655C74.3304 307.805 74.4104 306.955 74.5104 306.105C75.1004 306.455 75.7004 306.795 76.3104 307.125C76.2204 307.985 76.1404 308.835 76.0704 309.685C75.4604 309.345 74.8504 309.005 74.2504 308.655Z" fill="#083A5A"/>
<path d="M76.0704 309.685C76.1404 308.835 76.2204 307.985 76.3104 307.125C76.9004 307.485 77.5104 307.825 78.1204 308.165C78.0404 309.025 77.9705 309.875 77.8904 310.715C77.2705 310.375 76.6604 310.035 76.0704 309.685Z" fill="#083A5A"/>
<path d="M78.8004 311.245C78.8704 310.395 78.9504 309.545 79.0304 308.685C79.6204 309.035 80.2304 309.375 80.8405 309.715C80.7604 310.575 80.6904 311.435 80.6204 312.285C80.0104 311.935 79.4004 311.585 78.8004 311.245Z" fill="#083A5A"/>
<path d="M80.6204 312.285C80.6904 311.435 80.7604 310.575 80.8405 309.715C81.4404 310.065 82.0504 310.405 82.6704 310.755C82.5904 311.605 82.5205 312.475 82.4604 313.325C81.8405 312.975 81.2304 312.625 80.6204 312.285Z" fill="#083A5A"/>
<path d="M82.4604 313.325C82.5205 312.475 82.5904 311.605 82.6704 310.755C83.2604 311.105 83.8704 311.445 84.4804 311.795C84.4104 312.655 84.3504 313.515 84.2904 314.365C83.6704 314.025 83.0604 313.675 82.4604 313.325Z" fill="#083A5A"/>
<path d="M85.2004 314.885C85.2604 314.025 85.3204 313.175 85.3904 312.325C86.0005 312.665 86.6104 313.015 87.2204 313.355C87.1604 314.215 87.1004 315.065 87.0404 315.925C86.4304 315.585 85.8104 315.225 85.2004 314.885Z" fill="#083A5A"/>
<path d="M87.0404 315.925C87.1004 315.065 87.1604 314.215 87.2204 313.355C87.8204 313.695 88.4304 314.055 89.0404 314.405C88.9704 315.265 88.9104 316.115 88.8605 316.965C88.2605 316.625 87.6404 316.275 87.0404 315.925Z" fill="#083A5A"/>
<path d="M88.8605 316.965C88.9104 316.115 88.9704 315.265 89.0404 314.405C89.6404 314.745 90.2505 315.105 90.8704 315.445C90.8004 316.295 90.7504 317.155 90.7004 318.015C90.0804 317.665 89.4604 317.325 88.8605 316.965Z" fill="#083A5A"/>
<path d="M90.7004 318.015C90.7504 317.155 90.8004 316.295 90.8704 315.445C91.4704 315.785 92.0804 316.145 92.6904 316.485C92.6304 317.335 92.5805 318.185 92.5205 319.045C91.9205 318.705 91.3004 318.365 90.7004 318.015Z" fill="#083A5A"/>
<path d="M92.5205 319.045C92.5805 318.185 92.6304 317.335 92.6904 316.485C93.2904 316.825 93.9004 317.175 94.5104 317.525C94.4504 318.385 94.4005 319.235 94.3405 320.095C93.7304 319.755 93.1204 319.395 92.5205 319.045Z" fill="#083A5A"/>
<path d="M94.3405 320.095C94.4005 319.235 94.4504 318.385 94.5104 317.525C95.1104 317.875 95.7204 318.225 96.3304 318.565C96.2704 319.425 96.2205 320.275 96.1604 321.135C95.5605 320.795 94.9505 320.435 94.3405 320.095Z" fill="#083A5A"/>
<path d="M97.0604 321.655C97.1204 320.805 97.1704 319.945 97.2404 319.085C97.8404 319.435 98.4504 319.785 99.0604 320.115C98.9904 320.975 98.9404 321.845 98.8804 322.705C98.2704 322.355 97.6604 321.995 97.0604 321.655Z" fill="#083A5A"/>
<path d="M98.8804 322.705C98.9404 321.845 98.9904 320.975 99.0604 320.115C99.6604 320.475 100.26 320.825 100.86 321.155C100.8 322.025 100.73 322.885 100.68 323.735C100.08 323.395 99.4804 323.045 98.8804 322.705Z" fill="#083A5A"/>
<path d="M100.68 323.735C100.73 322.885 100.8 322.025 100.86 321.155C101.46 321.515 102.06 321.865 102.67 322.205C102.6 323.065 102.54 323.925 102.47 324.785C101.86 324.445 101.27 324.085 100.68 323.735Z" fill="#083A5A"/>
<path d="M102.47 324.785C102.54 323.925 102.6 323.065 102.67 322.205C103.26 322.545 103.86 322.905 104.47 323.245C104.39 324.105 104.33 324.965 104.25 325.825C103.66 325.485 103.07 325.125 102.47 324.785Z" fill="#083A5A"/>
<path d="M45.6504 298.975C45.8104 298.125 45.9804 297.275 46.1504 296.435C46.7204 296.765 47.3004 297.095 47.8704 297.445C47.7004 298.295 47.5504 299.135 47.3904 299.975C46.8004 299.645 46.2204 299.315 45.6504 298.975Z" fill="#083A5A"/>
<path d="M47.3904 299.975C47.5504 299.135 47.7004 298.295 47.8704 297.445C48.4504 297.775 49.0304 298.115 49.6304 298.445C49.4704 299.305 49.3204 300.145 49.1604 300.995C48.5604 300.665 47.9604 300.325 47.3904 299.975Z" fill="#083A5A"/>
<path d="M49.1604 300.995C49.3204 300.145 49.4704 299.305 49.6304 298.445C50.2104 298.785 50.7904 299.115 51.3804 299.445C51.2304 300.295 51.0804 301.145 50.9404 301.995C50.3404 301.665 49.7504 301.325 49.1604 300.995Z" fill="#083A5A"/>
<path d="M50.9404 301.995C51.0804 301.145 51.2304 300.295 51.3804 299.445C51.9704 299.785 52.5604 300.125 53.1504 300.455C53.0005 301.305 52.8604 302.155 52.7204 303.005C52.1104 302.675 51.5204 302.345 50.9404 301.995Z" fill="#083A5A"/>
<path d="M52.7204 303.005C52.8604 302.155 53.0005 301.305 53.1504 300.455C53.7404 300.805 54.3304 301.145 54.9304 301.475C54.7804 302.325 54.6404 303.175 54.5204 304.015C53.9104 303.685 53.3204 303.345 52.7204 303.005Z" fill="#083A5A"/>
<path d="M54.5204 304.015C54.6404 303.175 54.7804 302.325 54.9304 301.475C55.5104 301.815 56.1004 302.145 56.7004 302.495C56.5604 303.345 56.4404 304.185 56.3204 305.015C55.7104 304.695 55.1104 304.355 54.5204 304.015Z" fill="#083A5A"/>
<path d="M56.3204 305.015C56.4404 304.185 56.5604 303.345 56.7004 302.495C57.3004 302.825 57.9004 303.165 58.4904 303.505C58.3704 304.355 58.2404 305.195 58.1204 306.045C57.5104 305.705 56.9104 305.375 56.3204 305.015Z" fill="#083A5A"/>
<path d="M58.1204 306.045C58.2404 305.195 58.3704 304.355 58.4904 303.505C59.0904 303.845 59.6804 304.175 60.2804 304.525C60.1604 305.375 60.0504 306.225 59.9304 307.045C59.3204 306.725 58.7204 306.385 58.1204 306.045Z" fill="#083A5A"/>
<path d="M59.9304 307.045C60.0504 306.225 60.1604 305.375 60.2804 304.525C60.8704 304.865 61.4804 305.195 62.0905 305.545C61.9704 306.395 61.8605 307.235 61.7505 308.065C61.1404 307.745 60.5204 307.405 59.9304 307.045Z" fill="#083A5A"/>
<path d="M62.6604 308.595C62.7604 307.745 62.8704 306.895 62.9804 306.055C63.5805 306.395 64.1804 306.735 64.7904 307.065C64.6804 307.925 64.5704 308.775 64.4804 309.625C63.8704 309.275 63.2704 308.935 62.6604 308.595Z" fill="#083A5A"/>
<path d="M64.4804 309.625C64.5704 308.775 64.6804 307.925 64.7904 307.065C65.3904 307.425 65.9904 307.765 66.6104 308.095C66.5104 308.945 66.4004 309.795 66.3104 310.635C65.7104 310.295 65.1005 309.955 64.4804 309.625Z" fill="#083A5A"/>
<path d="M66.3104 310.635C66.4004 309.795 66.5104 308.945 66.6104 308.095C67.2004 308.445 67.8104 308.785 68.4204 309.115C68.3204 309.975 68.2304 310.825 68.1404 311.665C67.5304 311.325 66.9205 310.975 66.3104 310.635Z" fill="#083A5A"/>
<path d="M68.1404 311.665C68.2304 310.825 68.3204 309.975 68.4204 309.115C69.0404 309.475 69.6404 309.815 70.2504 310.155C70.1604 311.015 70.0704 311.865 69.9904 312.715C69.3804 312.375 68.7704 312.015 68.1404 311.665Z" fill="#083A5A"/>
<path d="M69.9904 312.715C70.0704 311.865 70.1604 311.015 70.2504 310.155C70.8504 310.505 71.4604 310.845 72.0804 311.185C71.9904 312.035 71.9104 312.895 71.8304 313.745C71.2204 313.405 70.6004 313.065 69.9904 312.715Z" fill="#083A5A"/>
<path d="M71.8304 313.745C71.9104 312.895 71.9904 312.035 72.0804 311.185C72.6804 311.535 73.2904 311.885 73.9204 312.235C73.8304 313.095 73.7504 313.935 73.6904 314.785C73.0604 314.445 72.4404 314.105 71.8304 313.745Z" fill="#083A5A"/>
<path d="M73.6904 314.785C73.7504 313.935 73.8304 313.095 73.9204 312.235C74.5204 312.585 75.1304 312.925 75.7404 313.275C75.6704 314.125 75.6004 314.975 75.5304 315.825C74.9204 315.485 74.3004 315.135 73.6904 314.785Z" fill="#083A5A"/>
<path d="M75.5304 315.825C75.6004 314.975 75.6704 314.125 75.7404 313.275C76.3604 313.615 76.9704 313.975 77.6004 314.315C77.5204 315.165 77.4505 316.015 77.4005 316.865C76.7705 316.525 76.1504 316.175 75.5304 315.825Z" fill="#083A5A"/>
<path d="M77.4005 316.865C77.4505 316.015 77.5204 315.165 77.6004 314.315C78.2004 314.655 78.8204 315.015 79.4305 315.355C79.3605 316.215 79.3004 317.055 79.2505 317.905C78.6305 317.565 78.0105 317.225 77.4005 316.865Z" fill="#083A5A"/>
<path d="M79.2505 317.905C79.3004 317.055 79.3605 316.215 79.4305 315.355C80.0405 315.695 80.6604 316.045 81.2705 316.385C81.2005 317.245 81.1404 318.105 81.1004 318.955C80.4804 318.615 79.8605 318.265 79.2505 317.905Z" fill="#083A5A"/>
<path d="M82.0304 319.475C82.0804 318.625 82.1304 317.775 82.2004 316.915C82.8104 317.255 83.4304 317.615 84.0404 317.955C83.9804 318.815 83.9305 319.675 83.8704 320.525C83.2604 320.175 82.6404 319.835 82.0304 319.475Z" fill="#083A5A"/>
<path d="M83.8704 320.525C83.9305 319.675 83.9804 318.815 84.0404 317.955C84.6504 318.315 85.2604 318.655 85.8904 318.995C85.8204 319.865 85.7704 320.715 85.7404 321.575C85.1104 321.235 84.4804 320.875 83.8704 320.525Z" fill="#083A5A"/>
<path d="M86.6504 322.085C86.7004 321.245 86.7504 320.385 86.8104 319.515C87.4104 319.875 88.0205 320.225 88.6404 320.575C88.5804 321.435 88.5304 322.295 88.4904 323.145C87.8804 322.795 87.2604 322.455 86.6504 322.085Z" fill="#083A5A"/>
<path d="M88.4904 323.145C88.5304 322.295 88.5804 321.435 88.6404 320.575C89.2404 320.915 89.8504 321.265 90.4804 321.615C90.4204 322.475 90.3805 323.335 90.3204 324.195C89.7104 323.845 89.1004 323.495 88.4904 323.145Z" fill="#083A5A"/>
<path d="M90.3204 324.195C90.3805 323.335 90.4204 322.475 90.4804 321.615C91.0804 321.965 91.6904 322.305 92.2904 322.655C92.2404 323.525 92.2004 324.385 92.1504 325.225C91.5404 324.885 90.9305 324.535 90.3204 324.195Z" fill="#083A5A"/>
<path d="M92.1504 325.225C92.2004 324.385 92.2404 323.525 92.2904 322.655C92.9004 322.995 93.5104 323.355 94.1304 323.695C94.0704 324.565 94.0204 325.425 93.9704 326.285C93.3604 325.935 92.7504 325.585 92.1504 325.225Z" fill="#083A5A"/>
<path d="M94.8804 326.795C94.9304 325.945 94.9804 325.085 95.0304 324.225C95.6204 324.575 96.2304 324.925 96.8304 325.255C96.7804 326.125 96.7204 326.995 96.6704 327.855C96.0704 327.505 95.4704 327.155 94.8804 326.795Z" fill="#083A5A"/>
<path d="M96.6704 327.855C96.7204 326.995 96.7804 326.125 96.8304 325.255C97.4304 325.625 98.0304 325.965 98.6304 326.295C98.5704 327.175 98.5205 328.035 98.4804 328.895C97.8704 328.555 97.2704 328.195 96.6704 327.855Z" fill="#083A5A"/>
<path d="M98.4804 328.895C98.5205 328.035 98.5704 327.175 98.6304 326.295C99.2304 326.665 99.8204 327.005 100.42 327.345C100.36 328.205 100.3 329.075 100.24 329.935C99.6604 329.595 99.0704 329.235 98.4804 328.895Z" fill="#083A5A"/>
<path d="M100.24 329.935C100.3 329.075 100.36 328.205 100.42 327.345C101.01 327.705 101.61 328.045 102.2 328.395C102.14 329.255 102.08 330.115 102.02 330.975C101.42 330.635 100.83 330.295 100.24 329.935Z" fill="#083A5A"/>
<path d="M102.02 330.975C102.08 330.115 102.14 329.255 102.2 328.395C102.79 328.745 103.38 329.085 103.98 329.435C103.91 330.295 103.84 331.155 103.78 332.015C103.19 331.675 102.61 331.335 102.02 330.975Z" fill="#083A5A"/>
<path d="M103.78 332.015C103.84 331.155 103.91 330.295 103.98 329.435C104.55 329.785 105.15 330.135 105.74 330.485C105.67 331.335 105.6 332.195 105.53 333.055C104.94 332.715 104.35 332.375 103.78 332.015Z" fill="#083A5A"/>
<path d="M105.53 333.055C105.6 332.195 105.67 331.335 105.74 330.485C106.32 330.825 106.9 331.165 107.48 331.505C107.41 332.375 107.33 333.235 107.26 334.095C106.69 333.755 106.11 333.405 105.53 333.055Z" fill="#083A5A"/>
<path d="M108.13 334.615C108.2 333.755 108.28 332.895 108.35 332.035C108.93 332.385 109.51 332.725 110.1 333.065C110.02 333.935 109.94 334.795 109.86 335.655C109.28 335.315 108.7 334.965 108.13 334.615Z" fill="#083A5A"/>
<path d="M109.86 335.655C109.94 334.795 110.02 333.935 110.1 333.065C110.67 333.425 111.25 333.765 111.83 334.095C111.73 334.955 111.65 335.825 111.57 336.695C111 336.335 110.43 335.995 109.86 335.655Z" fill="#083A5A"/>
<path d="M44.4604 305.095C44.6104 304.255 44.7704 303.415 44.9404 302.565C45.5404 302.895 46.1304 303.225 46.7204 303.545C46.5604 304.405 46.4104 305.255 46.2704 306.095C45.6604 305.765 45.0604 305.425 44.4604 305.095Z" fill="#083A5A"/>
<path d="M46.2704 306.095C46.4104 305.255 46.5604 304.405 46.7204 303.545C47.3104 303.885 47.9104 304.215 48.5304 304.545C48.3704 305.405 48.2204 306.255 48.0904 307.075C47.4604 306.755 46.8504 306.435 46.2704 306.095Z" fill="#083A5A"/>
<path d="M48.0904 307.075C48.2204 306.255 48.3704 305.405 48.5304 304.545C49.1204 304.885 49.7304 305.225 50.3304 305.555C50.1904 306.405 50.0404 307.245 49.9104 308.075C49.3004 307.755 48.6904 307.425 48.0904 307.075Z" fill="#083A5A"/>
<path d="M49.9104 308.075C50.0404 307.245 50.1904 306.405 50.3304 305.555C50.9304 305.885 51.5304 306.235 52.1404 306.565C52.0004 307.405 51.8704 308.245 51.7404 309.075C51.1304 308.755 50.5204 308.425 49.9104 308.075Z" fill="#083A5A"/>
<path d="M51.7404 309.075C51.8704 308.245 52.0004 307.405 52.1404 306.565C52.7504 306.895 53.3604 307.225 53.9704 307.555C53.8404 308.405 53.7204 309.245 53.5904 310.085C52.9804 309.745 52.3504 309.415 51.7404 309.075Z" fill="#083A5A"/>
<path d="M53.5904 310.085C53.7204 309.245 53.8404 308.405 53.9704 307.555C54.5704 307.895 55.1804 308.235 55.7904 308.585C55.6704 309.425 55.5504 310.255 55.4404 311.105C54.8204 310.765 54.2104 310.425 53.5904 310.085Z" fill="#083A5A"/>
<path d="M56.3604 311.615C56.4804 310.775 56.5904 309.925 56.7104 309.075C57.3204 309.425 57.9304 309.765 58.5504 310.085C58.4304 310.945 58.3104 311.785 58.2104 312.625C57.5904 312.295 56.9804 311.965 56.3604 311.615Z" fill="#083A5A"/>
<path d="M58.2104 312.625C58.3104 311.785 58.4304 310.945 58.5504 310.085C59.1504 310.435 59.7604 310.775 60.3804 311.105C60.2704 311.965 60.1704 312.805 60.0704 313.655C59.4404 313.315 58.8304 312.975 58.2104 312.625Z" fill="#083A5A"/>
<path d="M60.0704 313.655C60.1704 312.805 60.2704 311.965 60.3804 311.105C61.0005 311.465 61.6104 311.815 62.2304 312.155C62.1204 312.985 62.0204 313.835 61.9304 314.685C61.3004 314.345 60.6904 314.005 60.0704 313.655Z" fill="#083A5A"/>
<path d="M61.9304 314.685C62.0204 313.835 62.1204 312.985 62.2304 312.155C62.8405 312.495 63.4504 312.835 64.0704 313.175C63.9704 314.015 63.8804 314.865 63.8004 315.715C63.1705 315.375 62.5604 315.035 61.9304 314.685Z" fill="#083A5A"/>
<path d="M63.8004 315.715C63.8804 314.865 63.9704 314.015 64.0704 313.175C64.7004 313.515 65.3104 313.865 65.9304 314.215C65.8404 315.045 65.7504 315.895 65.6804 316.745C65.0504 316.405 64.4304 316.055 63.8004 315.715Z" fill="#083A5A"/>
<path d="M65.6804 316.745C65.7504 315.895 65.8404 315.045 65.9304 314.215C66.5404 314.555 67.1604 314.895 67.7904 315.235C67.7104 316.085 67.6204 316.935 67.5404 317.785C66.9204 317.445 66.3004 317.095 65.6804 316.745Z" fill="#083A5A"/>
<path d="M67.5404 317.785C67.6204 316.935 67.7104 316.085 67.7904 315.235C68.4204 315.585 69.0404 315.935 69.6604 316.275C69.5804 317.125 69.5004 317.975 69.4404 318.815C68.8004 318.475 68.1804 318.125 67.5404 317.785Z" fill="#083A5A"/>
<path d="M34.6089 321.93L113.103 365.591" stroke="#083A5A" stroke-linejoin="round" stroke-dasharray="2 2"/>
<rect width="2.21519" height="30.3778" rx="1.1076" transform="matrix(0.866025 -0.5 2.20305e-08 1 327.597 284.984)" fill="#CDFFFA"/>
<rect width="2.21519" height="30.3778" rx="1.1076" transform="matrix(0.866025 -0.5 2.20305e-08 1 321.675 288.32)" fill="#CDFFFA"/>
<rect width="2.21519" height="30.3778" rx="1.1076" transform="matrix(0.866025 -0.5 2.20305e-08 1 315.761 291.812)" fill="#CDFFFA"/>
<rect width="48.7397" height="27.7518" rx="5" transform="matrix(0.866025 -0.5 2.20305e-08 1 267.324 321.34)" stroke="#CDFFFA"/>
<path d="M212.008 177.061C205.425 167.259 202.133 155.456 202.133 141.654L202.133 65.7644C201.914 65.6343 201.693 65.5053 201.472 65.3775C192.117 59.9764 184.148 58.3761 177.565 60.5765C170.982 62.777 167.69 70.8786 167.69 84.8815L167.69 161.397C167.69 175.2 170.982 187.002 177.565 196.804C184.148 206.406 192.117 213.908 201.472 219.309C210.827 224.71 218.709 226.36 225.119 224.26C231.702 222.059 234.994 214.058 234.994 200.255V199.024C226.036 193.667 218.374 186.346 212.008 177.061Z" fill="#083A5A" stroke="#012135"/>
<path d="M299.838 196.864C299.838 219.674 294.314 234.053 283.266 239.999C283.188 240.046 283.109 240.093 283.029 240.139L249.392 259.559C247.559 260.618 245.453 261.422 243.204 261.974C244.296 261.659 245.369 261.29 246.425 260.866C259.071 255.765 265.395 241.012 265.395 216.607V140.692C265.395 116.687 259.071 95.0328 246.425 75.7289C233.951 56.3249 218.966 41.5719 201.469 31.4699C183.972 21.3678 168.9 18.7673 156.253 23.6683C153.698 24.6182 151.401 25.9621 149.362 27.7C150.156 26.9488 151.116 26.2394 152.242 25.5895L185.879 6.16898C186.608 5.74865 187.379 5.3683 188.185 5.02794C188.992 4.6149 189.829 4.24723 190.697 3.92493C203.343 -0.976071 218.415 1.62445 235.912 11.7265C253.41 21.8285 268.395 36.5815 280.868 55.9855C293.515 75.2894 299.838 96.9438 299.838 120.949V196.864Z" fill="#083A5A" stroke="#012135"/>
<mask id="mask1_1713_70930" style="mask-type:alpha" maskUnits="userSpaceOnUse" x="149" y="1" width="151" height="261">
<path d="M283.029 239.559L283.019 239.564L283.01 239.57C282.934 239.616 282.857 239.661 282.779 239.706L254.832 255.841C262.251 248.297 265.895 235.152 265.895 216.607V140.692C265.895 116.595 259.546 94.845 246.844 75.4567C234.334 55.9962 219.294 41.1838 201.719 31.0369C185.554 21.7038 171.358 18.6964 159.184 22.1592L186.129 6.602C186.838 6.19275 187.591 5.82148 188.379 5.48855L188.396 5.48143L188.412 5.4731C189.202 5.06911 190.022 4.70925 190.871 4.3936L190.871 4.39364L190.877 4.39115C203.324 -0.432552 218.23 2.09511 235.662 12.1595C253.081 22.2164 268.011 36.9094 280.447 56.2559L280.45 56.2595C293.041 75.4786 299.338 97.037 299.338 120.949V196.864C299.338 219.642 293.815 233.754 283.029 239.559Z" fill="#083A5A" stroke="#012135"/>
</mask>
<g mask="url(#mask1_1713_70930)">
<rect width="215.763" height="215.938" transform="matrix(0.866025 0.5 -0.866025 0.5 186.519 -86.7031)" fill="#CDFFFA"/>
<rect width="2" height="203.461" transform="matrix(-0.866025 -0.5 -0.866025 0.5 375.366 24)" fill="#CDFFFA"/>
</g>
<path d="M265.395 216.606C265.395 241.011 259.072 255.764 246.425 260.865C233.952 265.866 218.966 263.316 201.469 253.214C190.382 246.812 180.161 238.611 170.806 228.609C161.451 218.407 153.482 205.704 146.899 190.501C140.489 175.198 137.284 159.245 137.284 142.641L137.284 66.7258C137.284 42.721 143.607 28.3681 156.253 23.6671C168.9 18.7661 183.972 21.3666 201.469 31.4687C218.966 41.5707 233.952 56.3237 246.425 75.7277C259.072 95.0316 265.395 116.686 265.395 140.691V216.606ZM167.687 161.395C167.687 175.198 170.979 187 177.562 196.802C184.145 206.404 192.114 213.906 201.469 219.307C210.824 224.708 218.707 226.358 225.116 224.258C231.7 222.057 234.991 214.056 234.991 200.253V123.737C234.991 109.735 231.7 97.8321 225.116 88.0302C218.707 78.3282 210.824 70.7767 201.469 65.3756C192.114 59.9745 184.145 58.3741 177.562 60.5746C170.979 62.775 167.687 70.8767 167.687 84.8795L167.687 161.395Z" fill="#99D3CE" stroke="#012135"/>
<path fill-rule="evenodd" clip-rule="evenodd" d="M198.598 128.454C200.384 127.624 201.277 125.523 201.277 122.153V114.154C201.277 110.784 200.384 107.677 198.598 104.835C196.855 101.967 194.524 99.6911 191.605 98.0058C188.73 96.3457 186.399 95.9307 184.613 96.7607C184.435 96.8382 184.267 96.9284 184.107 97.0314L173.851 102.949L178.696 106.844L178.553 106.884L177.023 126.792L181.151 130.085L189.099 125.49C189.223 125.59 189.347 125.688 189.474 125.785L184.179 131.107L188.307 134.4L198.564 128.469L198.598 128.454ZM188.544 150.14C188.541 150.13 188.537 150.12 188.534 150.111C188.403 149.683 188.447 149.331 188.664 149.054L209.584 122.843L206.625 119.734C206.766 119.678 213.364 115.826 216.822 113.804C217.127 113.556 217.565 113.598 218.137 113.928L223.823 117.21C224.258 117.462 224.542 117.801 224.672 118.229C224.847 118.631 224.825 118.971 224.607 119.248L196.506 154.337C196.42 154.444 196.321 154.522 196.209 154.57L185.805 160.572L181.515 154.219C181.62 154.177 185.258 152.058 188.544 150.14ZM228.92 171.617C230.706 170.787 231.599 168.686 231.599 165.316V157.317C231.599 153.947 230.706 150.84 228.92 147.998C227.134 145.105 224.803 142.829 221.928 141.169C219.052 139.509 216.721 139.094 214.935 139.924C214.757 140.002 214.587 140.093 214.426 140.196L214.426 140.195L204.156 146.121L209.005 150.019L208.857 150.06L207.328 169.968L211.455 173.261L219.419 168.657C219.541 168.755 219.664 168.851 219.788 168.946L214.484 174.278L218.611 177.571L228.876 171.637L228.92 171.617Z" fill="#083A5A"/>
<path d="M198.598 128.454L198.806 128.908L198.808 128.907L198.598 128.454ZM198.598 104.835L198.17 105.095L198.174 105.101L198.598 104.835ZM191.605 98.0058L191.355 98.4388L191.605 98.0058ZM184.613 96.7607L184.813 97.2191L184.823 97.2142L184.613 96.7607ZM184.107 97.0314L184.357 97.4645L184.367 97.4583L184.378 97.4517L184.107 97.0314ZM173.851 102.949L173.601 102.516L172.969 102.881L173.538 103.339L173.851 102.949ZM178.696 106.844L178.83 107.326L179.77 107.065L179.01 106.454L178.696 106.844ZM178.553 106.884L178.419 106.402L178.081 106.496L178.054 106.846L178.553 106.884ZM177.023 126.792L176.525 126.754L176.504 127.018L176.711 127.183L177.023 126.792ZM181.151 130.085L180.839 130.476L181.105 130.689L181.401 130.518L181.151 130.085ZM189.099 125.49L189.413 125.101L189.146 124.885L188.849 125.057L189.099 125.49ZM189.474 125.785L189.828 126.137L190.229 125.734L189.778 125.388L189.474 125.785ZM184.179 131.107L183.825 130.754L183.432 131.15L183.868 131.497L184.179 131.107ZM188.307 134.4L187.995 134.79L188.262 135.003L188.557 134.832L188.307 134.4ZM198.564 128.469L198.356 128.015L198.334 128.025L198.314 128.036L198.564 128.469ZM188.534 150.111L188.056 150.257L188.058 150.266L188.061 150.274L188.534 150.111ZM188.544 150.14L188.796 150.572L189.159 150.36L189.013 149.966L188.544 150.14ZM188.664 149.054L188.274 148.742L188.272 148.745L188.664 149.054ZM209.584 122.843L209.975 123.155L210.247 122.814L209.946 122.498L209.584 122.843ZM206.625 119.734L206.439 119.27L205.753 119.544L206.263 120.079L206.625 119.734ZM216.822 113.804L217.074 114.236L217.107 114.217L217.137 114.192L216.822 113.804ZM218.137 113.928L218.387 113.495L218.137 113.928ZM223.823 117.21L224.073 116.777L223.823 117.21ZM224.672 118.229L224.194 118.375L224.202 118.402L224.213 118.428L224.672 118.229ZM224.607 119.248L224.997 119.56L225 119.557L224.607 119.248ZM196.506 154.337L196.895 154.651L196.897 154.649L196.506 154.337ZM196.209 154.57L196.01 154.111L195.984 154.123L195.96 154.137L196.209 154.57ZM185.805 160.572L185.39 160.852L185.651 161.238L186.055 161.006L185.805 160.572ZM181.515 154.219L181.33 153.754L180.754 153.984L181.101 154.498L181.515 154.219ZM228.92 171.617L229.128 172.071L229.131 172.07L228.92 171.617ZM228.92 147.998L228.495 148.261L228.497 148.264L228.92 147.998ZM221.928 141.169L222.178 140.736L221.928 141.169ZM214.935 139.924L215.135 140.382L215.146 140.377L214.935 139.924ZM214.426 140.196L214.028 140.499L214.308 140.868L214.698 140.616L214.426 140.196ZM214.426 140.195L214.824 139.893L214.557 139.542L214.176 139.762L214.426 140.195ZM204.156 146.121L203.906 145.688L203.273 146.053L203.843 146.511L204.156 146.121ZM209.005 150.019L209.138 150.501L210.078 150.24L209.318 149.629L209.005 150.019ZM208.857 150.06L208.724 149.578L208.386 149.672L208.359 150.021L208.857 150.06ZM207.328 169.968L206.829 169.93L206.809 170.194L207.016 170.359L207.328 169.968ZM211.455 173.261L211.143 173.652L211.41 173.865L211.705 173.694L211.455 173.261ZM219.419 168.657L219.732 168.267L219.465 168.052L219.168 168.224L219.419 168.657ZM219.788 168.946L220.143 169.299L220.544 168.895L220.092 168.549L219.788 168.946ZM214.484 174.278L214.13 173.926L213.736 174.321L214.172 174.669L214.484 174.278ZM218.611 177.571L218.3 177.962L218.566 178.175L218.862 178.004L218.611 177.571ZM228.876 171.637L228.668 171.182L228.646 171.192L228.626 171.204L228.876 171.637ZM200.777 122.153C200.777 125.476 199.894 127.3 198.387 128L198.808 128.907C200.874 127.947 201.777 125.57 201.777 122.153H200.777ZM200.777 114.154V122.153H201.777V114.154H200.777ZM198.174 105.101C199.91 107.863 200.777 110.877 200.777 114.154H201.777C201.777 110.69 200.857 107.491 199.021 104.569L198.174 105.101ZM191.355 98.4388C194.202 100.082 196.471 102.299 198.17 105.095L199.025 104.575C197.238 101.636 194.846 99.2999 191.855 97.5728L191.355 98.4388ZM184.823 97.2142C186.384 96.4891 188.524 96.8045 191.355 98.4388L191.855 97.5728C188.935 95.8869 186.414 95.3722 184.402 96.3073L184.823 97.2142ZM184.378 97.4517C184.515 97.3635 184.659 97.2859 184.813 97.219L184.413 96.3025C184.211 96.3905 184.019 96.4934 183.836 96.6112L184.378 97.4517ZM174.101 103.382L184.357 97.4645L183.857 96.5984L173.601 102.516L174.101 103.382ZM179.01 106.454L174.165 102.559L173.538 103.339L178.383 107.234L179.01 106.454ZM178.686 107.366L178.83 107.326L178.563 106.362L178.419 106.402L178.686 107.366ZM177.522 126.831L179.051 106.922L178.054 106.846L176.525 126.754L177.522 126.831ZM181.462 129.694L177.335 126.401L176.711 127.183L180.839 130.476L181.462 129.694ZM188.849 125.057L180.9 129.652L181.401 130.518L189.349 125.923L188.849 125.057ZM189.778 125.388C189.655 125.294 189.534 125.198 189.413 125.101L188.785 125.879C188.912 125.981 189.04 126.082 189.169 126.181L189.778 125.388ZM184.534 131.459L189.828 126.137L189.119 125.432L183.825 130.754L184.534 131.459ZM188.619 134.009L184.491 130.716L183.868 131.497L187.995 134.79L188.619 134.009ZM198.314 128.036L188.057 133.967L188.557 134.832L198.815 128.902L198.314 128.036ZM198.389 128L198.356 128.015L198.773 128.923L198.806 128.908L198.389 128ZM188.061 150.274C188.066 150.287 188.07 150.3 188.075 150.313L189.013 149.966C189.011 149.96 189.008 149.953 189.006 149.947L188.061 150.274ZM188.272 148.745C187.925 149.185 187.891 149.72 188.056 150.257L189.012 149.965C188.915 149.646 188.968 149.477 189.057 149.364L188.272 148.745ZM209.194 122.531L188.274 148.742L189.055 149.366L209.975 123.155L209.194 122.531ZM206.263 120.079L209.222 123.188L209.946 122.498L206.987 119.39L206.263 120.079ZM216.569 113.373C214.84 114.384 212.327 115.852 210.228 117.074C209.178 117.686 208.233 118.235 207.541 118.635C207.195 118.836 206.913 118.998 206.714 119.112C206.614 119.169 206.536 119.213 206.481 119.244C206.453 119.26 206.433 119.271 206.42 119.278C206.393 119.292 206.411 119.281 206.439 119.27L206.81 120.199C206.847 120.184 206.887 120.162 206.894 120.158C206.914 120.148 206.939 120.133 206.968 120.117C207.028 120.084 207.109 120.038 207.21 119.98C207.412 119.865 207.695 119.701 208.042 119.501C208.735 119.1 209.681 118.55 210.731 117.938C212.831 116.716 215.345 115.247 217.074 114.236L216.569 113.373ZM218.387 113.495C217.772 113.139 217.067 112.961 216.506 113.416L217.137 114.192C217.187 114.152 217.359 114.056 217.887 114.361L218.387 113.495ZM224.073 116.777L218.387 113.495L217.887 114.361L223.573 117.643L224.073 116.777ZM225.15 118.083C224.978 117.519 224.603 117.084 224.073 116.777L223.573 117.643C223.914 117.84 224.105 118.084 224.194 118.375L225.15 118.083ZM225 119.557C225.361 119.098 225.357 118.553 225.131 118.03L224.213 118.428C224.336 118.71 224.289 118.844 224.214 118.938L225 119.557ZM196.897 154.649L224.997 119.56L224.217 118.935L196.116 154.024L196.897 154.649ZM196.408 155.029C196.603 154.944 196.765 154.812 196.895 154.651L196.118 154.022C196.075 154.075 196.038 154.099 196.01 154.111L196.408 155.029ZM186.055 161.006L196.459 155.003L195.96 154.137L185.555 160.139L186.055 161.006ZM181.101 154.498L185.39 160.852L186.219 160.293L181.93 153.939L181.101 154.498ZM188.292 149.708C186.649 150.667 184.918 151.676 183.586 152.451C182.919 152.838 182.352 153.166 181.946 153.4C181.743 153.517 181.581 153.61 181.466 153.675C181.409 153.708 181.365 153.732 181.334 153.749C181.285 153.776 181.3 153.766 181.33 153.754L181.701 154.683C181.744 154.666 181.799 154.635 181.817 154.625C181.853 154.605 181.901 154.578 181.959 154.545C182.077 154.479 182.241 154.384 182.445 154.267C182.853 154.032 183.421 153.703 184.088 153.315C185.422 152.54 187.153 151.531 188.796 150.572L188.292 149.708ZM231.099 165.316C231.099 168.639 230.216 170.463 228.709 171.163L229.131 172.07C231.196 171.11 232.099 168.733 232.099 165.316H231.099ZM231.099 157.317V165.316H232.099V157.317H231.099ZM228.497 148.264C230.233 151.026 231.099 154.04 231.099 157.317H232.099C232.099 153.853 231.18 150.654 229.343 147.732L228.497 148.264ZM221.678 141.602C224.48 143.22 226.751 145.437 228.495 148.261L229.345 147.735C227.517 144.774 225.126 142.438 222.178 140.736L221.678 141.602ZM215.146 140.377C216.706 139.652 218.847 139.967 221.678 141.602L222.178 140.736C219.258 139.05 216.737 138.535 214.724 139.47L215.146 140.377ZM214.698 140.616C214.835 140.527 214.981 140.449 215.135 140.382L214.735 139.465C214.532 139.554 214.339 139.658 214.155 139.776L214.698 140.616ZM214.027 140.497L214.028 140.499L214.825 139.894L214.824 139.893L214.027 140.497ZM204.406 146.554L214.675 140.628L214.176 139.762L203.906 145.688L204.406 146.554ZM209.318 149.629L204.469 145.731L203.843 146.511L208.691 150.408L209.318 149.629ZM208.991 150.541L209.138 150.501L208.871 149.537L208.724 149.578L208.991 150.541ZM207.826 170.006L209.356 150.098L208.359 150.021L206.829 169.93L207.826 170.006ZM211.767 172.87L207.64 169.577L207.016 170.359L211.143 173.652L211.767 172.87ZM219.168 168.224L211.205 172.828L211.705 173.694L219.669 169.09L219.168 168.224ZM220.092 168.549C219.971 168.457 219.851 168.363 219.732 168.267L219.105 169.047C219.231 169.147 219.357 169.246 219.484 169.344L220.092 168.549ZM214.839 174.631L220.143 169.299L219.434 168.594L214.13 173.926L214.839 174.631ZM218.923 177.181L214.796 173.888L214.172 174.669L218.3 177.962L218.923 177.181ZM228.626 171.204L218.361 177.139L218.862 178.004L229.126 172.07L228.626 171.204ZM228.712 171.162L228.668 171.182L229.084 172.092L229.128 172.071L228.712 171.162Z" fill="#001928"/>
<path d="M190.87 128.161C190.87 131.531 189.977 133.632 188.191 134.462C186.405 135.292 184.074 134.877 181.199 133.217C178.367 131.582 176.036 129.305 174.206 126.388C172.42 123.495 171.527 120.363 171.527 116.993L171.527 108.994C171.527 105.624 172.42 103.548 174.206 102.769C175.992 101.939 178.323 102.354 181.199 104.014C184.118 105.699 186.448 107.975 188.191 110.843C189.977 113.685 190.87 116.792 190.87 120.162L190.87 128.161ZM184.728 160.382L178.977 157.062C178.541 156.81 178.258 156.496 178.127 156.119C177.997 155.691 178.04 155.339 178.258 155.062L206.293 119.936C206.598 119.558 207.077 119.558 207.731 119.936L213.416 123.218C213.852 123.47 214.135 123.809 214.266 124.237C214.44 124.639 214.418 124.979 214.2 125.256L186.1 160.344C185.795 160.722 185.338 160.734 184.728 160.382ZM178.454 120.841C178.454 122.049 178.715 123.105 179.238 124.011C179.761 124.866 180.414 125.52 181.199 125.972C183.072 127.054 184.009 126.413 184.009 124.048L184.009 116.351C184.009 115.194 183.747 114.188 183.225 113.333C182.702 112.427 182.026 111.736 181.199 111.258C180.414 110.805 179.761 110.73 179.238 111.031C178.715 111.283 178.454 111.987 178.454 113.144L178.454 120.841ZM221.193 171.324C221.193 174.694 220.3 176.795 218.514 177.625C216.727 178.455 214.397 178.04 211.521 176.38C208.646 174.72 206.315 172.443 204.529 169.551C202.742 166.658 201.849 163.526 201.849 160.156L201.849 152.157C201.849 148.786 202.742 146.711 204.529 145.932C206.315 145.102 208.646 145.517 211.521 147.177C214.397 148.837 216.727 151.113 218.514 154.006C220.3 156.848 221.193 159.955 221.193 163.325L221.193 171.324ZM208.776 164.08C208.776 165.237 209.038 166.268 209.561 167.174C210.083 168.029 210.737 168.683 211.521 169.135C212.305 169.588 212.959 169.689 213.482 169.437C214.004 169.135 214.266 168.406 214.266 167.249L214.266 159.477C214.266 158.37 214.004 157.364 213.482 156.458C212.959 155.553 212.305 154.874 211.521 154.421C210.737 153.968 210.083 153.893 209.561 154.194C209.038 154.496 208.776 155.201 208.776 156.307L208.776 164.08Z" fill="#F1843E" stroke="#001928"/>
</g>
<defs>
<clipPath id="clip0_1713_70930">
<rect width="354" height="403" fill="white"/>
</clipPath>
</defs>
</svg>
